<svg width="480" height="512" viewBox="0 0 480 512" fill="none" xmlns="http://www.w3.org/2000/svg">
<path d="M89.45 28.7455C90.4865 28.7397 91.5231 28.7339 92.591 28.7278C93.7296 28.7316 94.8682 28.7354 96.0412 28.7393C97.8557 28.7336 97.8557 28.7336 99.7068 28.7277C103.067 28.7174 106.427 28.7196 109.787 28.7239C113.41 28.7263 117.033 28.7173 120.656 28.7098C127.755 28.6971 134.853 28.6953 141.952 28.6976C147.72 28.6994 153.489 28.6977 159.257 28.6934C160.078 28.6928 160.898 28.6922 161.743 28.6916C163.409 28.6904 165.076 28.6892 166.742 28.688C182.377 28.6771 198.012 28.6793 213.647 28.6854C227.957 28.6905 242.266 28.6793 256.576 28.6603C271.263 28.6409 285.949 28.6326 300.636 28.6364C308.884 28.6383 317.132 28.6358 325.38 28.6217C332.401 28.6098 339.423 28.6083 346.444 28.6205C350.027 28.6264 353.611 28.6274 357.194 28.6155C361.076 28.6027 364.958 28.613 368.84 28.6258C370.544 28.6147 370.544 28.6147 372.284 28.6034C373.323 28.6106 374.362 28.6178 375.432 28.6253C376.328 28.6252 377.224 28.6252 378.148 28.6251C381.116 29.0743 382.884 30.1561 385.313 32C387.397 35.1378 387.408 37.8607 387.371 41.6406C387.365 42.7105 387.359 43.7805 387.352 44.8828C387.337 45.994 387.321 47.1051 387.305 48.25C387.296 49.3766 387.288 50.5033 387.279 51.6641C387.257 54.4429 387.226 57.2213 387.188 60C387.84 59.979 388.492 59.9581 389.164 59.9365C392.138 59.853 395.111 59.8012 398.086 59.75C399.625 59.6997 399.625 59.6997 401.195 59.6484C407.106 59.572 410.927 59.5551 415.313 64C417.688 67.6847 417.428 71.5258 417.371 75.8281C417.367 76.9516 417.367 76.9516 417.363 78.0978C417.352 80.4821 417.329 82.8659 417.305 85.25C417.295 86.8698 417.287 88.4896 417.279 90.1094C417.258 94.0731 417.226 98.0365 417.188 102C418.458 101.948 418.458 101.948 419.755 101.895C420.86 101.867 421.966 101.84 423.106 101.812C424.204 101.778 425.303 101.743 426.434 101.707C429.375 102 429.375 102 430.942 103.179C432.649 105.675 432.544 107.359 432.551 110.434C432.56 111.545 432.569 112.656 432.578 113.801C432.57 115.601 432.57 115.601 432.561 117.437C432.564 118.669 432.566 119.901 432.569 121.17C432.572 124.443 432.56 127.717 432.545 130.991C432.539 132.998 432.545 135.005 432.554 137.013C432.572 140.863 432.569 144.712 432.561 148.562C432.567 149.763 432.572 150.963 432.578 152.199C432.569 153.31 432.561 154.421 432.551 155.566C432.549 156.546 432.547 157.525 432.545 158.533C432.188 161 432.188 161 429.375 164C425.353 164 421.331 164 417.188 164C417.188 214.16 417.188 264.32 417.188 316C427.706 316 438.225 316 449.063 316C454.767 322.085 454.829 323.817 454.839 331.868C454.843 332.787 454.848 333.706 454.853 334.653C454.866 337.702 454.873 340.751 454.878 343.801C454.883 345.916 454.889 348.031 454.894 350.146C454.904 354.586 454.909 359.025 454.913 363.465C454.918 369.154 454.94 374.844 454.967 380.534C454.985 384.904 454.989 389.275 454.991 393.646C454.994 395.744 455.001 397.841 455.014 399.939C455.03 402.874 455.028 405.808 455.022 408.743C455.03 409.611 455.039 410.478 455.048 411.371C455.017 416.083 454.724 419.16 451.875 423C448.614 425.642 444.915 425.257 440.991 425.195C440.31 425.192 439.628 425.19 438.926 425.187C436.758 425.176 434.59 425.15 432.422 425.125C430.949 425.115 429.475 425.106 428.002 425.098C424.397 425.076 420.792 425.041 417.188 425C417.196 425.601 417.204 426.201 417.213 426.82C417.296 433.082 417.352 439.343 417.394 445.605C417.412 447.941 417.438 450.277 417.47 452.612C417.516 455.973 417.537 459.334 417.554 462.695C417.573 463.736 417.592 464.777 417.612 465.849C417.614 471.893 417.27 475.43 413.438 480C410.3 482.231 409.301 482.252 405.639 482.257C404.078 482.267 404.078 482.267 402.485 482.277C401.337 482.274 400.189 482.271 399.007 482.267C397.791 482.272 396.575 482.276 395.322 482.281C391.94 482.293 388.559 482.293 385.177 482.291C381.532 482.29 377.887 482.301 374.243 482.311C367.099 482.328 359.956 482.333 352.812 482.334C347.007 482.335 341.201 482.339 335.395 482.345C318.943 482.363 302.491 482.372 286.038 482.371C285.151 482.371 284.263 482.371 283.349 482.371C282.461 482.371 281.572 482.37 280.657 482.37C266.256 482.37 251.856 482.389 237.456 482.417C222.677 482.446 207.899 482.459 193.12 482.458C184.82 482.457 176.52 482.463 168.22 482.484C161.153 482.502 154.086 482.507 147.019 482.493C143.413 482.486 139.807 482.486 136.2 482.504C132.292 482.522 128.384 482.51 124.476 482.494C123.334 482.505 122.192 482.515 121.016 482.526C115.127 482.474 111.293 482.359 106.875 478C105.578 475.234 105.832 472.99 105.846 469.898C105.851 468.081 105.851 468.081 105.855 466.227C105.867 464.32 105.867 464.32 105.879 462.375C105.883 461.096 105.887 459.817 105.892 458.5C105.903 455.333 105.918 452.167 105.938 449C105.28 449.021 104.623 449.042 103.946 449.063C100.958 449.147 97.9697 449.199 94.9805 449.25C93.9466 449.284 92.9128 449.317 91.8476 449.352C84.1543 449.451 84.1543 449.451 80.4309 447.109C77.6424 443.61 77.6976 441.527 77.7061 436.99C77.7062 435.729 77.7062 434.467 77.7063 433.168C77.7111 431.787 77.716 430.405 77.721 429.023C77.7227 427.614 77.7241 426.204 77.725 424.795C77.7286 421.082 77.7378 417.37 77.7482 413.658C77.7594 409.205 77.7637 404.753 77.7692 400.3C77.7783 393.533 77.7963 386.767 77.8125 380C60.7969 380 43.7813 380 26.25 380C24.982 377.295 25.1886 375.184 25.1809 372.154C25.1755 370.909 25.1702 369.664 25.1646 368.381C25.1635 366.994 25.1624 365.606 25.1615 364.219C25.1571 362.764 25.1524 361.308 25.1474 359.853C25.1351 355.895 25.129 351.936 25.1249 347.978C25.1221 345.507 25.1183 343.036 25.1141 340.565C25.1012 332.841 25.0922 325.117 25.0886 317.393C25.0844 308.464 25.0679 299.536 25.0408 290.607C25.0205 283.712 25.011 276.818 25.0098 269.924C25.0088 265.802 25.0032 261.681 24.9865 257.559C24.9711 253.685 24.969 249.811 24.9773 245.937C24.978 244.512 24.9739 243.088 24.9647 241.663C24.9528 239.724 24.9599 237.785 24.968 235.846C24.9666 234.759 24.9653 233.672 24.9638 232.552C25.0789 231.71 25.194 230.868 25.3125 230C28.4304 227.783 29.3776 227.755 33.0055 227.773C34 227.773 34.9946 227.773 36.0193 227.773C37.0917 227.784 38.164 227.794 39.2688 227.805C40.3677 227.808 41.4666 227.81 42.5988 227.813C46.1141 227.824 49.6293 227.85 53.1446 227.875C55.5255 227.885 57.9065 227.894 60.2875 227.902C66.1293 227.924 71.9709 227.958 77.8125 228C77.8099 227.015 77.8073 226.03 77.8047 225.015C77.7423 201.063 77.696 177.111 77.6668 153.158C77.6523 141.575 77.6325 129.992 77.6004 118.408C77.5723 108.314 77.5542 98.2194 77.5479 88.1248C77.5442 82.7785 77.5356 77.4324 77.5152 72.0863C77.4961 67.0557 77.4902 62.0252 77.4944 56.9946C77.4936 55.1471 77.488 53.2996 77.4773 51.4521C77.4633 48.9313 77.4666 46.4112 77.4743 43.8903C77.4661 43.1578 77.4579 42.4253 77.4495 41.6706C77.4857 37.2803 78.0126 34.4389 80.625 31C83.6116 28.9886 85.9518 28.7489 89.45 28.7455ZM387.188 63C387.188 75.87 387.188 88.74 387.188 102C396.159 102 405.131 102 414.375 102C414.461 97.3908 414.536 92.7849 414.581 88.1755C414.6 86.609 414.625 85.0426 414.658 83.4763C414.704 81.2197 414.725 78.9641 414.741 76.707C414.761 76.011 414.78 75.315 414.8 74.5978C414.801 71.0042 414.45 69.1232 412.594 66.0808C410.424 63.7872 409.59 63.0435 406.558 62.8865C405.664 62.8917 404.771 62.8969 403.85 62.9023C402.544 62.9061 402.544 62.9061 401.211 62.9099C400.102 62.919 398.994 62.9281 397.852 62.9375C394.332 62.9581 390.813 62.9787 387.188 63ZM387.188 164C387.188 214.16 387.188 264.32 387.188 316C396.159 316 405.131 316 414.375 316C414.375 265.84 414.375 215.68 414.375 164C405.403 164 396.431 164 387.188 164ZM387.188 425C387.065 430.698 387.065 430.698 386.993 436.397C386.966 437.116 386.94 437.834 386.913 438.574C386.898 439.302 386.883 440.03 386.868 440.78C385.858 444.409 384.407 445.714 381.563 448C377.929 448.759 374.334 448.677 370.642 448.639C369.524 448.648 368.406 448.656 367.254 448.665C364.153 448.683 361.054 448.678 357.954 448.665C354.61 448.656 351.266 448.675 347.922 448.691C342.129 448.715 336.336 448.721 330.543 448.714C322.168 448.704 313.792 448.722 305.417 448.746C291.828 448.785 278.24 448.802 264.651 448.804C251.451 448.807 238.251 448.82 225.051 448.847C223.83 448.85 223.83 448.85 222.585 448.852C218.503 448.861 214.421 448.87 210.339 448.878C176.476 448.951 142.613 448.987 108.75 449C108.614 453.25 108.531 457.499 108.457 461.75C108.418 462.957 108.379 464.163 108.338 465.406C108.323 466.566 108.308 467.727 108.292 468.922C108.268 469.99 108.243 471.058 108.218 472.159C108.54 475.171 108.54 475.171 110.798 477.348C113.72 479.177 115.271 479.502 118.628 479.509C119.666 479.521 120.705 479.532 121.775 479.544C122.91 479.537 124.046 479.529 125.216 479.521C126.427 479.529 127.637 479.537 128.885 479.545C132.243 479.565 135.601 479.561 138.959 479.552C142.581 479.547 146.203 479.565 149.825 479.58C156.921 479.606 164.016 479.609 171.111 479.605C176.877 479.601 182.643 479.605 188.409 479.613C189.229 479.614 190.049 479.616 190.894 479.617C192.56 479.619 194.227 479.622 195.893 479.624C211.521 479.646 227.15 479.641 242.778 479.629C257.082 479.619 271.386 479.641 285.689 479.679C300.372 479.718 315.054 479.735 329.736 479.727C337.981 479.723 346.226 479.728 354.471 479.757C361.489 479.78 368.507 479.783 375.525 479.759C379.107 479.747 382.688 479.745 386.269 479.769C390.15 479.795 394.028 479.774 397.909 479.748C399.612 479.771 399.612 479.771 401.351 479.793C406.682 479.877 406.682 479.877 411.432 477.704C413.949 474.623 414.957 471.956 414.907 467.913C414.907 466.952 414.906 465.992 414.906 465.002C414.882 463.983 414.858 462.964 414.833 461.914C414.826 460.857 414.82 459.8 414.813 458.711C414.787 455.348 414.728 451.987 414.668 448.625C414.644 446.34 414.623 444.055 414.604 441.77C414.556 436.179 414.465 430.591 414.375 425C405.403 425 396.431 425 387.188 425Z" fill="#382CB8"/>
<path d="M32.0208 227.767C32.8176 227.766 33.6144 227.765 34.4354 227.764C35.3105 227.773 36.1857 227.782 37.0874 227.792C38.4808 227.794 38.4808 227.794 39.9023 227.797C43.0238 227.805 46.145 227.828 49.2664 227.852C51.4905 227.861 53.7145 227.87 55.9386 227.877C61.3456 227.899 66.7526 227.93 72.1595 227.965C76.553 227.993 80.9464 228.016 85.3399 228.036C85.9645 228.038 86.5891 228.041 87.2327 228.044C88.5001 228.05 89.7675 228.055 91.035 228.061C103.355 228.116 115.676 228.194 127.996 228.288C135.367 228.344 142.738 228.393 150.109 228.433C155.407 228.463 160.704 228.5 166.002 228.543C169.129 228.568 172.255 228.589 175.382 228.603C178.811 228.62 182.24 228.649 185.67 228.681C186.689 228.683 187.709 228.685 188.76 228.688C189.685 228.699 190.609 228.71 191.562 228.722C192.769 228.73 192.769 228.73 194.001 228.738C195.938 229 195.938 229 197.813 231C198.048 233.536 198.048 233.536 198.051 236.808C198.059 238.663 198.059 238.663 198.067 240.555C198.063 241.933 198.059 243.311 198.055 244.689C198.058 246.135 198.061 247.58 198.065 249.025C198.074 252.957 198.07 256.889 198.064 260.82C198.06 264.929 198.064 269.037 198.067 273.146C198.07 280.046 198.066 286.946 198.057 293.846C198.047 301.832 198.05 309.817 198.06 317.803C198.069 324.65 198.07 331.498 198.065 338.345C198.062 342.439 198.062 346.532 198.068 350.626C198.073 354.474 198.07 358.321 198.059 362.169C198.056 363.584 198.057 364.999 198.061 366.414C198.066 368.34 198.059 370.266 198.051 372.192C198.05 373.812 198.05 373.812 198.048 375.464C197.813 378 197.813 378 195.938 380C193.679 380.193 191.529 380.261 189.27 380.241C188.576 380.242 187.881 380.244 187.165 380.246C184.826 380.249 182.487 380.238 180.148 380.227C178.476 380.226 176.804 380.227 175.132 380.228C170.582 380.229 166.032 380.217 161.483 380.203C156.732 380.19 151.981 380.189 147.23 380.187C138.229 380.181 129.228 380.164 120.227 380.144C109.981 380.122 99.7357 380.111 89.4902 380.101C68.4101 380.08 47.3301 380.045 26.25 380C24.982 377.295 25.1886 375.184 25.1809 372.154C25.1755 370.909 25.1702 369.664 25.1646 368.381C25.1635 366.994 25.1624 365.606 25.1615 364.219C25.1571 362.764 25.1524 361.308 25.1474 359.853C25.1351 355.895 25.129 351.936 25.1249 347.978C25.1221 345.507 25.1183 343.036 25.1141 340.565C25.1013 332.841 25.0922 325.117 25.0886 317.393C25.0844 308.464 25.0679 299.536 25.0408 290.607C25.0205 283.712 25.011 276.818 25.0098 269.924C25.0088 265.802 25.0032 261.681 24.9865 257.559C24.9711 253.685 24.969 249.811 24.9773 245.937C24.978 244.512 24.9739 243.088 24.9647 241.663C24.9528 239.724 24.9599 237.785 24.968 235.846C24.9666 234.759 24.9653 233.672 24.9638 232.552C25.0789 231.71 25.194 230.868 25.3125 230C28.2027 227.945 28.765 227.751 32.0208 227.767Z" fill="#E54444"/>
<path d="M319.382 315.846C321.079 315.833 321.079 315.833 322.811 315.82C324.072 315.816 325.333 315.811 326.594 315.807C327.916 315.799 329.239 315.791 330.562 315.782C334.912 315.756 339.262 315.741 343.612 315.727C345.109 315.721 346.606 315.716 348.102 315.71C354.328 315.689 360.554 315.67 366.779 315.659C375.705 315.643 384.631 315.609 393.556 315.552C399.83 315.514 406.104 315.494 412.378 315.489C416.127 315.485 419.875 315.473 423.623 315.441C427.149 315.411 430.676 315.404 434.202 315.416C435.496 315.416 436.79 315.408 438.083 315.391C449.084 315.249 449.084 315.249 452.154 318.411C454.96 322.961 454.832 326.54 454.839 331.868C454.843 332.787 454.848 333.706 454.853 334.653C454.866 337.702 454.873 340.751 454.878 343.801C454.883 345.916 454.889 348.031 454.894 350.146C454.904 354.586 454.909 359.025 454.913 363.465C454.918 369.154 454.94 374.844 454.967 380.534C454.985 384.904 454.989 389.275 454.991 393.646C454.994 395.744 455.001 397.841 455.014 399.939C455.03 402.874 455.028 405.808 455.022 408.743C455.03 409.611 455.039 410.478 455.048 411.371C455.018 416.038 454.819 419.28 451.875 423C448.775 425.109 446.259 425.257 442.622 425.274C440.935 425.289 440.935 425.289 439.213 425.304C437.982 425.305 436.751 425.306 435.482 425.306C434.17 425.314 432.858 425.322 431.545 425.332C427.983 425.354 424.421 425.362 420.859 425.367C418.633 425.371 416.406 425.377 414.18 425.384C406.411 425.409 398.642 425.422 390.873 425.426C383.635 425.429 376.397 425.459 369.159 425.501C362.941 425.536 356.724 425.551 350.506 425.552C346.794 425.553 343.083 425.561 339.37 425.59C335.878 425.616 332.387 425.618 328.895 425.602C327.006 425.599 325.117 425.621 323.228 425.644C313.972 425.564 313.972 425.564 310.503 422.65C306.963 418.109 307.345 413.764 307.319 408.126C307.312 407.218 307.304 406.31 307.296 405.375C307.273 402.369 307.257 399.362 307.244 396.355C307.239 395.329 307.234 394.302 307.229 393.244C307.203 387.81 307.185 382.376 307.172 376.942C307.156 371.33 307.114 365.718 307.066 360.106C307.035 355.79 307.024 351.474 307.019 347.158C307.012 345.089 306.998 343.02 306.976 340.951C306.946 338.054 306.946 335.159 306.953 332.262C306.938 331.41 306.922 330.557 306.906 329.679C306.948 325.476 307.24 322.813 309.761 319.484C313.191 315.973 314.733 315.872 319.382 315.846Z" fill="#EA5353"/>
<path d="M315.152 101.619C316.153 101.611 317.155 101.602 318.187 101.593C319.286 101.599 320.385 101.606 321.517 101.612C322.674 101.607 323.831 101.601 325.023 101.596C328.198 101.585 331.372 101.588 334.547 101.597C337.868 101.605 341.188 101.598 344.509 101.593C350.086 101.587 355.662 101.595 361.239 101.609C367.689 101.625 374.138 101.62 380.588 101.603C386.123 101.59 391.658 101.588 397.193 101.596C400.5 101.6 403.807 101.601 407.114 101.591C410.799 101.581 414.485 101.595 418.171 101.612C419.27 101.606 420.368 101.6 421.5 101.593C423.003 101.606 423.003 101.606 424.536 101.619C425.843 101.621 425.843 101.621 427.177 101.622C429.794 102.072 430.631 102.746 432.187 105C432.545 107.467 432.545 107.467 432.551 110.434C432.56 111.545 432.569 112.656 432.578 113.801C432.57 115.601 432.57 115.601 432.561 117.437C432.565 119.285 432.565 119.285 432.569 121.17C432.572 124.443 432.56 127.717 432.544 130.991C432.539 132.998 432.544 135.005 432.554 137.013C432.571 140.863 432.569 144.712 432.561 148.562C432.567 149.763 432.572 150.963 432.578 152.199C432.565 153.866 432.565 153.866 432.551 155.566C432.549 156.546 432.547 157.525 432.545 158.533C432.187 161 432.187 161 429.375 164C425.353 164 421.331 164 417.187 164C417.187 214.16 417.187 264.32 417.187 316C416.259 316 415.331 316 414.375 316C414.375 265.84 414.375 215.68 414.375 164C380.605 164.158 380.605 164.158 346.836 164.36C340.306 164.378 340.306 164.378 337.251 164.382C335.115 164.388 332.979 164.402 330.843 164.422C327.609 164.452 324.376 164.456 321.142 164.454C320.19 164.468 319.237 164.483 318.255 164.498C311.918 164.458 311.918 164.458 308.786 162.313C307.225 159.505 307.03 157.803 307.03 154.545C307.021 153.454 307.012 152.362 307.003 151.238C307.013 150.065 307.024 148.892 307.035 147.684C307.033 146.476 307.032 145.268 307.031 144.023C307.032 141.47 307.043 138.917 307.063 136.364C307.09 132.449 307.082 128.535 307.07 124.619C307.075 122.141 307.083 119.662 307.093 117.184C307.091 116.009 307.088 114.834 307.085 113.623C307.097 112.535 307.109 111.447 307.121 110.326C307.126 109.368 307.131 108.409 307.136 107.422C307.902 102.319 310.711 101.625 315.152 101.619Z" fill="#6C0A45"/>
<path d="M225.152 241.619C226.154 241.611 227.155 241.602 228.187 241.593C229.286 241.599 230.385 241.606 231.517 241.612C232.674 241.607 233.831 241.601 235.023 241.596C238.198 241.585 241.372 241.588 244.547 241.597C247.868 241.605 251.189 241.598 254.509 241.593C260.086 241.587 265.663 241.595 271.239 241.609C277.689 241.625 284.138 241.62 290.588 241.603C296.123 241.59 301.658 241.588 307.193 241.596C310.5 241.6 313.807 241.601 317.114 241.591C320.8 241.581 324.485 241.595 328.171 241.612C329.27 241.606 330.368 241.6 331.5 241.593C333.003 241.606 333.003 241.606 334.536 241.619C335.843 241.621 335.843 241.621 337.177 241.622C339.793 242.072 340.63 242.748 342.188 245C342.545 247.429 342.545 247.429 342.551 250.342C342.56 251.433 342.569 252.524 342.578 253.649C342.57 255.416 342.57 255.416 342.561 257.219C342.565 259.033 342.565 259.033 342.569 260.884C342.571 263.442 342.566 266.001 342.554 268.56C342.539 272.484 342.554 276.408 342.572 280.332C342.57 282.815 342.567 285.298 342.561 287.781C342.567 288.959 342.572 290.138 342.578 291.351C342.565 292.988 342.565 292.988 342.551 294.658C342.549 295.62 342.547 296.581 342.545 297.571C342.112 300.516 341.573 301.212 339.375 303C337.177 303.378 337.177 303.378 334.536 303.381C333.033 303.394 333.033 303.394 331.5 303.407C330.402 303.401 329.303 303.394 328.171 303.388C327.014 303.393 325.856 303.399 324.664 303.404C321.489 303.415 318.315 303.412 315.14 303.403C311.82 303.395 308.499 303.402 305.178 303.407C299.602 303.413 294.025 303.405 288.448 303.391C281.999 303.375 275.549 303.38 269.1 303.397C263.565 303.41 258.03 303.412 252.495 303.404C249.188 303.4 245.881 303.399 242.574 303.409C238.888 303.419 235.203 303.405 231.517 303.388C229.869 303.397 229.869 303.397 228.187 303.407C227.185 303.398 226.184 303.39 225.152 303.381C224.28 303.38 223.408 303.379 222.51 303.378C219.894 302.928 219.058 302.252 217.5 300C217.143 297.571 217.143 297.571 217.136 294.658C217.127 293.567 217.118 292.476 217.109 291.351C217.115 290.173 217.121 288.995 217.127 287.781C217.122 285.967 217.122 285.967 217.118 284.116C217.116 281.558 217.122 278.999 217.133 276.44C217.148 272.516 217.134 268.592 217.116 264.668C217.117 262.185 217.121 259.702 217.127 257.219C217.118 255.452 217.118 255.452 217.109 253.649C217.118 252.557 217.127 251.466 217.136 250.342C217.138 249.38 217.141 248.419 217.143 247.429C217.894 242.319 220.71 241.625 225.152 241.619Z" fill="#E67E2E"/>
<path d="M266.25 94C273.675 94 281.1 94 288.75 94C288.75 133.6 288.75 173.2 288.75 214C281.325 214 273.9 214 266.25 214C266.25 174.4 266.25 134.8 266.25 94Z" fill="white"/>
<path d="M235.312 102C243.047 102 250.781 102 258.75 102C258.75 138.96 258.75 175.92 258.75 214C251.016 214 243.281 214 235.312 214C235.312 177.04 235.312 140.08 235.312 102Z" fill="#F8FAFE"/>
<path d="M167.812 265C170.141 267.016 171.9 269.255 173.438 272C173.438 272.66 173.438 273.32 173.438 274C173.935 273.639 174.433 273.278 174.946 272.906C175.609 272.442 176.271 271.978 176.953 271.5C177.606 271.036 178.258 270.572 178.931 270.094C180.938 269 180.938 269 184.688 269C184.688 270.32 184.688 271.64 184.688 273C183.585 273.474 182.483 273.949 181.348 274.438C172.384 279.283 168.111 290.452 163.594 299.5C150.443 325.843 150.443 325.843 141.562 329C132.947 330.18 126.986 327.387 120.194 321.875C117.601 319.617 115.049 317.314 112.5 315C110.06 312.894 107.587 310.895 105 309C104.45 308.586 103.9 308.172 103.334 307.746C97.4733 303.953 91.0233 304.078 84.375 305C81.1312 306.15 78.6591 307.816 75.9375 310C75.1677 310.605 74.3979 311.209 73.6047 311.832C62.8465 320.661 54.762 331.353 46.7322 342.902C45.8747 344.126 45.8747 344.126 45 345.375C44.5166 346.084 44.0332 346.793 43.5352 347.523C43.0904 348.011 42.6457 348.498 42.1875 349C41.2594 349 40.3312 349 39.375 349C40.8858 335.699 58.508 318.645 67.5989 310.266C76.2729 303.024 83.6574 298.442 94.9768 299.422C103.616 300.865 109.311 305.972 115.833 311.914C117.797 313.702 119.791 315.377 121.875 317C126.087 315.509 127.698 311.98 129.844 308.125C130.245 307.426 130.646 306.727 131.06 306.007C133.352 301.996 135.578 297.946 137.783 293.879C155.537 261.324 155.537 261.324 167.812 265Z" fill="#FCC402"/>
<path d="M205.312 130C212.738 130 220.163 130 227.812 130C227.812 157.72 227.812 185.44 227.812 214C220.387 214 212.962 214 205.312 214C205.312 186.28 205.312 158.56 205.312 130Z" fill="#FEFEFE"/>
<path d="M174.375 159C182.109 159 189.844 159 197.812 159C197.812 177.15 197.812 195.3 197.812 214C190.078 214 182.344 214 174.375 214C174.375 195.85 174.375 177.7 174.375 159Z" fill="#F9FAFE"/>
<path d="M290.198 44.7253C290.917 44.7202 291.635 44.7151 292.375 44.7099C294.751 44.6959 297.126 44.6969 299.502 44.6992C301.152 44.6953 302.801 44.691 304.451 44.6862C307.909 44.6788 311.367 44.6791 314.826 44.6843C319.261 44.6901 323.697 44.6732 328.133 44.65C331.539 44.6353 334.946 44.6344 338.353 44.6375C339.989 44.637 341.624 44.6317 343.26 44.6217C345.545 44.6094 347.829 44.6161 350.114 44.6277C350.792 44.62 351.47 44.6124 352.169 44.6045C354.88 44.635 356.741 44.6735 359.014 46.3358C360.567 48.9563 360.353 50.9842 360 54C359.014 55.6632 359.014 55.6632 357.187 57C354.755 57.296 352.547 57.41 350.114 57.3882C349.396 57.3934 348.678 57.3987 347.938 57.4041C345.562 57.4173 343.186 57.4086 340.811 57.3984C339.161 57.4005 337.511 57.4034 335.861 57.4071C332.403 57.4116 328.945 57.4051 325.487 57.3911C321.051 57.374 316.616 57.3839 312.18 57.4018C308.773 57.4127 305.366 57.4092 301.96 57.4014C300.324 57.3994 298.688 57.4019 297.052 57.4089C294.767 57.4165 292.483 57.4049 290.198 57.3882C289.52 57.3943 288.842 57.4003 288.144 57.4066C285.454 57.3701 283.57 57.3173 281.299 55.6984C279.628 52.8204 279.978 50.2703 280.313 47C283.727 44.572 286.252 44.7109 290.198 44.7253Z" fill="#F5F7FE"/>
<path d="M184.688 269C184.688 270.32 184.688 271.64 184.688 273C183.585 273.474 182.483 273.949 181.348 274.438C172.384 279.283 168.111 290.452 163.594 299.5C150.443 325.843 150.443 325.843 141.562 329C132.947 330.18 126.986 327.387 120.194 321.875C117.601 319.617 115.049 317.314 112.5 315C110.06 312.894 107.587 310.895 105 309C104.45 308.586 103.9 308.172 103.334 307.746C97.4733 303.953 91.0233 304.078 84.375 305C81.1312 306.15 78.6591 307.816 75.9375 310C75.1677 310.605 74.3979 311.209 73.6047 311.832C62.8465 320.661 54.762 331.353 46.7322 342.902C45.8747 344.126 45.8747 344.126 45 345.375C44.5166 346.084 44.0332 346.793 43.5352 347.523C43.0904 348.011 42.6457 348.498 42.1875 349C41.2594 349 40.3312 349 39.375 349C40.8858 335.699 58.508 318.645 67.5989 310.266C76.2729 303.024 83.6574 298.442 94.9768 299.422C103.511 300.848 109.04 305.811 115.492 311.648C118.143 314.016 120.851 316.247 123.633 318.438C124.443 319.076 125.252 319.714 126.086 320.371C129.699 322.874 132.962 324.298 137.285 324.438C137.961 324.477 138.636 324.517 139.332 324.559C144.597 323.24 147.772 318.55 150.49 313.888C150.851 313.244 151.211 312.601 151.582 311.938C151.978 311.251 152.374 310.565 152.782 309.858C155.009 305.946 157.096 301.975 159.097 297.926C173.391 269 173.391 269 184.688 269Z" fill="#FEFAEE"/>
<path d="M414.375 164C415.303 164 416.231 164 417.188 164C417.188 214.16 417.188 264.32 417.188 316C416.259 316 415.331 316 414.375 316C414.375 265.84 414.375 215.68 414.375 164Z" fill="#0035FF"/>
<path d="M91.875 304C103.282 303.345 112.019 313.393 120 321C116.07 325.419 113.692 327.132 107.988 327.375C106.819 327.448 106.819 327.448 105.626 327.523C102.052 326.775 99.8041 324.9 97.5 322C96.1369 319.366 95.2211 316.663 94.3359 313.812C94.093 313.089 93.8501 312.365 93.5999 311.619C91.875 306.387 91.875 306.387 91.875 304Z" fill="#FAC204"/>
<path d="M85.3125 280C89.9392 282.468 92.0429 286.938 93.75 292C94.2664 294.699 94.5028 297.242 94.6875 300C93.45 300 92.2125 300 90.9375 300C90.6994 299.252 90.4614 298.505 90.2161 297.734C89.8934 296.75 89.5707 295.765 89.2383 294.75C88.9229 293.775 88.6074 292.801 88.2825 291.797C87.2122 289.063 86.3191 287.113 84.375 285C80.306 283.774 76.3735 284.365 72.5317 286.141C70.121 287.635 67.875 289.245 65.625 291C64.7911 291.615 64.7911 291.615 63.9404 292.242C54.7728 299.739 48.1309 311.496 42.4317 322.021C41.4844 323.728 40.4376 325.372 39.375 327C38.4469 327 37.5187 327 36.5625 327C37.0171 321.92 38.6812 318.407 41.3086 314.25C41.8779 313.332 41.8779 313.332 42.4587 312.396C51.9667 297.267 65.9333 276.13 85.3125 280Z" fill="#710D39"/>
<path d="M167.812 261C171.713 262.757 173.84 265.327 176.25 269C176.714 270.485 176.714 270.485 177.188 272C175.331 272.99 175.331 272.99 173.438 274C172.567 272.577 172.567 272.577 171.68 271.125C169.857 268.056 169.857 268.056 167.812 266C163.185 265.319 160.426 265.492 156.562 268.375C148.822 275.465 143.673 284.531 138.75 293.937C127.079 316.15 127.079 316.15 121.875 318C121.256 317.34 120.638 316.68 120 316C120.702 314.975 120.702 314.975 121.417 313.93C126.157 306.832 130.383 299.544 134.473 292C152.271 259.417 152.271 259.417 167.812 261Z" fill="#710D38"/>
<path d="M230.625 284C263.419 284 296.212 284 330 284C330 284.99 330 285.98 330 287C297.206 287 264.413 287 230.625 287C230.625 286.01 230.625 285.02 230.625 284Z" fill="#FAE9DC"/>
<path d="M230.625 271C263.419 271 296.212 271 330 271C330 271.99 330 272.98 330 274C297.206 274 264.413 274 230.625 274C230.625 273.01 230.625 272.02 230.625 271Z" fill="#FCEFE6"/>
<path d="M320.625 144C353.419 144 386.212 144 420 144C420 144.99 420 145.98 420 147C387.206 147 354.413 147 320.625 147C320.625 146.01 320.625 145.02 320.625 144Z" fill="#EEE2E9"/>
<path d="M320.625 119C353.419 119 386.212 119 420 119C420 119.99 420 120.98 420 122C387.206 122 354.413 122 320.625 122C320.625 121.01 320.625 120.02 320.625 119Z" fill="#EEE2E9"/>
<path d="M357.188 348C358.425 348 359.662 348 360.938 348C360.566 353.049 358.004 355.946 354.961 359.562C354.035 360.688 353.109 361.814 352.185 362.941C351.752 363.466 351.318 363.991 350.871 364.532C349.453 366.29 348.144 368.117 346.875 370C348.291 373.677 350.296 375.719 353.086 378.312C353.917 379.096 354.749 379.88 355.605 380.688C357.192 382.144 358.792 383.584 360.41 385C361.087 385.598 361.764 386.196 362.461 386.812C363.378 387.596 363.378 387.596 364.314 388.395C365.625 390 365.625 390 365.625 394C360.829 393.64 358.335 390.809 355.078 387.375C354.008 386.281 352.935 385.19 351.859 384.102C351.335 383.571 350.81 383.04 350.27 382.493C347.136 379.415 343.744 376.686 340.312 374C340.721 368.871 343.158 365.95 346.113 362.125C346.816 361.2 346.816 361.2 347.533 360.255C348.456 359.042 349.384 357.832 350.316 356.625C351.35 355.276 352.361 353.906 353.364 352.531C354.785 350.625 354.785 350.625 357.188 348Z" fill="#FEFBF1"/>
<path d="M401.25 348C404.915 348.163 405.9 348.958 408.453 351.879C409.327 353.096 410.187 354.325 411.035 355.562C411.708 356.511 411.708 356.511 412.395 357.479C413.691 359.311 414.971 361.154 416.25 363C417.402 364.625 418.554 366.25 419.707 367.875C420.422 368.906 421.138 369.938 421.875 371C419.659 376.686 414.911 380.088 410.625 384C409.708 384.842 408.791 385.684 407.845 386.551C400.189 393.424 400.189 393.424 396.562 394C396.253 392.68 395.944 391.36 395.625 390C402.013 383.748 408.558 377.794 415.312 372C413.32 368.691 411.267 365.543 408.94 362.492C408.261 361.601 408.261 361.601 407.567 360.691C406.627 359.468 405.683 358.249 404.733 357.035C401.25 352.439 401.25 352.439 401.25 348Z" fill="#FEFBF1"/>
<path d="M386.25 346C388.184 346.438 388.184 346.438 390 347C388.441 354.684 386.689 362.31 384.902 369.938C384.621 371.149 384.34 372.36 384.051 373.607C383.239 377.077 382.404 380.539 381.562 384C381.214 385.52 381.214 385.52 380.859 387.071C380.635 387.977 380.412 388.883 380.182 389.816C379.994 390.606 379.807 391.396 379.614 392.209C378.75 394 378.75 394 376.785 394.761C376.196 394.84 375.607 394.919 375 395C373.953 391.644 374.191 389.466 375.004 386.062C375.232 385.094 375.46 384.125 375.695 383.127C375.949 382.095 376.203 381.063 376.465 380C376.847 378.412 376.847 378.412 377.236 376.793C384.211 348.175 384.211 348.175 386.25 346Z" fill="#FEFBEE"/>
<path d="M91.875 304C94.1953 304.495 94.1953 304.495 96.5625 305C96.7897 305.808 97.0169 306.616 97.251 307.449C99.306 315.629 99.306 315.629 104.062 322C109.39 323.087 113.5 322.036 118.125 319C119.053 320.485 119.053 320.485 120 322C115.985 325.588 113.229 327.152 107.988 327.375C106.819 327.448 106.819 327.448 105.626 327.523C102.052 326.775 99.8041 324.9 97.5 322C96.1369 319.366 95.2211 316.663 94.3359 313.812C94.093 313.089 93.8501 312.365 93.5999 311.619C91.875 306.387 91.875 306.387 91.875 304Z" fill="#720D38"/>
<path d="M342.188 167C342.806 167 343.425 167 344.062 167C344.062 177.89 344.062 188.78 344.062 200C331.688 200 319.313 200 306.562 200C306.562 199.34 306.562 198.68 306.562 198C318.319 198 330.075 198 342.188 198C342.188 187.77 342.188 177.54 342.188 167Z" fill="#5E0A55"/>
<path d="M252.188 307C252.806 307 253.425 307 254.062 307C254.062 317.56 254.062 328.12 254.062 339C241.688 339 229.313 339 216.562 339C216.562 338.34 216.562 337.68 216.562 337C228.319 337 240.075 337 252.188 337C252.188 327.1 252.188 317.2 252.188 307Z" fill="#5C0D5A"/>
<path d="M177.188 276C177.806 276 178.425 276 179.062 276C179.513 277.895 179.962 279.791 180.41 281.688C180.785 283.271 180.785 283.271 181.168 284.887C181.401 285.914 181.635 286.941 181.875 288C182.059 288.773 182.242 289.547 182.432 290.344C182.98 294.172 182.911 297.947 182.871 301.812C182.867 302.601 182.863 303.389 182.858 304.201C182.847 306.134 182.83 308.067 182.812 310C181.575 309.67 180.338 309.34 179.062 309C179.016 308.381 178.969 307.761 178.92 307.123C178.7 304.269 178.471 301.416 178.242 298.562C178.168 297.589 178.095 296.615 178.019 295.611C177.637 290.929 177.135 286.467 176.067 281.902C175.818 280.615 175.569 279.327 175.312 278C175.931 277.34 176.55 276.68 177.188 276Z" fill="#730F38"/>
<path d="M136.875 45C138.691 46.0625 138.691 46.0625 139.687 48C139.57 51.5625 139.57 51.5625 138.75 55C135.719 57.155 134.764 57.4686 131.25 57C129.551 55.875 129.551 55.875 128.437 54C128.068 50.8508 127.942 48.8809 129.492 46.125C132.076 44.4715 133.923 44.6063 136.875 45Z" fill="#F5F7FE"/>
<path d="M106.875 45C108.691 46.0625 108.691 46.0625 109.688 48C109.57 51.5625 109.57 51.5625 108.75 55C105.73 57.1476 104.757 57.5611 101.25 57C99.1073 54.8721 98.5097 53.5259 98.0859 50.4375C98.4375 48 98.4375 48 99.4922 46.1875C102.067 44.448 103.892 44.6023 106.875 45Z" fill="#F6F8FE"/>
<path d="M74.5312 237.875C76.875 238 76.875 238 77.8125 239C77.9297 242 77.9297 242 77.8125 245C76.875 246 76.875 246 74.5898 246.188C72.1875 246 72.1875 246 70.3125 244C70.9912 238.064 70.9912 238.064 74.5312 237.875Z" fill="#FEFCF5"/>
<path d="M56.6602 237.812C59.0625 238 59.0625 238 60.9375 240C60.4167 244.556 60.4167 244.556 59.0625 246C56.7188 246.125 56.7188 246.125 54.375 246C53.4375 245 53.4375 245 53.3203 242C53.4737 238.074 53.4737 238.074 56.6602 237.812Z" fill="#FEFCF5"/>
<path d="M39.7852 237.812C42.1875 238 42.1875 238 44.0625 240C43.5417 244.556 43.5417 244.556 42.1875 246C39.8438 246.125 39.8438 246.125 37.5 246C36.5625 245 36.5625 245 36.4453 242C36.5987 238.074 36.5987 238.074 39.7852 237.812Z" fill="#FEFDF6"/>
</svg>
