<svg width="46" height="7" viewBox="0 0 46 7" fill="none" xmlns="http://www.w3.org/2000/svg">
<path d="M4.14453 3.77197L4.00781 3.4126H2.84375L2.70703 3.77979C2.65365 3.92301 2.60807 4.02002 2.57031 4.0708C2.53255 4.12028 2.4707 4.14502 2.38477 4.14502C2.31185 4.14502 2.2474 4.11833 2.19141 4.06494C2.13542 4.01156 2.10742 3.95101 2.10742 3.8833C2.10742 3.84424 2.11393 3.80387 2.12695 3.76221C2.13997 3.72054 2.16146 3.6626 2.19141 3.58838L2.92383 1.729C2.94466 1.67562 2.9694 1.61182 2.99805 1.5376C3.02799 1.46208 3.05924 1.39958 3.0918 1.3501C3.12565 1.30062 3.16927 1.2609 3.22266 1.23096C3.27734 1.19971 3.3444 1.18408 3.42383 1.18408C3.50456 1.18408 3.57161 1.19971 3.625 1.23096C3.67969 1.2609 3.72331 1.29997 3.75586 1.34814C3.78971 1.39632 3.81771 1.4484 3.83984 1.50439C3.86328 1.55908 3.89258 1.63265 3.92773 1.7251L4.67578 3.57275C4.73438 3.71338 4.76367 3.81559 4.76367 3.87939C4.76367 3.9458 4.73568 4.007 4.67969 4.06299C4.625 4.11768 4.55859 4.14502 4.48047 4.14502C4.4349 4.14502 4.39583 4.13656 4.36328 4.11963C4.33073 4.104 4.30339 4.08252 4.28125 4.05518C4.25911 4.02653 4.23503 3.98356 4.20898 3.92627C4.18424 3.86768 4.16276 3.81624 4.14453 3.77197ZM2.99609 2.97705H3.85156L3.41992 1.79541L2.99609 2.97705ZM5.63867 2.27197V2.33643C5.73242 2.21273 5.83464 2.12223 5.94531 2.06494C6.05729 2.00635 6.18555 1.97705 6.33008 1.97705C6.4707 1.97705 6.59635 2.00765 6.70703 2.06885C6.81771 2.13005 6.90039 2.21663 6.95508 2.32861C6.99023 2.39372 7.01302 2.46403 7.02344 2.53955C7.03385 2.61507 7.03906 2.71143 7.03906 2.82861V3.8208C7.03906 3.92757 7.01432 4.0083 6.96484 4.06299C6.91667 4.11768 6.85352 4.14502 6.77539 4.14502C6.69596 4.14502 6.63151 4.11702 6.58203 4.06104C6.53255 4.00505 6.50781 3.92497 6.50781 3.8208V2.93213C6.50781 2.75635 6.48307 2.62223 6.43359 2.52979C6.38542 2.43604 6.28841 2.38916 6.14258 2.38916C6.04753 2.38916 5.96094 2.41781 5.88281 2.4751C5.80469 2.53109 5.7474 2.60856 5.71094 2.70752C5.6849 2.78695 5.67188 2.93538 5.67188 3.15283V3.8208C5.67188 3.92887 5.64648 4.01025 5.5957 4.06494C5.54622 4.11833 5.48177 4.14502 5.40234 4.14502C5.32552 4.14502 5.26237 4.11702 5.21289 4.06104C5.16341 4.00505 5.13867 3.92497 5.13867 3.8208V2.27979C5.13867 2.17822 5.16081 2.1027 5.20508 2.05322C5.24935 2.00244 5.3099 1.97705 5.38672 1.97705C5.43359 1.97705 5.47591 1.98812 5.51367 2.01025C5.55143 2.03239 5.58138 2.06559 5.60352 2.10986C5.62695 2.15413 5.63867 2.20817 5.63867 2.27197ZM8.90039 3.90088L8.42969 3.12744L8.14062 3.40088V3.82471C8.14062 3.92757 8.11328 4.007 8.05859 4.06299C8.00521 4.11768 7.94336 4.14502 7.87305 4.14502C7.79102 4.14502 7.72656 4.11768 7.67969 4.06299C7.63281 4.0083 7.60938 3.92757 7.60938 3.8208V1.54736C7.60938 1.42887 7.63216 1.33903 7.67773 1.27783C7.72331 1.21533 7.78841 1.18408 7.87305 1.18408C7.95508 1.18408 8.02018 1.21208 8.06836 1.26807C8.11654 1.32406 8.14062 1.40674 8.14062 1.51611V2.80908L8.74023 2.18018C8.81445 2.10205 8.87109 2.04867 8.91016 2.02002C8.94922 1.99137 8.99674 1.97705 9.05273 1.97705C9.11914 1.97705 9.17448 1.99854 9.21875 2.0415C9.26302 2.08317 9.28516 2.1359 9.28516 2.19971C9.28516 2.27783 9.21289 2.382 9.06836 2.51221L8.78516 2.77197L9.33203 3.63135C9.3724 3.69515 9.40104 3.74398 9.41797 3.77783C9.4362 3.81038 9.44531 3.84163 9.44531 3.87158C9.44531 3.95622 9.42188 4.02327 9.375 4.07275C9.32943 4.12093 9.26888 4.14502 9.19336 4.14502C9.12826 4.14502 9.07812 4.12744 9.04297 4.09229C9.00781 4.05713 8.96029 3.99333 8.90039 3.90088ZM10.2969 2.27979V3.8208C10.2969 3.92757 10.2715 4.0083 10.2207 4.06299C10.1699 4.11768 10.1055 4.14502 10.0273 4.14502C9.94922 4.14502 9.88542 4.11702 9.83594 4.06104C9.78776 4.00505 9.76367 3.92497 9.76367 3.8208V2.29541C9.76367 2.18994 9.78776 2.11051 9.83594 2.05713C9.88542 2.00374 9.94922 1.97705 10.0273 1.97705C10.1055 1.97705 10.1699 2.00374 10.2207 2.05713C10.2715 2.11051 10.2969 2.18473 10.2969 2.27979ZM10.0332 1.729C9.95898 1.729 9.89518 1.70622 9.8418 1.66064C9.78971 1.61507 9.76367 1.55062 9.76367 1.46729C9.76367 1.39176 9.79036 1.32992 9.84375 1.28174C9.89844 1.23226 9.96159 1.20752 10.0332 1.20752C10.1022 1.20752 10.1634 1.22965 10.2168 1.27393C10.2702 1.3182 10.2969 1.38265 10.2969 1.46729C10.2969 1.54932 10.2708 1.61377 10.2188 1.66064C10.1667 1.70622 10.1048 1.729 10.0332 1.729ZM10.8789 2.02393H10.9375V1.70361C10.9375 1.61768 10.9395 1.55062 10.9434 1.50244C10.9486 1.45296 10.9616 1.41064 10.9824 1.37549C11.0033 1.33903 11.0332 1.30973 11.0723 1.2876C11.1113 1.26416 11.1549 1.25244 11.2031 1.25244C11.2708 1.25244 11.332 1.27783 11.3867 1.32861C11.4232 1.36247 11.446 1.40413 11.4551 1.45361C11.4655 1.50179 11.4707 1.5708 11.4707 1.66064V2.02393H11.666C11.7415 2.02393 11.7988 2.04215 11.8379 2.07861C11.8783 2.11377 11.8984 2.15934 11.8984 2.21533C11.8984 2.28695 11.8698 2.33708 11.8125 2.36572C11.7565 2.39437 11.6758 2.40869 11.5703 2.40869H11.4707V3.38916C11.4707 3.47249 11.4733 3.53695 11.4785 3.58252C11.485 3.62679 11.5007 3.66325 11.5254 3.69189C11.5514 3.71924 11.5931 3.73291 11.6504 3.73291C11.6816 3.73291 11.724 3.7277 11.7773 3.71729C11.8307 3.70557 11.8724 3.69971 11.9023 3.69971C11.9453 3.69971 11.9837 3.71729 12.0176 3.75244C12.0527 3.7863 12.0703 3.82861 12.0703 3.87939C12.0703 3.96533 12.0234 4.03109 11.9297 4.07666C11.8359 4.12223 11.7012 4.14502 11.5254 4.14502C11.3587 4.14502 11.2324 4.11702 11.1465 4.06104C11.0605 4.00505 11.0039 3.92757 10.9766 3.82861C10.9505 3.72965 10.9375 3.59749 10.9375 3.43213V2.40869H10.8672C10.7904 2.40869 10.7318 2.39046 10.6914 2.354C10.651 2.31755 10.6309 2.27132 10.6309 2.21533C10.6309 2.15934 10.6517 2.11377 10.6934 2.07861C10.7363 2.04215 10.7982 2.02393 10.8789 2.02393Z" fill="#F5A511"/>
<path d="M22.4883 3.23682C22.4883 3.40999 22.4434 3.56559 22.3535 3.70361C22.265 3.84163 22.1348 3.94971 21.9629 4.02783C21.791 4.10596 21.5872 4.14502 21.3516 4.14502C21.069 4.14502 20.8359 4.09163 20.6523 3.98486C20.5221 3.90804 20.416 3.80583 20.334 3.67822C20.2533 3.54932 20.2129 3.42432 20.2129 3.30322C20.2129 3.23291 20.237 3.17301 20.2852 3.12354C20.3346 3.07275 20.3971 3.04736 20.4727 3.04736C20.5339 3.04736 20.5853 3.06689 20.627 3.10596C20.6699 3.14502 20.7064 3.20296 20.7363 3.27979C20.7728 3.37093 20.8118 3.4471 20.8535 3.5083C20.8965 3.5695 20.9564 3.62028 21.0332 3.66064C21.11 3.69971 21.2109 3.71924 21.3359 3.71924C21.5078 3.71924 21.6471 3.67952 21.7539 3.6001C21.862 3.51937 21.916 3.41911 21.916 3.29932C21.916 3.20426 21.8867 3.12744 21.8281 3.06885C21.7708 3.00895 21.696 2.96338 21.6035 2.93213C21.5124 2.90088 21.39 2.86768 21.2363 2.83252C21.0306 2.78434 20.8581 2.72835 20.7188 2.66455C20.5807 2.59945 20.4707 2.51156 20.3887 2.40088C20.3079 2.2889 20.2676 2.15023 20.2676 1.98486C20.2676 1.82731 20.3105 1.68734 20.3965 1.56494C20.4824 1.44255 20.6068 1.3488 20.7695 1.28369C20.9323 1.21729 21.1237 1.18408 21.3438 1.18408C21.5195 1.18408 21.6712 1.20622 21.7988 1.25049C21.9277 1.29346 22.0345 1.3514 22.1191 1.42432C22.2038 1.49593 22.2656 1.57145 22.3047 1.65088C22.3438 1.73031 22.3633 1.80778 22.3633 1.8833C22.3633 1.95231 22.3385 2.01481 22.2891 2.0708C22.2409 2.12549 22.1803 2.15283 22.1074 2.15283C22.041 2.15283 21.9902 2.13656 21.9551 2.104C21.9212 2.07015 21.8841 2.01546 21.8438 1.93994C21.7917 1.83187 21.7292 1.74788 21.6562 1.68799C21.5833 1.62679 21.4661 1.59619 21.3047 1.59619C21.1549 1.59619 21.0339 1.62939 20.9414 1.6958C20.8503 1.7609 20.8047 1.83968 20.8047 1.93213C20.8047 1.98942 20.8203 2.0389 20.8516 2.08057C20.8828 2.12223 20.9258 2.15804 20.9805 2.18799C21.0352 2.21794 21.0905 2.24137 21.1465 2.2583C21.2025 2.27523 21.2949 2.29997 21.4238 2.33252C21.5853 2.37028 21.7311 2.41195 21.8613 2.45752C21.9928 2.50309 22.1042 2.55843 22.1953 2.62354C22.2878 2.68864 22.3594 2.77132 22.4102 2.87158C22.4622 2.97054 22.4883 3.09229 22.4883 3.23682ZM22.9727 2.02393H23.0312V1.70361C23.0312 1.61768 23.0332 1.55062 23.0371 1.50244C23.0423 1.45296 23.0553 1.41064 23.0762 1.37549C23.097 1.33903 23.127 1.30973 23.166 1.2876C23.2051 1.26416 23.2487 1.25244 23.2969 1.25244C23.3646 1.25244 23.4258 1.27783 23.4805 1.32861C23.5169 1.36247 23.5397 1.40413 23.5488 1.45361C23.5592 1.50179 23.5645 1.5708 23.5645 1.66064V2.02393H23.7598C23.8353 2.02393 23.8926 2.04215 23.9316 2.07861C23.972 2.11377 23.9922 2.15934 23.9922 2.21533C23.9922 2.28695 23.9635 2.33708 23.9062 2.36572C23.8503 2.39437 23.7695 2.40869 23.6641 2.40869H23.5645V3.38916C23.5645 3.47249 23.5671 3.53695 23.5723 3.58252C23.5788 3.62679 23.5944 3.66325 23.6191 3.69189C23.6452 3.71924 23.6868 3.73291 23.7441 3.73291C23.7754 3.73291 23.8177 3.7277 23.8711 3.71729C23.9245 3.70557 23.9661 3.69971 23.9961 3.69971C24.0391 3.69971 24.0775 3.71729 24.1113 3.75244C24.1465 3.7863 24.1641 3.82861 24.1641 3.87939C24.1641 3.96533 24.1172 4.03109 24.0234 4.07666C23.9297 4.12223 23.7949 4.14502 23.6191 4.14502C23.4525 4.14502 23.3262 4.11702 23.2402 4.06104C23.1543 4.00505 23.0977 3.92757 23.0703 3.82861C23.0443 3.72965 23.0312 3.59749 23.0312 3.43213V2.40869H22.9609C22.8841 2.40869 22.8255 2.39046 22.7852 2.354C22.7448 2.31755 22.7246 2.27132 22.7246 2.21533C22.7246 2.15934 22.7454 2.11377 22.7871 2.07861C22.8301 2.04215 22.8919 2.02393 22.9727 2.02393ZM25.7461 3.84424V3.77588C25.6823 3.85661 25.6152 3.92432 25.5449 3.979C25.4746 4.03369 25.3978 4.07406 25.3145 4.1001C25.2311 4.12744 25.1361 4.14111 25.0293 4.14111C24.9004 4.14111 24.7845 4.11442 24.6816 4.06104C24.5801 4.00765 24.5013 3.93408 24.4453 3.84033C24.3789 3.72705 24.3457 3.56429 24.3457 3.35205V2.29541C24.3457 2.18864 24.3698 2.10921 24.418 2.05713C24.4661 2.00374 24.5299 1.97705 24.6094 1.97705C24.6901 1.97705 24.7552 2.00374 24.8047 2.05713C24.8542 2.11051 24.8789 2.18994 24.8789 2.29541V3.14893C24.8789 3.27262 24.8893 3.37679 24.9102 3.46143C24.931 3.54476 24.9681 3.61051 25.0215 3.65869C25.0762 3.70557 25.1497 3.729 25.2422 3.729C25.332 3.729 25.4167 3.70231 25.4961 3.64893C25.5755 3.59554 25.6335 3.52588 25.6699 3.43994C25.6999 3.36442 25.7148 3.19906 25.7148 2.94385V2.29541C25.7148 2.18994 25.7396 2.11051 25.7891 2.05713C25.8385 2.00374 25.903 1.97705 25.9824 1.97705C26.0618 1.97705 26.1257 2.00374 26.1738 2.05713C26.222 2.10921 26.2461 2.18864 26.2461 2.29541V3.84033C26.2461 3.94189 26.2227 4.01807 26.1758 4.06885C26.1302 4.11963 26.071 4.14502 25.998 4.14502C25.9251 4.14502 25.8646 4.11898 25.8164 4.06689C25.7695 4.01351 25.7461 3.93929 25.7461 3.84424ZM28.2402 3.84033V3.7876C28.1686 3.86963 28.0977 3.93669 28.0273 3.98877C27.9583 4.03955 27.8828 4.07796 27.8008 4.104C27.7201 4.13135 27.6315 4.14502 27.5352 4.14502C27.4076 4.14502 27.2891 4.11833 27.1797 4.06494C27.0716 4.01025 26.9779 3.93278 26.8984 3.83252C26.819 3.73226 26.7585 3.61442 26.7168 3.479C26.6764 3.34359 26.6562 3.1971 26.6562 3.03955C26.6562 2.70622 26.7376 2.44645 26.9004 2.26025C27.0632 2.07406 27.2773 1.98096 27.543 1.98096C27.6966 1.98096 27.8262 2.00765 27.9316 2.06104C28.0371 2.11312 28.14 2.19385 28.2402 2.30322V1.51611C28.2402 1.40674 28.2617 1.32406 28.3047 1.26807C28.349 1.21208 28.4115 1.18408 28.4922 1.18408C28.5729 1.18408 28.6348 1.21012 28.6777 1.26221C28.722 1.31299 28.7441 1.38851 28.7441 1.48877V3.84033C28.7441 3.94189 28.7207 4.01807 28.6738 4.06885C28.627 4.11963 28.5664 4.14502 28.4922 4.14502C28.4193 4.14502 28.3587 4.11898 28.3105 4.06689C28.2637 4.01351 28.2402 3.93799 28.2402 3.84033ZM27.1914 3.05713C27.1914 3.20166 27.2135 3.32471 27.2578 3.42627C27.3034 3.52783 27.3652 3.60465 27.4434 3.65674C27.5215 3.70752 27.6068 3.73291 27.6992 3.73291C27.793 3.73291 27.8783 3.70882 27.9551 3.66064C28.0332 3.61117 28.0951 3.5363 28.1406 3.43604C28.1875 3.33447 28.2109 3.20817 28.2109 3.05713C28.2109 2.9152 28.1875 2.79346 28.1406 2.69189C28.0951 2.58903 28.0326 2.5109 27.9531 2.45752C27.875 2.40283 27.7891 2.37549 27.6953 2.37549C27.5977 2.37549 27.5104 2.40348 27.4336 2.45947C27.3568 2.51416 27.2969 2.59359 27.2539 2.69775C27.2122 2.80062 27.1914 2.92041 27.1914 3.05713ZM29.8125 2.27979V3.8208C29.8125 3.92757 29.7871 4.0083 29.7363 4.06299C29.6855 4.11768 29.6211 4.14502 29.543 4.14502C29.4648 4.14502 29.401 4.11702 29.3516 4.06104C29.3034 4.00505 29.2793 3.92497 29.2793 3.8208V2.29541C29.2793 2.18994 29.3034 2.11051 29.3516 2.05713C29.401 2.00374 29.4648 1.97705 29.543 1.97705C29.6211 1.97705 29.6855 2.00374 29.7363 2.05713C29.7871 2.11051 29.8125 2.18473 29.8125 2.27979ZM29.5488 1.729C29.4746 1.729 29.4108 1.70622 29.3574 1.66064C29.3053 1.61507 29.2793 1.55062 29.2793 1.46729C29.2793 1.39176 29.306 1.32992 29.3594 1.28174C29.4141 1.23226 29.4772 1.20752 29.5488 1.20752C29.6178 1.20752 29.679 1.22965 29.7324 1.27393C29.7858 1.3182 29.8125 1.38265 29.8125 1.46729C29.8125 1.54932 29.7865 1.61377 29.7344 1.66064C29.6823 1.70622 29.6204 1.729 29.5488 1.729ZM32.3613 3.06104C32.3613 3.21989 32.3366 3.36637 32.2871 3.50049C32.2376 3.6346 32.166 3.74984 32.0723 3.84619C31.9785 3.94255 31.8665 4.01676 31.7363 4.06885C31.6061 4.11963 31.4596 4.14502 31.2969 4.14502C31.1354 4.14502 30.9902 4.11898 30.8613 4.06689C30.7324 4.01481 30.6204 3.94059 30.5254 3.84424C30.4316 3.74658 30.36 3.632 30.3105 3.50049C30.2624 3.36768 30.2383 3.22119 30.2383 3.06104C30.2383 2.89958 30.263 2.75179 30.3125 2.61768C30.362 2.48356 30.4329 2.36898 30.5254 2.27393C30.6178 2.17887 30.7298 2.10596 30.8613 2.05518C30.9928 2.00309 31.138 1.97705 31.2969 1.97705C31.4583 1.97705 31.6048 2.00309 31.7363 2.05518C31.8678 2.10726 31.9805 2.18148 32.0742 2.27783C32.168 2.37419 32.2389 2.48877 32.2871 2.62158C32.3366 2.75439 32.3613 2.90088 32.3613 3.06104ZM31.8262 3.06104C31.8262 2.84359 31.778 2.67432 31.6816 2.55322C31.5866 2.43213 31.4583 2.37158 31.2969 2.37158C31.1927 2.37158 31.1009 2.39893 31.0215 2.45361C30.9421 2.507 30.8809 2.58643 30.8379 2.69189C30.7949 2.79736 30.7734 2.92041 30.7734 3.06104C30.7734 3.20036 30.7943 3.3221 30.8359 3.42627C30.8789 3.53044 30.9395 3.61051 31.0176 3.6665C31.097 3.72119 31.1901 3.74854 31.2969 3.74854C31.4583 3.74854 31.5866 3.68799 31.6816 3.56689C31.778 3.4445 31.8262 3.27588 31.8262 3.06104Z" fill="#F68300"/>
<line y1="5.99619" x2="15" y2="5.99619" stroke="#1F1111" stroke-width="0.2"/>
<circle cx="16.75" cy="5.84619" r="0.75" fill="#F5A54A"/>
<line x1="18" y1="5.99619" x2="33" y2="5.99619" stroke="black" stroke-width="0.2"/>
<path d="M14.3398 3.64502L13.877 1.92822L13.4082 3.64502C13.3717 3.77523 13.3424 3.86898 13.3203 3.92627C13.2995 3.98226 13.2624 4.03304 13.209 4.07861C13.1556 4.12288 13.0846 4.14502 12.9961 4.14502C12.9245 4.14502 12.8652 4.13135 12.8184 4.104C12.7728 4.07796 12.7357 4.04085 12.707 3.99268C12.6784 3.9432 12.6549 3.88525 12.6367 3.81885C12.6185 3.75114 12.6022 3.68864 12.5879 3.63135L12.1113 1.70361C12.0827 1.59163 12.0684 1.50635 12.0684 1.44775C12.0684 1.37354 12.0944 1.31104 12.1465 1.26025C12.1986 1.20947 12.263 1.18408 12.3398 1.18408C12.4453 1.18408 12.5163 1.21794 12.5527 1.28564C12.5892 1.35335 12.6211 1.45166 12.6484 1.58057L13.0234 3.25244L13.4434 1.68799C13.4746 1.5682 13.5026 1.47705 13.5273 1.41455C13.5521 1.35205 13.5924 1.29801 13.6484 1.25244C13.7044 1.20687 13.7806 1.18408 13.877 1.18408C13.9746 1.18408 14.0501 1.20817 14.1035 1.25635C14.1582 1.30322 14.196 1.35465 14.2168 1.41064C14.2376 1.46663 14.2656 1.55908 14.3008 1.68799L14.7246 3.25244L15.0996 1.58057C15.1178 1.49333 15.1348 1.42497 15.1504 1.37549C15.1673 1.32601 15.1953 1.28174 15.2344 1.24268C15.2747 1.20361 15.3327 1.18408 15.4082 1.18408C15.4837 1.18408 15.5475 1.20947 15.5996 1.26025C15.653 1.30973 15.6797 1.37223 15.6797 1.44775C15.6797 1.50114 15.6654 1.58643 15.6367 1.70361L15.1602 3.63135C15.1276 3.76156 15.1003 3.85726 15.0781 3.91846C15.0573 3.97835 15.0208 4.03109 14.9688 4.07666C14.918 4.12223 14.8457 4.14502 14.752 4.14502C14.6634 4.14502 14.5924 4.12288 14.5391 4.07861C14.4857 4.03434 14.4486 3.98486 14.4277 3.93018C14.4069 3.87419 14.3776 3.77913 14.3398 3.64502ZM17.416 3.19189H16.373C16.3743 3.31299 16.3984 3.41976 16.4453 3.51221C16.4935 3.60465 16.5566 3.67432 16.6348 3.72119C16.7142 3.76807 16.8014 3.7915 16.8965 3.7915C16.9603 3.7915 17.0182 3.78434 17.0703 3.77002C17.1237 3.75439 17.1751 3.73096 17.2246 3.69971C17.2741 3.66715 17.3197 3.63265 17.3613 3.59619C17.403 3.55973 17.457 3.51025 17.5234 3.44775C17.5508 3.42432 17.5898 3.4126 17.6406 3.4126C17.6953 3.4126 17.7396 3.42757 17.7734 3.45752C17.8073 3.48747 17.8242 3.52979 17.8242 3.58447C17.8242 3.63265 17.8053 3.68929 17.7676 3.75439C17.7298 3.8182 17.6725 3.88005 17.5957 3.93994C17.5202 3.99854 17.4245 4.04736 17.3086 4.08643C17.194 4.12549 17.0618 4.14502 16.9121 4.14502C16.5697 4.14502 16.3034 4.04736 16.1133 3.85205C15.9232 3.65674 15.8281 3.39176 15.8281 3.05713C15.8281 2.89958 15.8516 2.75374 15.8984 2.61963C15.9453 2.48421 16.0137 2.36833 16.1035 2.27197C16.1934 2.17562 16.304 2.10205 16.4355 2.05127C16.5671 1.99919 16.7129 1.97314 16.873 1.97314C17.0814 1.97314 17.2598 2.01742 17.4082 2.10596C17.5579 2.1932 17.6699 2.30648 17.7441 2.4458C17.8184 2.58512 17.8555 2.72705 17.8555 2.87158C17.8555 3.0057 17.8171 3.09294 17.7402 3.1333C17.6634 3.17236 17.5553 3.19189 17.416 3.19189ZM16.373 2.88916H17.3398C17.3268 2.70687 17.2773 2.5708 17.1914 2.48096C17.1068 2.38981 16.9948 2.34424 16.8555 2.34424C16.7227 2.34424 16.6133 2.39046 16.5273 2.48291C16.4427 2.57406 16.3913 2.70947 16.373 2.88916ZM18.7441 1.48877V2.30322C18.8444 2.19906 18.9466 2.11963 19.0508 2.06494C19.1549 2.00895 19.2839 1.98096 19.4375 1.98096C19.6146 1.98096 19.7695 2.02327 19.9023 2.10791C20.0365 2.19124 20.14 2.31299 20.2129 2.47314C20.2871 2.632 20.3242 2.8208 20.3242 3.03955C20.3242 3.20101 20.3034 3.34945 20.2617 3.48486C20.2214 3.61898 20.1621 3.73551 20.084 3.83447C20.0059 3.93343 19.9108 4.01025 19.7988 4.06494C19.6882 4.11833 19.5658 4.14502 19.4316 4.14502C19.3496 4.14502 19.2721 4.13525 19.1992 4.11572C19.1276 4.09619 19.0664 4.0708 19.0156 4.03955C18.9648 4.007 18.9212 3.9738 18.8848 3.93994C18.8496 3.90609 18.8027 3.85531 18.7441 3.7876V3.84033C18.7441 3.94059 18.7201 4.01676 18.6719 4.06885C18.6237 4.11963 18.5625 4.14502 18.4883 4.14502C18.4128 4.14502 18.3522 4.11963 18.3066 4.06885C18.2624 4.01676 18.2402 3.94059 18.2402 3.84033V1.51221C18.2402 1.40413 18.2617 1.32275 18.3047 1.26807C18.349 1.21208 18.4102 1.18408 18.4883 1.18408C18.5703 1.18408 18.6335 1.21077 18.6777 1.26416C18.722 1.31624 18.7441 1.39111 18.7441 1.48877ZM18.7695 3.07275C18.7695 3.28499 18.8177 3.4484 18.9141 3.56299C19.0117 3.67627 19.1393 3.73291 19.2969 3.73291C19.431 3.73291 19.5462 3.67497 19.6426 3.55908C19.7402 3.44189 19.7891 3.27458 19.7891 3.05713C19.7891 2.9165 19.7689 2.79541 19.7285 2.69385C19.6882 2.59229 19.6309 2.51416 19.5566 2.45947C19.4824 2.40348 19.3958 2.37549 19.2969 2.37549C19.1953 2.37549 19.1048 2.40348 19.0254 2.45947C18.946 2.51416 18.8835 2.59424 18.8379 2.69971C18.7923 2.80387 18.7695 2.92822 18.7695 3.07275Z" fill="white"/>
<path d="M39.7598 3.55469V4.52197L36.3213 3.03174V2.20459L39.7598 0.714355V1.68848L37.3638 2.61133L39.7598 3.55469ZM41.8857 0.693848L40.9287 4.63477C40.8968 4.76465 40.8683 4.86719 40.8433 4.94238C40.8205 5.01758 40.784 5.07568 40.7339 5.1167C40.686 5.15999 40.6154 5.18164 40.522 5.18164C40.2896 5.18164 40.1733 5.08138 40.1733 4.88086C40.1733 4.82845 40.1961 4.69743 40.2417 4.48779L41.1953 0.546875C41.2454 0.33724 41.2933 0.193685 41.3389 0.116211C41.3844 0.038737 41.4733 0 41.6055 0C41.7194 0 41.806 0.0273438 41.8652 0.0820312C41.9268 0.136719 41.9575 0.211914 41.9575 0.307617C41.9575 0.378255 41.9336 0.506999 41.8857 0.693848ZM45.8096 3.03174L42.3711 4.52881V3.56152L44.7739 2.61816L42.3711 1.68848V0.728027L45.8096 2.21143V3.03174Z" fill="#FF8800"/>
</svg>
