<svg width="15" height="15" viewBox="0 0 15 15" fill="none" xmlns="http://www.w3.org/2000/svg">
<g clip-path="url(#clip0_26_16)">
<path d="M11.9196 5.00128C11.9399 5.00109 11.9602 5.00089 11.9811 5.00069C12.0483 5.00013 12.1154 5.00002 12.1826 4.99995C12.2294 4.99977 12.2761 4.99957 12.3228 4.99936C12.4209 4.99901 12.5189 4.9989 12.617 4.99894C12.7424 4.99894 12.8678 4.99815 12.9932 4.99714C13.0898 4.99648 13.1864 4.99637 13.283 4.9964C13.3292 4.99633 13.3754 4.99607 13.4216 4.99562C13.4864 4.99504 13.5512 4.99521 13.616 4.99556C13.6712 4.99544 13.6712 4.99544 13.7275 4.99531C13.8491 5.01281 13.91 5.04861 14.0039 5.12698C14.0783 5.23119 14.1028 5.3022 14.1026 5.42967C14.1028 5.46078 14.103 5.49189 14.1032 5.52395C14.1029 5.55795 14.1027 5.59195 14.1024 5.62697C14.1025 5.66323 14.1025 5.69948 14.1026 5.73684C14.1027 5.83739 14.1025 5.93793 14.102 6.03848C14.1017 6.14694 14.1018 6.25539 14.1018 6.36385C14.1019 6.55174 14.1016 6.73962 14.1011 6.92751C14.1004 7.19916 14.1002 7.4708 14.1001 7.74245C14.0999 8.18318 14.0993 8.62391 14.0985 9.06465C14.0977 9.49278 14.097 9.92091 14.0967 10.349C14.0966 10.3754 14.0966 10.4018 14.0966 10.429C14.0965 10.5614 14.0964 10.6938 14.0963 10.8262C14.0953 11.9245 14.0938 13.0228 14.0918 14.1211C14.1104 14.1205 14.129 14.1199 14.1482 14.1193C14.2332 14.1168 14.3181 14.1153 14.4031 14.1138C14.4324 14.1128 14.4616 14.1118 14.4918 14.1108C14.6717 14.1084 14.7757 14.1173 14.9121 14.2383C15.031 14.3913 15.0227 14.5504 15 14.7364C14.9363 14.8709 14.8695 14.9365 14.7364 15C14.653 15.0083 14.5761 15.0119 14.4928 15.0112C14.4683 15.0113 14.4437 15.0114 14.4184 15.0116C14.3358 15.0119 14.2531 15.0117 14.1705 15.0114C14.1108 15.0115 14.0511 15.0117 13.9914 15.0119C13.8271 15.0123 13.6627 15.0122 13.4984 15.0119C13.3213 15.0118 13.1441 15.0122 12.967 15.0125C12.64 15.013 12.3129 15.013 11.9859 15.0129C11.6838 15.0127 11.3817 15.0128 11.0796 15.0129C11.0391 15.013 10.9986 15.013 10.9581 15.013C10.897 15.013 10.836 15.0131 10.775 15.0131C10.2075 15.0134 9.63995 15.0136 9.07244 15.0133C9.05104 15.0133 9.02964 15.0133 9.00759 15.0133C8.8338 15.0132 8.66001 15.0131 8.48622 15.0131C7.80824 15.0128 7.13028 15.013 6.4523 15.0137C5.69084 15.0145 4.92937 15.0148 4.16791 15.0146C4.08674 15.0146 4.00558 15.0146 3.92442 15.0146C3.90444 15.0146 3.88445 15.0146 3.86386 15.0146C3.56194 15.0145 3.26001 15.0147 2.95809 15.0151C2.6148 15.0155 2.27151 15.0156 1.92822 15.015C1.75298 15.0148 1.57775 15.0147 1.40251 15.0152C1.2422 15.0156 1.0819 15.0155 0.921593 15.0149C0.863494 15.0148 0.805394 15.0149 0.747295 15.0152C0.668501 15.0155 0.589742 15.0152 0.510949 15.0147C0.488234 15.015 0.465518 15.0153 0.442115 15.0156C0.290571 15.0135 0.204733 14.9784 0.0879227 14.8828C-0.0309144 14.7298 -0.022643 14.5707 3.20469e-05 14.3848C0.0635167 14.2508 0.12896 14.1809 0.263704 14.1211C0.374394 14.1104 0.484056 14.1129 0.595125 14.1156C0.625205 14.116 0.655285 14.1164 0.686277 14.1168C0.760279 14.1179 0.834249 14.1193 0.908235 14.1211C0.908127 14.1045 0.908019 14.0879 0.907908 14.0708C0.905318 13.6666 0.903387 13.2624 0.902164 12.8582C0.901552 12.6628 0.900722 12.4673 0.899395 12.2718C0.898122 12.0832 0.89742 11.8946 0.897117 11.7059C0.8969 11.634 0.896477 11.562 0.895845 11.49C0.894995 11.3892 0.894877 11.2884 0.894931 11.1876C0.894299 11.143 0.894299 11.143 0.893655 11.0974C0.894637 10.929 0.907037 10.8234 1.02542 10.6934C1.14113 10.6006 1.23327 10.5943 1.37938 10.5937C1.40985 10.5934 1.40985 10.5934 1.44094 10.5931C1.50778 10.5925 1.57461 10.5926 1.64146 10.5928C1.68812 10.5927 1.73478 10.5925 1.78144 10.5923C1.87914 10.5921 1.97683 10.5921 2.07452 10.5924C2.19947 10.5928 2.3244 10.5922 2.44935 10.5913C2.54569 10.5908 2.64202 10.5908 2.73836 10.591C2.78442 10.591 2.83047 10.5908 2.87653 10.5904C2.94104 10.59 3.00551 10.5903 3.07002 10.5908C3.12498 10.5908 3.12498 10.5908 3.18105 10.5908C3.32804 10.6123 3.41355 10.6739 3.51137 10.7836C3.56329 10.9159 3.55642 11.0434 3.55493 11.1843C3.55495 11.2319 3.55495 11.2319 3.55497 11.2805C3.55491 11.3853 3.55423 11.4901 3.55354 11.5948C3.55337 11.6675 3.55325 11.7402 3.55316 11.8129C3.55282 12.0042 3.55196 12.1955 3.55099 12.3867C3.55004 12.5819 3.54969 12.7771 3.54925 12.9723C3.5483 13.3553 3.54676 13.7382 3.54495 14.1211C3.82532 14.1211 4.1057 14.1211 4.39456 14.1211C4.39426 13.9972 4.39395 13.8733 4.39363 13.7456C4.39266 13.3363 4.39201 12.9269 4.39153 12.5175C4.39123 12.2693 4.39081 12.0211 4.39014 11.7728C4.38956 11.5564 4.38918 11.3401 4.38905 11.1237C4.38897 11.0091 4.3888 10.8946 4.38837 10.7801C4.38797 10.6721 4.38785 10.5642 4.38794 10.4563C4.38791 10.3981 4.3876 10.3398 4.38727 10.2816C4.3883 9.83238 4.3883 9.83238 4.52457 9.67166C4.65523 9.56331 4.71977 9.54333 4.88835 9.5423C4.90866 9.5421 4.92896 9.54191 4.94988 9.5417C5.01704 9.54115 5.0842 9.54103 5.15136 9.54097C5.19811 9.54078 5.24485 9.54058 5.2916 9.54038C5.38964 9.54003 5.48768 9.53992 5.58573 9.53995C5.71114 9.53996 5.83653 9.53916 5.96194 9.53815C6.05853 9.5375 6.15511 9.53738 6.25171 9.53741C6.29792 9.53734 6.34414 9.53708 6.39036 9.53663C6.45516 9.53605 6.51991 9.53623 6.58471 9.53658C6.63994 9.53645 6.63994 9.53645 6.69628 9.53633C6.81786 9.55383 6.87877 9.58963 6.97269 9.668C7.0545 9.77998 7.0715 9.85793 7.07115 9.9956C7.07133 10.0503 7.07133 10.0503 7.07151 10.106C7.0712 10.1462 7.07088 10.1863 7.07056 10.2264C7.07053 10.2689 7.07055 10.3114 7.0706 10.3538C7.07062 10.4689 7.0701 10.5839 7.06949 10.699C7.06894 10.8193 7.06889 10.9396 7.06879 11.0599C7.06851 11.2877 7.06779 11.5154 7.06691 11.7431C7.06593 12.0024 7.06544 12.2618 7.065 12.5211C7.06408 13.0544 7.06247 13.5878 7.06058 14.1211C7.34095 14.1211 7.62132 14.1211 7.91019 14.1211C7.91006 14.0497 7.90993 13.9783 7.90979 13.9047C7.9086 13.2322 7.90772 12.5597 7.90715 11.8872C7.90685 11.5415 7.90644 11.1957 7.90577 10.8499C7.90518 10.5486 7.90481 10.2472 7.90468 9.94583C7.9046 9.78627 7.90442 9.62671 7.90399 9.46715C7.9036 9.31691 7.90347 9.16667 7.90356 9.01642C7.90354 8.96134 7.90343 8.90626 7.9032 8.85118C7.90291 8.77582 7.90298 8.70047 7.90314 8.62512C7.90289 8.59263 7.90289 8.59263 7.90262 8.55948C7.90367 8.37627 7.91796 8.2045 8.04019 8.06033C8.17085 7.95198 8.2354 7.932 8.40398 7.93097C8.43444 7.93068 8.43444 7.93068 8.46551 7.93038C8.53267 7.92982 8.59982 7.92971 8.66699 7.92964C8.71373 7.92945 8.76048 7.92926 8.80722 7.92905C8.90527 7.9287 9.00331 7.92859 9.10135 7.92863C9.22677 7.92863 9.35216 7.92783 9.47756 7.92682C9.57415 7.92617 9.67074 7.92605 9.76733 7.92608C9.81355 7.92602 9.85977 7.92576 9.90599 7.9253C9.97078 7.92473 10.0355 7.9249 10.1003 7.92525C10.1556 7.92513 10.1556 7.92513 10.2119 7.925C10.3571 7.9459 10.4468 8.00319 10.5366 8.11895C10.5882 8.22856 10.5881 8.32683 10.5868 8.44544C10.5868 8.46973 10.5869 8.49402 10.587 8.51905C10.5871 8.60039 10.5867 8.6817 10.5862 8.76304C10.5862 8.82136 10.5862 8.87969 10.5862 8.93801C10.5862 9.09635 10.5857 9.25468 10.5851 9.41302C10.5846 9.57849 10.5845 9.74396 10.5844 9.90944C10.5841 10.2228 10.5834 10.5361 10.5825 10.8495C10.5816 11.2062 10.5811 11.5629 10.5806 11.9197C10.5797 12.6535 10.5781 13.3873 10.5762 14.1211C10.8566 14.1211 11.1369 14.1211 11.4258 14.1211C11.4257 14.013 11.4256 13.9049 11.4254 13.7935C11.4243 12.8019 11.4234 11.8104 11.4228 10.8189C11.4227 10.6889 11.4227 10.5589 11.4226 10.429C11.4226 10.3902 11.4226 10.3902 11.4225 10.3506C11.4223 9.93167 11.4218 9.51277 11.4213 9.09386C11.4207 8.66402 11.4204 8.23417 11.4203 7.80432C11.4202 7.53909 11.42 7.27387 11.4195 7.00864C11.4192 6.82675 11.4191 6.64486 11.4192 6.46297C11.4192 6.35804 11.4191 6.25311 11.4188 6.14818C11.4185 6.03434 11.4186 5.9205 11.4188 5.80665C11.4185 5.75706 11.4185 5.75706 11.4182 5.70647C11.4198 5.29104 11.4198 5.29104 11.5558 5.13065C11.6865 5.02229 11.751 5.00231 11.9196 5.00128Z" fill="white"/>
<path d="M14.1064 0.0457698C14.2623 0.19777 14.3208 0.377312 14.3747 0.582469C14.3816 0.607699 14.3885 0.632929 14.3956 0.658923C14.418 0.741784 14.4401 0.824752 14.4621 0.907739C14.4777 0.965793 14.4933 1.02384 14.5089 1.08189C14.5415 1.20339 14.5739 1.32495 14.6061 1.44656C14.6473 1.60176 14.6891 1.75679 14.731 1.91178C14.7634 2.0316 14.7954 2.15151 14.8272 2.27145C14.8425 2.32862 14.8579 2.38576 14.8734 2.44286C15.0601 3.13251 15.0601 3.13251 14.9652 3.3673C14.8579 3.48943 14.7642 3.56928 14.6008 3.58337C14.4632 3.58111 14.3469 3.5424 14.2383 3.45702C14.1119 3.30023 14.0706 3.1298 14.0199 2.93723C14.0065 2.88786 14.0065 2.88786 13.9928 2.83749C13.9645 2.7328 13.9366 2.628 13.9087 2.52319C13.8895 2.452 13.8703 2.38081 13.851 2.30964C13.804 2.13555 13.7573 1.96137 13.7109 1.7871C13.6916 1.7871 13.6723 1.7871 13.6523 1.7871C13.6127 1.84863 13.5764 1.91012 13.5407 1.97387C13.2339 2.50233 12.8424 2.98919 12.4512 3.45702C12.4383 3.47246 12.4254 3.48789 12.4121 3.50379C12.0739 3.9069 11.7129 4.28569 11.3416 4.6582C11.3271 4.6727 11.3127 4.6872 11.2979 4.70213C11.1309 4.86975 10.9615 5.0322 10.7813 5.18554C10.747 5.21547 10.7128 5.24546 10.6787 5.27549C10.2406 5.6586 9.78886 6.01752 9.31641 6.35742C9.29315 6.37422 9.26989 6.39103 9.24593 6.40834C8.64131 6.84378 8.00796 7.23209 7.35352 7.58788C7.3083 7.61251 7.3083 7.61251 7.26216 7.63764C5.28113 8.70881 3.10099 9.34806 0.849609 9.46288C0.822423 9.4643 0.795237 9.46571 0.767226 9.46716C0.308397 9.48817 0.308397 9.48817 0.117188 9.3457C0.0132681 9.23918 -0.00837253 9.15332 -0.0146484 9.00878C-0.0087802 8.86462 0.0167235 8.78026 0.117188 8.67187C0.251602 8.56566 0.343792 8.53919 0.514069 8.53351C0.535158 8.53262 0.556247 8.53173 0.577975 8.53081C0.623104 8.52894 0.668244 8.52729 0.713389 8.52585C0.832859 8.52195 0.952232 8.51603 1.07162 8.51028C1.09543 8.50916 1.11924 8.50805 1.14377 8.5069C2.6826 8.43219 4.21889 8.00164 5.625 7.38281C5.65657 7.36892 5.68813 7.35503 5.72066 7.34072C7.18797 6.6894 8.56171 5.83794 9.7823 4.79369C9.86733 4.72115 9.95427 4.65118 10.0415 4.58129C10.1657 4.48038 10.2792 4.3735 10.3897 4.25788C10.448 4.20029 10.5073 4.1469 10.5693 4.09343C10.6947 3.98463 10.8125 3.86953 10.9296 3.75182C10.9491 3.73236 10.9687 3.71289 10.9889 3.69283C11.1044 3.57713 11.2143 3.45819 11.3211 3.33442C11.3812 3.2651 11.4438 3.19821 11.5063 3.1311C11.6599 2.96248 11.8005 2.78561 11.9393 2.60477C11.9835 2.54741 12.0282 2.49048 12.0731 2.43358C12.2523 2.20454 12.4214 1.97036 12.583 1.72851C12.6083 1.69072 12.6083 1.69072 12.6341 1.65217C12.7372 1.4959 12.83 1.33602 12.9199 1.17187C12.8999 1.17737 12.8799 1.18288 12.8592 1.18855C12.6697 1.24059 12.48 1.29233 12.2903 1.34376C12.1928 1.37021 12.0953 1.39676 11.9979 1.42357C11.8857 1.45444 11.7734 1.48482 11.6611 1.51519C11.6264 1.5248 11.5917 1.53442 11.556 1.54432C11.1576 1.65109 11.1576 1.65109 10.9515 1.57836C10.8321 1.49873 10.7452 1.42355 10.704 1.28482C10.6791 1.12768 10.6982 1.01815 10.7813 0.8789C10.9298 0.725726 11.0851 0.684472 11.2886 0.632279C11.3212 0.623514 11.3538 0.614748 11.3874 0.605717C11.4935 0.577313 11.5997 0.549564 11.7059 0.521844C11.779 0.502464 11.8521 0.483045 11.9252 0.463586C12.0351 0.434331 12.1451 0.405127 12.2551 0.376122C12.4719 0.318965 12.688 0.260126 12.9037 0.199121C12.953 0.185272 13.0024 0.171431 13.0518 0.1576C13.1194 0.138657 13.187 0.119608 13.2545 0.100098C13.8459 -0.0705438 13.8459 -0.0705438 14.1064 0.0457698Z" fill="white"/>
</g>
<defs>
<clipPath id="clip0_26_16">
<rect width="15" height="15" fill="white"/>
</clipPath>
</defs>
</svg>
