<svg width="20" height="20" viewBox="0 0 20 20" fill="none" xmlns="http://www.w3.org/2000/svg">
<g clip-path="url(#clip0_23_3)">
<path d="M9.02859 0.613643C9.07605 0.613145 9.12352 0.612647 9.17242 0.612133C9.22341 0.612046 9.27439 0.611959 9.32693 0.61187C9.3802 0.611618 9.43347 0.611355 9.48674 0.611082C9.59828 0.610615 9.70982 0.610469 9.82136 0.610515C9.96361 0.610523 10.1058 0.609458 10.2481 0.608111C10.3581 0.607238 10.4681 0.607084 10.5781 0.607125C10.6559 0.60699 10.7336 0.606145 10.8113 0.605286C11.1373 0.606924 11.3589 0.637091 11.611 0.857994C11.6321 0.883423 11.6531 0.908851 11.6748 0.935051C11.6964 0.960379 11.7181 0.985707 11.7404 1.0118C11.8856 1.22249 11.8856 1.41098 11.8826 1.65847C11.8825 1.71138 11.8825 1.71138 11.8823 1.76535C11.8819 1.87759 11.8809 1.98981 11.8799 2.10204C11.8795 2.17831 11.8791 2.25458 11.8788 2.33085C11.8779 2.51744 11.8766 2.70403 11.875 2.89062C11.9121 2.89729 11.9121 2.89729 11.95 2.9041C12.4626 3.0007 12.9213 3.20865 13.3818 3.44787C13.4906 3.50293 13.5976 3.54954 13.7109 3.59374C13.7397 3.56379 13.7684 3.53385 13.798 3.50299C13.9058 3.39085 14.0145 3.27952 14.1234 3.1684C14.1702 3.12042 14.2168 3.07223 14.2632 3.02383C14.5779 2.69555 14.8398 2.4313 15.3174 2.40478C15.9221 2.4368 16.3265 2.99615 16.7303 3.39636C16.783 3.44834 16.8358 3.5001 16.8888 3.55166C17.5237 4.16897 17.5237 4.16897 17.6027 4.58144C17.6014 4.63515 17.6014 4.63515 17.6001 4.68993C17.6001 4.72584 17.6002 4.76174 17.6002 4.79873C17.5197 5.24692 17.219 5.49961 16.9043 5.80321C16.856 5.8505 16.8078 5.89782 16.7596 5.9452C16.6423 6.06035 16.5245 6.17487 16.4062 6.28905C16.4157 6.30847 16.4251 6.32788 16.4348 6.34789C17.1094 7.74242 17.1094 7.74242 17.1094 8.12499C17.1562 8.12417 17.2031 8.12336 17.2514 8.12251C17.4264 8.11967 17.6014 8.11789 17.7765 8.11641C17.852 8.11563 17.9276 8.11456 18.0031 8.1132C18.1121 8.1113 18.2211 8.11042 18.3301 8.10973C18.3802 8.10852 18.3802 8.10852 18.4313 8.10729C18.7026 8.10719 18.9058 8.17819 19.111 8.35799C19.1321 8.38342 19.1531 8.40885 19.1748 8.43505C19.1964 8.46038 19.2181 8.48571 19.2404 8.5118C19.3562 8.67989 19.3849 8.82625 19.3863 9.02859C19.3868 9.07605 19.3873 9.12352 19.3879 9.17242C19.388 9.2489 19.388 9.2489 19.3881 9.32693C19.3884 9.3802 19.3886 9.43347 19.3889 9.48674C19.3894 9.59828 19.3895 9.70982 19.3895 9.82136C19.3895 9.96361 19.3905 10.1058 19.3919 10.2481C19.3927 10.3581 19.3929 10.4681 19.3929 10.5781C19.393 10.6559 19.3938 10.7336 19.3947 10.8113C19.3931 11.1373 19.3629 11.3589 19.142 11.611C19.1166 11.6321 19.0911 11.6531 19.0649 11.6748C19.0396 11.6964 19.0143 11.7181 18.9882 11.7404C18.7775 11.8856 18.589 11.8856 18.3415 11.8826C18.3062 11.8825 18.271 11.8824 18.2346 11.8823C18.1224 11.8819 18.0102 11.8809 17.8979 11.8799C17.8217 11.8795 17.7454 11.8791 17.6691 11.8788C17.4825 11.8779 17.296 11.8766 17.1094 11.875C17.1049 11.8997 17.1005 11.9245 17.0959 11.95C16.9993 12.4626 16.7913 12.9213 16.5521 13.3818C16.4971 13.4906 16.4504 13.5976 16.4062 13.7109C16.4512 13.7543 16.4512 13.7543 16.497 13.7986C16.609 13.9071 16.7204 14.0162 16.8316 14.1255C16.8796 14.1726 16.9278 14.2194 16.9762 14.2661C17.528 14.799 17.528 14.799 17.6002 15.2013C17.6002 15.2551 17.6002 15.2551 17.6001 15.3101C17.6014 15.3638 17.6014 15.3638 17.6027 15.4185C17.5335 15.78 17.3141 16.0352 17.0586 16.2863C17.0275 16.3175 16.9964 16.3486 16.9644 16.3807C16.8991 16.446 16.8335 16.5111 16.7677 16.5759C16.6675 16.6747 16.5683 16.7745 16.4692 16.8744C16.4053 16.938 16.3413 17.0016 16.2773 17.0651C16.2479 17.0947 16.2185 17.1243 16.1882 17.1548C15.9446 17.3931 15.6828 17.5796 15.3296 17.5903C15.2989 17.5918 15.2683 17.5932 15.2367 17.5947C14.766 17.5292 14.5079 17.2317 14.1943 16.9043C14.1472 16.856 14.1001 16.8078 14.0529 16.7596C13.9383 16.6424 13.8244 16.5246 13.7109 16.4062C13.6915 16.4157 13.6721 16.4251 13.6521 16.4348C12.2576 17.1094 12.2576 17.1094 11.875 17.1094C11.8758 17.1562 11.8766 17.2031 11.8775 17.2514C11.8803 17.4264 11.8821 17.6014 11.8836 17.7765C11.8844 17.852 11.8854 17.9276 11.8868 18.0031C11.8887 18.1121 11.8896 18.2211 11.8903 18.3301C11.8911 18.3635 11.8919 18.3969 11.8927 18.4313C11.8928 18.7026 11.8218 18.9058 11.642 19.111C11.6166 19.1321 11.5911 19.1531 11.5649 19.1748C11.5396 19.1964 11.5143 19.2181 11.4882 19.2404C11.3201 19.3562 11.1737 19.3849 10.9714 19.3863C10.9239 19.3868 10.8765 19.3873 10.8276 19.3879C10.7766 19.3879 10.7256 19.388 10.6731 19.3881C10.6198 19.3884 10.5665 19.3886 10.5132 19.3889C10.4017 19.3894 10.2902 19.3895 10.1786 19.3895C10.0364 19.3895 9.89416 19.3905 9.75192 19.3919C9.6419 19.3927 9.53188 19.3929 9.42185 19.3929C9.34413 19.393 9.26642 19.3938 9.1887 19.3947C8.86269 19.3931 8.64105 19.3629 8.38897 19.142C8.36792 19.1166 8.34687 19.0911 8.32519 19.0649C8.30354 19.0396 8.28188 19.0143 8.25957 18.9882C8.11441 18.7775 8.11443 18.589 8.11736 18.3415C8.11747 18.3062 8.11758 18.271 8.1177 18.2346C8.11813 18.1224 8.11911 18.0102 8.12011 17.8979C8.1205 17.8217 8.12086 17.7454 8.12118 17.6691C8.12204 17.4825 8.12338 17.296 8.12499 17.1094C8.08907 17.1033 8.08907 17.1033 8.05242 17.0971C7.81204 17.0532 7.59414 16.9865 7.36816 16.8945C7.33769 16.8825 7.30723 16.8705 7.27584 16.8581C6.89198 16.7052 6.89198 16.7052 6.79687 16.5625C6.77489 16.438 6.77489 16.438 6.79687 16.2891C6.84901 16.2165 6.84901 16.2165 6.91751 16.142C6.94239 16.1147 6.96727 16.0874 6.99291 16.0592C7.01845 16.0319 7.04399 16.0047 7.0703 15.9766C7.09306 15.952 7.11581 15.9275 7.13925 15.9022C7.28691 15.7445 7.43778 15.5899 7.58899 15.4356C7.6438 15.3794 7.69826 15.3228 7.75237 15.2658C7.83129 15.1829 7.9113 15.1011 7.99163 15.0195C8.01545 14.994 8.03926 14.9685 8.0638 14.9422C8.19322 14.8134 8.27779 14.7501 8.46429 14.7477C8.57979 14.7567 8.69368 14.7701 8.80614 14.7984C8.83507 14.8053 8.86399 14.8122 8.89379 14.8192C8.92368 14.8265 8.95357 14.8338 8.98437 14.8413C10.2375 15.1212 11.5533 14.8667 12.6461 14.1986C12.8732 14.0543 13.0783 13.8872 13.2812 13.7109C13.3059 13.6914 13.3306 13.672 13.356 13.6519C13.5727 13.4793 13.737 13.2647 13.9062 13.0469C13.9329 13.0134 13.9596 12.98 13.9871 12.9455C14.3455 12.479 14.5902 11.9267 14.7656 11.3672C14.7739 11.3409 14.7822 11.3147 14.7907 11.2876C15.0344 10.4693 15.0211 9.44602 14.7656 8.6328C14.7562 8.6023 14.7468 8.5718 14.737 8.54037C14.5236 7.86989 14.1962 7.29892 13.75 6.7578C13.7268 6.7286 13.7036 6.69939 13.6796 6.6693C13.4952 6.44571 13.2755 6.27047 13.0469 6.09374C13.013 6.0671 12.9792 6.04047 12.9443 6.01302C11.9249 5.23785 10.5909 4.91684 9.32647 5.08651C8.34683 5.23783 7.46493 5.6381 6.71874 6.28905C6.6912 6.31141 6.66365 6.33377 6.63528 6.3568C5.76413 7.07563 5.21406 8.26806 5.07812 9.37499C5.06571 9.57684 5.06304 9.77829 5.06347 9.98046C5.06338 10.0216 5.06338 10.0216 5.0633 10.0636C5.06339 10.4608 5.09585 10.8336 5.20019 11.2183C5.27029 11.5237 5.27029 11.5237 5.23437 11.6797C5.18226 11.7533 5.18226 11.7533 5.11379 11.8279C5.08892 11.8551 5.06404 11.8823 5.03841 11.9104C4.92081 12.0345 4.80176 12.1569 4.68063 12.2777C4.65519 12.3031 4.62975 12.3286 4.60354 12.3549C4.55038 12.4081 4.49717 12.4612 4.44391 12.5143C4.36217 12.5958 4.28065 12.6776 4.19913 12.7593C4.14724 12.8112 4.09534 12.863 4.04342 12.9149C4.01905 12.9393 3.99467 12.9638 3.96956 12.989C3.75869 13.1987 3.75869 13.1987 3.57909 13.2153C3.43749 13.2031 3.43749 13.2031 3.35784 13.1399C3.11575 12.8458 2.89062 12.252 2.89062 11.875C2.84374 11.8758 2.79686 11.8766 2.74856 11.8775C2.57355 11.8803 2.39855 11.8821 2.22352 11.8836C2.14797 11.8844 2.07243 11.8854 1.99689 11.8868C1.88789 11.8887 1.77893 11.8896 1.66991 11.8903C1.61979 11.8915 1.61979 11.8915 1.56864 11.8927C1.2974 11.8928 1.09415 11.8218 0.888969 11.642C0.867921 11.6166 0.846873 11.5911 0.825187 11.5649C0.803535 11.5396 0.781883 11.5143 0.759575 11.4882C0.643757 11.3201 0.61509 11.1737 0.613643 10.9714C0.613145 10.9239 0.612647 10.8765 0.612133 10.8276C0.612046 10.7766 0.611959 10.7256 0.61187 10.6731C0.611618 10.6198 0.611355 10.5665 0.611082 10.5132C0.610615 10.4017 0.610469 10.2902 0.610515 10.1786C0.610523 10.0364 0.609458 9.89416 0.608112 9.75192C0.607239 9.6419 0.607084 9.53188 0.607126 9.42185C0.60699 9.34413 0.606145 9.26642 0.605286 9.1887C0.606924 8.86269 0.637091 8.64105 0.857994 8.38897C0.883423 8.36792 0.908851 8.34687 0.935051 8.32519C0.960379 8.30354 0.985707 8.28188 1.0118 8.25957C1.22249 8.11441 1.41098 8.11443 1.65847 8.11736C1.69374 8.11747 1.72901 8.11758 1.76535 8.1177C1.87759 8.11813 1.98981 8.11911 2.10204 8.12011C2.17831 8.1205 2.25458 8.12086 2.33085 8.12118C2.51744 8.12204 2.70403 8.12338 2.89062 8.12499C2.89507 8.10022 2.89952 8.07545 2.9041 8.04993C3.02186 7.42467 3.31042 6.85415 3.59374 6.28905C3.54882 6.24567 3.54882 6.24567 3.50299 6.2014C3.39096 6.09293 3.27959 5.98379 3.1684 5.87444C3.12039 5.82741 3.0722 5.78054 3.02383 5.73387C2.47202 5.20098 2.47202 5.20098 2.39974 4.79873C2.39979 4.76283 2.39984 4.72692 2.39989 4.68993C2.39904 4.65413 2.39818 4.61833 2.3973 4.58144C2.46663 4.21929 2.68629 3.96466 2.9428 3.71368C2.97396 3.68252 3.00511 3.65136 3.03721 3.61926C3.10271 3.55397 3.16844 3.48892 3.2344 3.4241C3.33495 3.32519 3.43463 3.22547 3.53423 3.1256C3.59827 3.06197 3.66236 2.99839 3.72649 2.93487C3.75608 2.90529 3.78567 2.8757 3.81616 2.84522C4.07099 2.59599 4.3066 2.42099 4.67284 2.40966C5.19216 2.42533 5.46785 2.743 5.80566 3.0957C5.85275 3.14397 5.8999 3.19219 5.94711 3.24035C6.06173 3.35754 6.17559 3.47543 6.28905 3.59374C6.30847 3.58432 6.32788 3.5749 6.34789 3.56519C7.74242 2.89062 7.74242 2.89062 8.12499 2.89062C8.12417 2.84374 8.12336 2.79686 8.12251 2.74856C8.11967 2.57355 8.11789 2.39855 8.11641 2.22352C8.11563 2.14797 8.11456 2.07243 8.1132 1.99689C8.1113 1.88789 8.11042 1.77893 8.10973 1.66991C8.10852 1.61979 8.10852 1.61979 8.10729 1.56864C8.10719 1.2974 8.17819 1.09415 8.35799 0.888969C8.39614 0.857397 8.39614 0.857397 8.43505 0.825187C8.46038 0.803535 8.48571 0.781883 8.5118 0.759575C8.67989 0.643757 8.82625 0.61509 9.02859 0.613643Z" fill="white"/>
<path d="M11.7578 6.48439C11.8397 6.57993 11.8359 6.63529 11.8376 6.76143C11.803 6.97957 11.6292 7.11047 11.4769 7.25695C11.4449 7.28864 11.4128 7.32033 11.3799 7.35299C11.2777 7.45383 11.1748 7.55383 11.0718 7.65383C11.0023 7.72216 10.9328 7.79054 10.8634 7.85898C10.6934 8.02641 10.5227 8.19316 10.3516 8.35939C10.3598 8.38461 10.3681 8.40982 10.3767 8.4358C10.4141 8.55023 10.4512 8.66477 10.4883 8.77932C10.5013 8.819 10.5144 8.85867 10.5278 8.89956C10.5463 8.95696 10.5463 8.95696 10.5652 9.01552C10.5766 9.05071 10.5881 9.08589 10.5999 9.12214C10.625 9.21877 10.625 9.21877 10.625 9.37502C10.6578 9.38008 10.6578 9.38008 10.6912 9.38524C10.9551 9.43148 11.1939 9.51625 11.4413 9.61611C11.5561 9.65928 11.5561 9.65928 11.6395 9.61978C11.7252 9.56631 11.7876 9.50929 11.8577 9.43658C11.8841 9.40934 11.9106 9.3821 11.9379 9.35403C11.9661 9.32465 11.9944 9.29527 12.0235 9.265C12.084 9.20311 12.1445 9.14123 12.2051 9.07938C12.3003 8.98181 12.3952 8.88408 12.4898 8.78593C12.5812 8.69118 12.6734 8.59719 12.7657 8.50328C12.7937 8.47383 12.8217 8.44437 12.8505 8.41402C13.0726 8.18975 13.0726 8.18975 13.237 8.16322C13.3607 8.16409 13.4189 8.16624 13.5156 8.24221C13.849 8.77931 13.8032 9.56447 13.6731 10.1557C13.4649 11.009 12.9263 11.6862 12.1819 12.1427C11.6309 12.4622 11.0547 12.5519 10.4274 12.5456C10.3979 12.5457 10.3685 12.5458 10.3381 12.5459C10.2344 12.5391 10.2344 12.5391 10.1357 12.5091C9.97483 12.4688 9.84164 12.4545 9.69399 12.5429C9.48404 12.705 9.30355 12.9003 9.11978 13.0907C9.05618 13.1547 8.99247 13.2186 8.92866 13.2823C8.75586 13.4557 8.58466 13.6305 8.41369 13.8056C8.23429 13.9888 8.05339 14.1704 7.87262 14.3522C7.56911 14.6578 7.26653 14.9642 6.96461 15.2713C6.65447 15.5868 6.34402 15.9019 6.03302 16.2165C6.01388 16.2359 5.99474 16.2552 5.97501 16.2752C5.76575 16.4869 5.55638 16.6984 5.34687 16.9098C5.3192 16.9378 5.3192 16.9378 5.29097 16.9662C5.19895 17.0591 5.10693 17.152 5.01489 17.2448C4.80021 17.4615 4.58605 17.6786 4.37232 17.8962C4.23908 18.0318 4.10552 18.167 3.9719 18.3021C3.91019 18.3647 3.84861 18.4274 3.7872 18.4902C3.33322 18.9546 2.91598 19.3633 2.229 19.3897C1.77915 19.3725 1.43991 19.2258 1.10596 18.9307C0.771801 18.5514 0.607198 18.2033 0.614165 17.6892C0.664718 17.1709 0.92688 16.7868 1.29024 16.4332C1.31695 16.4067 1.34366 16.3803 1.37117 16.353C1.45987 16.2652 1.54898 16.1778 1.6381 16.0904C1.70211 16.0272 1.76609 15.964 1.83004 15.9007C1.96737 15.7649 2.10487 15.6293 2.24248 15.4939C2.46004 15.2796 2.67697 15.0646 2.89376 14.8495C2.96808 14.7758 3.04241 14.7021 3.11673 14.6284C3.1353 14.61 3.15387 14.5915 3.173 14.5726C3.38386 14.3634 3.59483 14.1544 3.80587 13.9454C3.82514 13.9263 3.84441 13.9073 3.86427 13.8876C4.17701 13.578 4.49039 13.269 4.80397 12.9602C5.1264 12.6427 5.44792 12.3243 5.7687 12.005C5.94865 11.826 6.12901 11.6475 6.31041 11.47C6.48087 11.3031 6.65021 11.1353 6.81876 10.9665C6.88079 10.9048 6.94322 10.8435 7.00608 10.7826C7.09188 10.6994 7.1761 10.6149 7.2601 10.5299C7.28529 10.5061 7.31047 10.4824 7.33642 10.4579C7.44105 10.3493 7.49731 10.2811 7.50615 10.1272C7.4964 10.0182 7.47961 9.91256 7.46094 9.80471C7.40476 8.8413 7.64244 8.00943 8.25195 7.25588C9.1067 6.33825 10.5965 5.9248 11.7578 6.48439Z" fill="white"/>
</g>
<defs>
<clipPath id="clip0_23_3">
<rect width="20" height="20" fill="white"/>
</clipPath>
</defs>
</svg>
