<svg width="20" height="20" viewBox="0 0 20 20" fill="none" xmlns="http://www.w3.org/2000/svg">
<g clip-path="url(#clip0_24_6)">
<path d="M12.1875 1.95312C12.2175 1.9592 12.2476 1.96528 12.2785 1.97154C13.1852 2.16268 14.4631 2.64715 15.0477 3.42275C15.1551 3.50601 15.2689 3.49275 15.3992 3.49158C15.4278 3.49179 15.4564 3.492 15.4859 3.49222C15.548 3.4926 15.6101 3.49272 15.6722 3.4926C15.7705 3.49242 15.8689 3.49297 15.9673 3.49371C16.1762 3.49514 16.3852 3.49568 16.5942 3.49609C16.836 3.49656 17.0778 3.4974 17.3195 3.49921C17.4163 3.49974 17.513 3.49958 17.6097 3.49939C17.6693 3.49976 17.729 3.50015 17.7886 3.50059C17.8154 3.50035 17.8421 3.50011 17.8696 3.49986C18.0476 3.50213 18.169 3.53966 18.3203 3.6328C18.5026 3.87175 18.4806 4.12908 18.4745 4.41544C18.4739 4.45527 18.4732 4.4951 18.4725 4.53613C18.4711 4.62347 18.4695 4.7108 18.4679 4.79812C18.4634 5.04116 18.4596 5.2842 18.4558 5.52724C18.4552 5.56594 18.4552 5.56594 18.4546 5.60542C18.4481 6.01298 18.4434 6.42055 18.4401 6.82815C18.4398 6.8558 18.4396 6.88344 18.4394 6.91193C18.437 7.19792 18.4349 7.48391 18.4329 7.76991C18.4318 7.91685 18.4308 8.06379 18.4296 8.21073C18.4294 8.23997 18.4292 8.26922 18.429 8.29935C18.4252 8.7707 18.4174 9.2419 18.4079 9.71318C18.3983 10.1988 18.3934 10.6843 18.3927 11.17C18.3922 11.4421 18.3896 11.7138 18.3815 11.9858C18.3069 13.2979 18.3069 13.2979 18.8646 14.4299C19.0667 14.6377 19.2891 14.8188 19.5214 14.9916C19.7626 15.1734 19.9042 15.3769 20 15.6641C20.0295 16.0358 20.0404 16.3694 19.8046 16.6797C19.5886 16.9274 19.3227 17.0783 18.9962 17.1242C18.5635 17.1433 18.2699 16.9947 17.9546 16.7081C17.8098 16.5711 17.7078 16.4314 17.6024 16.2622C17.3599 15.8956 17.068 15.5829 16.6269 15.4761C15.8582 15.3508 15.0592 15.3946 14.2837 15.4173C13.9652 15.4264 13.6467 15.4295 13.328 15.4322C12.6742 15.4379 12.0207 15.4509 11.3671 15.4687C11.3778 15.5033 11.3778 15.5033 11.3887 15.5386C11.4207 15.643 11.4525 15.7475 11.4843 15.852C11.4955 15.8883 11.5067 15.9246 11.5182 15.962C11.5288 15.9969 11.5393 16.0317 11.5502 16.0676C11.5601 16.0998 11.5699 16.1319 11.58 16.165C11.6015 16.25 11.6015 16.25 11.6015 16.3672C11.6477 16.3658 11.694 16.3645 11.7416 16.3631C12.2483 16.3526 12.6423 16.3738 13.0322 16.7358C13.0628 16.7689 13.0934 16.8019 13.125 16.8359C13.1515 16.8633 13.1781 16.8907 13.2055 16.9189C13.402 17.2106 13.4548 17.5068 13.462 17.8537C13.4281 18.0124 13.369 18.0639 13.2421 18.1641C13.1254 18.1833 13.031 18.1905 12.9145 18.1889C12.8816 18.1892 12.8487 18.1895 12.8148 18.1898C12.7047 18.1906 12.5945 18.1899 12.4844 18.1893C12.4054 18.1896 12.3264 18.1899 12.2474 18.1904C12.0329 18.1913 11.8184 18.1909 11.6039 18.1903C11.3795 18.1898 11.1551 18.1903 10.9307 18.1906C10.5538 18.1909 10.177 18.1904 9.80014 18.1895C9.36432 18.1885 8.92852 18.1888 8.4927 18.1899C8.11865 18.1908 7.74462 18.1909 7.37057 18.1904C7.14711 18.1901 6.92366 18.19 6.70019 18.1907C6.49011 18.1912 6.28006 18.1908 6.06998 18.1897C5.99284 18.1895 5.91569 18.1895 5.83855 18.19C5.73332 18.1905 5.62816 18.1898 5.52293 18.1889C5.49232 18.1893 5.46171 18.1897 5.43018 18.1902C5.27392 18.1874 5.20286 18.17 5.07866 18.072C4.93633 17.8852 4.97279 17.6849 4.99995 17.4609C5.07623 17.119 5.2417 16.8205 5.52455 16.6086C5.8382 16.4112 6.11622 16.3551 6.48189 16.3623C6.51605 16.3626 6.55022 16.363 6.58542 16.3634C6.66891 16.3643 6.7524 16.3657 6.83589 16.3672C6.84163 16.3337 6.84163 16.3337 6.84749 16.2996C6.88469 16.0979 6.93386 15.9043 6.99519 15.7085C7.00925 15.6634 7.02331 15.6183 7.0378 15.5718C7.04851 15.5378 7.05923 15.5038 7.07026 15.4687C7.02987 15.4698 6.98948 15.4708 6.94786 15.4718C6.79754 15.4754 6.64722 15.4776 6.49687 15.4795C6.43188 15.4805 6.36691 15.4818 6.30194 15.4835C6.20835 15.4859 6.11483 15.487 6.02122 15.4878C5.97788 15.4893 5.97788 15.4893 5.93365 15.4909C5.77832 15.491 5.7105 15.4746 5.58706 15.3772C5.50776 15.2734 5.50776 15.2734 5.48335 15.1562C5.51744 14.9926 5.56934 14.9443 5.70308 14.8437C5.84175 14.8147 5.97828 14.8173 6.11955 14.8188C6.18321 14.8183 6.18321 14.8183 6.24815 14.8178C6.39061 14.8169 6.53303 14.8175 6.67549 14.818C6.7775 14.8177 6.87952 14.8172 6.98153 14.8167C7.20129 14.8158 7.42104 14.8156 7.64079 14.8159C7.95853 14.8162 8.27625 14.8155 8.59398 14.8146C9.10948 14.8131 9.62497 14.8124 10.1405 14.8123C10.6412 14.8122 11.142 14.8117 11.6427 14.8106C11.6736 14.8106 11.7044 14.8105 11.7362 14.8104C11.8911 14.8101 12.046 14.8098 12.2008 14.8094C13.4854 14.8066 14.77 14.8052 16.0546 14.8047C15.936 14.6792 15.816 14.5551 15.6958 14.4311C15.662 14.3954 15.6282 14.3597 15.5934 14.3229C15.5606 14.2893 15.5277 14.2557 15.4939 14.221C15.4638 14.1897 15.4337 14.1584 15.4028 14.1262C15.3167 14.051 15.3167 14.051 15.2095 14.0715C15.179 14.0814 15.1485 14.0913 15.1171 14.1016C15.053 14.1078 14.9887 14.1118 14.9243 14.1138C14.8925 14.1152 14.8607 14.1167 14.828 14.1182C14.5655 14.0752 14.3817 13.8446 14.2041 13.6621C14.179 13.6367 14.154 13.6113 14.1282 13.5852C14.067 13.5231 14.0061 13.4609 13.9453 13.3984C13.9068 13.4178 13.8684 13.4372 13.8288 13.4572C12.5199 14.1037 10.9694 14.3884 9.5312 14.0234C9.5038 14.0165 9.4764 14.0096 9.44818 14.0025C8.39924 13.7318 7.25765 13.2134 6.54997 12.3597C6.46223 12.2862 6.41016 12.2901 6.29656 12.2902C6.2579 12.2899 6.21923 12.2896 6.1794 12.2894C6.13703 12.2897 6.09465 12.29 6.051 12.2903C6.00634 12.2901 5.96167 12.29 5.91566 12.2898C5.81853 12.2896 5.7214 12.2896 5.62427 12.2898C5.47061 12.2902 5.31698 12.2898 5.16332 12.2892C4.78164 12.2878 4.39995 12.2875 4.01826 12.2876C3.69594 12.2877 3.37364 12.2872 3.05132 12.2857C2.89982 12.2853 2.74834 12.2858 2.59685 12.2863C2.50403 12.2859 2.41121 12.2855 2.31839 12.2851C2.27618 12.2855 2.23396 12.2858 2.19047 12.2862C1.90467 12.2835 1.90467 12.2835 1.75112 12.1912C1.67393 12.1028 1.65383 12.0687 1.65767 11.9531C1.65762 11.9273 1.65757 11.9016 1.65751 11.875C1.69157 11.7547 1.73439 11.7154 1.83589 11.6406C1.96581 11.6165 2.09471 11.6186 2.22655 11.6193C2.2662 11.6189 2.30585 11.6185 2.34669 11.6181C2.47774 11.6169 2.60877 11.6169 2.73982 11.6168C2.83068 11.6162 2.92154 11.6156 3.0124 11.6149C3.25154 11.6131 3.49069 11.6124 3.72984 11.6118C3.97387 11.611 4.2179 11.6094 4.46193 11.6078C4.94075 11.6049 5.41956 11.6029 5.89839 11.6016C5.88046 11.5765 5.86254 11.5515 5.84407 11.5257C5.8201 11.4919 5.79613 11.4581 5.77144 11.4233C5.74787 11.3902 5.7243 11.3572 5.70003 11.3231C5.62495 11.2109 5.62495 11.2109 5.59304 11.1378C5.55659 11.0506 5.55659 11.0506 5.4687 10.9375C5.35421 10.8977 5.24437 10.9022 5.12417 10.9053C5.08941 10.9052 5.05465 10.905 5.01883 10.9048C4.90391 10.9046 4.78909 10.9062 4.67418 10.9077C4.59429 10.9078 4.51441 10.9077 4.43453 10.9074C4.22415 10.907 4.01381 10.9082 3.80343 10.9097C3.46685 10.9121 3.13027 10.9129 2.79368 10.9125C2.6761 10.9126 2.55857 10.9138 2.441 10.9151C2.36884 10.9152 2.29669 10.9153 2.22454 10.9154C2.19188 10.916 2.15923 10.9167 2.12558 10.9173C1.96865 10.9165 1.89311 10.9099 1.75698 10.8241C1.67964 10.7422 1.67964 10.7422 1.65507 10.6641C1.65593 10.6383 1.65678 10.6125 1.65767 10.5859C1.65759 10.5473 1.65759 10.5473 1.65751 10.5078C1.69074 10.3905 1.73901 10.3478 1.83589 10.2734C1.94852 10.2588 2.04597 10.2536 2.15842 10.2557C2.20703 10.2557 2.20703 10.2557 2.25663 10.2556C2.36359 10.2557 2.47051 10.2569 2.57747 10.2582C2.65168 10.2585 2.7259 10.2587 2.80012 10.2588C2.99535 10.2594 3.19057 10.261 3.38579 10.2627C3.58504 10.2643 3.7843 10.265 3.98356 10.2658C4.37445 10.2675 4.76533 10.2701 5.1562 10.2734C5.14256 10.2329 5.12891 10.1925 5.11485 10.1507C5.09689 10.0972 5.07894 10.0437 5.06099 9.99023C5.0475 9.95027 5.0475 9.95027 5.03375 9.90951C4.99183 9.78434 4.95073 9.66013 4.92183 9.53124C4.88351 9.5311 4.8452 9.53096 4.80572 9.53081C4.44476 9.52937 4.08381 9.52711 3.72285 9.52406C3.53728 9.52252 3.35171 9.52126 3.16613 9.52066C2.98706 9.52007 2.808 9.51872 2.62893 9.51686C2.56059 9.51628 2.49225 9.51597 2.42391 9.51593C2.32822 9.51584 2.23259 9.51479 2.13691 9.5135C2.09447 9.5138 2.09447 9.5138 2.05117 9.5141C1.92453 9.51147 1.84662 9.4993 1.74021 9.42869C1.66035 9.30638 1.65982 9.22615 1.65942 9.08042C1.65915 9.05512 1.65887 9.02982 1.65859 9.00376C1.65791 8.92037 1.65836 8.83704 1.65889 8.75365C1.65878 8.69557 1.65863 8.63749 1.65843 8.57941C1.6582 8.45778 1.65854 8.33617 1.65927 8.21454C1.66016 8.05875 1.65965 7.90299 1.65871 7.7472C1.65815 7.62729 1.65833 7.5074 1.65873 7.38749C1.65884 7.33005 1.65871 7.27262 1.65834 7.21518C1.65795 7.13485 1.65855 7.05458 1.65942 6.97425C1.65955 6.92857 1.65967 6.8829 1.6598 6.83584C1.67964 6.71874 1.67964 6.71874 1.74021 6.62576C1.87083 6.53938 1.98557 6.54175 2.13691 6.54475C2.18209 6.54472 2.18209 6.54472 2.22819 6.54468C2.32754 6.54479 2.42685 6.54601 2.5262 6.54723C2.59516 6.54752 2.66412 6.54775 2.73309 6.5479C2.91445 6.5485 3.09579 6.55003 3.27714 6.55176C3.46226 6.55336 3.64738 6.55408 3.8325 6.55486C4.19562 6.55654 4.55872 6.5592 4.92183 6.56249C4.92681 6.53624 4.9318 6.50999 4.93694 6.48295C4.94369 6.44821 4.95043 6.41347 4.95738 6.37768C4.96728 6.32622 4.96728 6.32622 4.97738 6.27372C5.01018 6.12573 5.06138 5.9878 5.11714 5.84716C5.12731 5.82075 5.13748 5.79434 5.14796 5.76713C5.20166 5.62815 5.25712 5.48989 5.31245 5.35155C3.76558 5.35155 2.2187 5.35155 0.624952 5.35155C0.625405 5.83712 0.625858 6.32268 0.626325 6.82296C0.626525 7.1361 0.626715 7.44923 0.626859 7.76237C0.627088 8.25615 0.627354 8.74994 0.627899 9.24372C0.629919 11.1108 0.627659 12.9771 0.585889 14.8437C0.635372 14.8433 0.684854 14.8429 0.735837 14.8424C1.20198 14.8385 1.66811 14.8355 2.13426 14.8336C2.37392 14.8326 2.61357 14.8312 2.85322 14.829C3.08446 14.8269 3.31569 14.8257 3.54695 14.8252C3.63521 14.8249 3.72347 14.8241 3.81172 14.8231C3.93528 14.8217 4.05878 14.8215 4.18234 14.8216C4.21889 14.8209 4.25545 14.8202 4.29311 14.8194C4.46997 14.8208 4.546 14.8253 4.69064 14.9355C4.76558 15.0391 4.76558 15.0391 4.78999 15.1562C4.75598 15.3195 4.70334 15.3681 4.57026 15.4687C4.43506 15.4973 4.30231 15.4946 4.16454 15.4928C4.12374 15.493 4.08294 15.4932 4.04091 15.4934C3.90611 15.4939 3.77137 15.4929 3.63658 15.4919C3.54283 15.4919 3.44909 15.4919 3.35534 15.4919C3.15888 15.4919 2.96242 15.4911 2.76596 15.4899C2.51424 15.4884 2.26254 15.4882 2.01081 15.4885C1.81722 15.4886 1.62363 15.4881 1.43004 15.4875C1.33723 15.4872 1.24443 15.4871 1.15162 15.4871C1.02183 15.487 0.892073 15.4862 0.76229 15.4851C0.704842 15.4853 0.704842 15.4853 0.646233 15.4855C0.442598 15.483 0.28912 15.473 0.117139 15.3516C-0.0462013 15.1629 -0.0163497 14.9397 -0.0149291 14.704C-0.0151119 14.6577 -0.0152951 14.6114 -0.0154834 14.5637C-0.01587 14.4354 -0.0157308 14.3071 -0.0153678 14.1787C-0.0151028 14.0403 -0.0155116 13.9018 -0.0158339 13.7633C-0.0163553 13.4921 -0.0162427 13.2209 -0.0159031 12.9497C-0.0156385 12.7293 -0.0156026 12.509 -0.0157302 12.2886C-0.0157482 12.2572 -0.0157654 12.2259 -0.0157839 12.1935C-0.0158213 12.1298 -0.0158598 12.0661 -0.0158983 12.0024C-0.0162325 11.405 -0.0158484 10.8076 -0.0152188 10.2102C-0.0146952 9.69745 -0.0147858 9.18474 -0.0153261 8.67202C-0.0159531 8.07674 -0.0161998 7.48147 -0.0158399 6.88619C-0.0158026 6.82272 -0.0157666 6.75926 -0.0157302 6.69579C-0.0157031 6.64895 -0.015703 6.64895 -0.0156754 6.60116C-0.0155742 6.38102 -0.0157442 6.16087 -0.0160199 5.94072C-0.0163484 5.67246 -0.0162605 5.40421 -0.015636 5.13596C-0.0153279 4.99907 -0.0152072 4.86218 -0.0155943 4.72529C-0.0159132 4.57697 -0.0155149 4.42867 -0.0149291 4.28035C-0.0151905 4.23697 -0.0154525 4.1936 -0.0157219 4.14891C-0.0128958 3.7815 -0.0128952 3.7815 0.117139 3.6328C0.278772 3.52959 0.404258 3.5008 0.594377 3.49983C0.665152 3.49909 0.665152 3.49909 0.737358 3.49833C0.787779 3.49845 0.8382 3.49856 0.890149 3.49868C0.942864 3.4985 0.995578 3.49829 1.04829 3.49806C1.15842 3.49771 1.26853 3.4978 1.37866 3.49819C1.51965 3.49864 1.66061 3.49785 1.8016 3.49671C1.91031 3.496 2.01901 3.49601 2.12773 3.49623C2.20493 3.49624 2.28214 3.49558 2.35934 3.49491C2.42974 3.49546 2.42974 3.49546 2.50157 3.49602C2.56349 3.49603 2.56349 3.49603 2.62665 3.49604C2.76128 3.52052 2.80662 3.56601 2.89058 3.67187C2.93328 3.79082 2.9344 3.85013 2.90034 3.97216C2.85151 4.06249 2.85151 4.06249 2.73433 4.14062C2.64015 4.15001 2.64015 4.15001 2.52739 4.14949C2.48517 4.14948 2.44294 4.14947 2.39944 4.14947C2.35391 4.14907 2.30837 4.14866 2.26146 4.14825C2.19148 4.14808 2.19148 4.14808 2.12008 4.14791C1.97082 4.14747 1.82157 4.14649 1.67232 4.1455C1.57123 4.14511 1.47014 4.14475 1.36905 4.14443C1.12101 4.14357 0.872983 4.14222 0.624952 4.14062C0.624952 4.33398 0.624952 4.52734 0.624952 4.72655C2.30073 4.72655 3.97651 4.72655 5.70308 4.72655C5.72886 4.6621 5.75464 4.59765 5.7812 4.53124C5.82631 4.46705 5.87357 4.40434 5.9228 4.34325C5.94748 4.31239 5.97215 4.28152 5.99757 4.24972C6.02582 4.21505 6.02582 4.21505 6.05464 4.17968C6.02767 4.17954 6.0007 4.17939 5.97291 4.17925C5.69218 4.17761 5.41148 4.17491 5.13077 4.17157C5.026 4.17038 4.92124 4.16958 4.81647 4.16909C4.66588 4.16826 4.51532 4.16644 4.36473 4.16442C4.29447 4.16435 4.29447 4.16435 4.22279 4.16428C3.89766 4.15856 3.89766 4.15856 3.74 4.06589C3.66668 3.97822 3.6452 3.94116 3.64741 3.82812C3.64666 3.78945 3.64666 3.78945 3.64589 3.74999C3.68672 3.62701 3.7603 3.58572 3.86714 3.51562C3.99451 3.49771 3.99451 3.49771 4.14067 3.49987C4.18083 3.50011 4.18083 3.50011 4.22179 3.50036C4.27971 3.50078 4.33762 3.50154 4.39552 3.50261C4.48756 3.50419 4.57954 3.50463 4.67159 3.50474C4.93319 3.5052 5.19475 3.50723 5.45632 3.51118C5.61664 3.51352 5.77689 3.51412 5.93722 3.51368C5.99792 3.51385 6.05863 3.51467 6.11931 3.51618C6.43644 3.52394 6.66851 3.51535 6.92666 3.30507C6.98842 3.24593 7.04943 3.18601 7.10933 3.12499C8.5062 1.97946 10.437 1.5915 12.1875 1.95312ZM6.78248 4.28191C6.69285 4.38891 6.6074 4.49791 6.52339 4.60937C6.49494 4.64698 6.46649 4.6846 6.43718 4.72335C6.0309 5.28474 5.72913 5.89414 5.54683 6.56249C5.53867 6.59085 5.53051 6.61922 5.52211 6.64844C5.14081 8.01618 5.40884 9.52046 6.0937 10.7422C6.83764 12.0406 8.04654 12.9508 9.4781 13.3656C10.9088 13.7233 12.3995 13.5365 13.6846 12.8001C14.0604 12.5634 14.4057 12.2999 14.7265 11.9922C14.7634 11.9582 14.8002 11.9243 14.8382 11.8893C15.3374 11.4204 15.7 10.8581 15.9765 10.2344C15.9875 10.2099 15.9984 10.1854 16.0097 10.1602C16.1997 9.73047 16.3304 9.28814 16.3972 8.82308C16.4045 8.77257 16.4045 8.77257 16.4119 8.72104C16.4209 8.65534 16.4293 8.58955 16.4369 8.52367C16.4665 8.30071 16.4665 8.30071 16.5574 8.20144C16.6893 8.14214 16.7777 8.16345 16.914 8.20312C17.0167 8.32321 17.0312 8.38866 17.031 8.54797C17.0246 8.60564 17.0173 8.66323 17.0092 8.7207C17.0032 8.76715 17.0032 8.76715 16.9971 8.81455C16.8976 9.53768 16.6892 10.2502 16.323 10.8848C16.2785 10.974 16.2785 10.974 16.3182 11.0524C16.3688 11.1356 16.4211 11.1939 16.4917 11.2608C16.5157 11.2841 16.5398 11.3074 16.5646 11.3314C16.6152 11.3796 16.6658 11.4277 16.7166 11.4757C16.8899 11.6439 16.9838 11.761 17.0019 12.0093C16.9922 12.1475 16.96 12.253 16.914 12.3828C17.0411 12.5109 17.1684 12.6388 17.2957 12.7667C17.3391 12.8102 17.3824 12.8538 17.4257 12.8974C17.4877 12.9599 17.5499 13.0223 17.6121 13.0847C17.6316 13.1044 17.651 13.124 17.671 13.1443C17.7174 13.1907 17.7648 13.2361 17.8125 13.2812C17.8253 13.2812 17.8382 13.2812 17.8515 13.2812C17.8515 10.6644 17.8515 8.04765 17.8515 5.35155C17.4003 5.35155 16.9492 5.35155 16.4843 5.35155C16.5617 5.5578 16.639 5.76405 16.7187 5.97655C16.7578 6.10217 16.7952 6.22567 16.8286 6.35253C16.8365 6.38128 16.8444 6.41004 16.8526 6.43966C17.0262 7.08027 17.0262 7.08027 16.914 7.30468C16.7907 7.36636 16.6573 7.37802 16.5234 7.34374C16.4288 7.23705 16.3887 7.15102 16.363 7.01171C16.3562 6.97745 16.3494 6.94319 16.3424 6.90789C16.3317 6.85294 16.3317 6.85294 16.3208 6.79687C16.1267 5.88347 15.7205 5.08384 15.1171 4.37499C15.0845 4.33632 15.0518 4.29765 15.0181 4.2578C14.7987 4.00742 14.5619 3.79476 14.2968 3.59374C14.2665 3.57058 14.2361 3.54742 14.2048 3.52355C11.9253 1.8588 8.68004 2.18395 6.78248 4.28191ZM15.7421 4.14062C15.7937 4.23085 15.8453 4.32109 15.8984 4.41405C15.9157 4.44507 15.933 4.47609 15.9509 4.50804C16.0262 4.62577 16.0828 4.71113 16.2198 4.75342C16.3252 4.76274 16.426 4.76176 16.5316 4.75707C16.5694 4.75663 16.6073 4.75619 16.6462 4.75573C16.7665 4.75399 16.8866 4.75007 17.0068 4.74609C17.0885 4.74452 17.1703 4.74309 17.252 4.74181C17.4519 4.73838 17.6517 4.73299 17.8515 4.72655C17.8515 4.5332 17.8515 4.33984 17.8515 4.14062C17.1554 4.14062 16.4593 4.14062 15.7421 4.14062ZM2.30464 7.14843C2.30464 7.72851 2.30464 8.30859 2.30464 8.90624C3.12964 8.90624 3.95464 8.90624 4.80464 8.90624C4.80464 8.32616 4.80464 7.74609 4.80464 7.14843C3.97964 7.14843 3.15464 7.14843 2.30464 7.14843ZM15.8984 11.6016C15.8448 11.6614 15.794 11.7238 15.7446 11.7871C15.4417 12.164 15.1295 12.5041 14.7511 12.8064C14.6356 12.8983 14.6356 12.8983 14.4921 13.0469C14.621 13.1758 14.75 13.3047 14.8828 13.4375C15.0159 13.3709 15.0783 13.3297 15.1787 13.2286C15.2052 13.202 15.2318 13.1754 15.2592 13.148C15.2875 13.1194 15.3157 13.0907 15.3448 13.0612C15.3741 13.0318 15.4033 13.0025 15.4335 12.9722C15.5268 12.8785 15.6198 12.7844 15.7128 12.6904C15.7761 12.6268 15.8394 12.5631 15.9027 12.4995C16.0577 12.3436 16.2125 12.1875 16.3671 12.0312C16.3299 11.9876 16.2927 11.944 16.2554 11.9005C16.2347 11.8762 16.214 11.8519 16.1926 11.8269C16.1239 11.7475 16.0549 11.6716 15.9765 11.6016C15.9507 11.6016 15.925 11.6016 15.8984 11.6016ZM16.3763 12.877C16.347 12.9065 16.3178 12.936 16.2876 12.9663C16.256 12.998 16.2244 13.0297 16.1919 13.0624C16.1587 13.096 16.1255 13.1295 16.0913 13.1641C16.0579 13.1976 16.0245 13.2311 15.9902 13.2657C15.9074 13.3489 15.8247 13.4322 15.7421 13.5156C15.7921 13.625 15.8439 13.7054 15.9287 13.7904C15.9507 13.8128 15.9728 13.8351 15.9955 13.8581C16.0317 13.8942 16.0317 13.8942 16.0686 13.931C16.0941 13.9566 16.1196 13.9823 16.1458 14.0088C16.2301 14.0936 16.3147 14.1782 16.3993 14.2627C16.4581 14.3216 16.5169 14.3806 16.5757 14.4396C16.699 14.5632 16.8225 14.6866 16.946 14.8099C17.104 14.9678 17.2616 15.126 17.4191 15.2844C17.5405 15.4063 17.6621 15.5279 17.7838 15.6495C17.842 15.7077 17.9001 15.766 17.9581 15.8244C18.0394 15.9063 18.1211 15.9877 18.2029 16.069C18.2266 16.0931 18.2503 16.1171 18.2748 16.1418C18.436 16.3011 18.6133 16.4671 18.8467 16.4966C19.0375 16.4688 19.1595 16.4347 19.2968 16.2891C19.3958 16.1203 19.4072 15.9724 19.375 15.7812C19.2468 15.5564 19.0533 15.3703 18.8708 15.1894C18.8449 15.1635 18.819 15.1375 18.7923 15.1108C18.7077 15.0261 18.6229 14.9416 18.538 14.8572C18.4789 14.7981 18.4197 14.739 18.3606 14.6798C18.2373 14.5565 18.1138 14.4334 17.9902 14.3103C17.8314 14.1522 17.6728 13.9938 17.5144 13.8353C17.3926 13.7135 17.2707 13.5918 17.1488 13.4702C17.0902 13.4118 17.0317 13.3533 16.9732 13.2949C16.8919 13.2136 16.8104 13.1325 16.7289 13.0514C16.7045 13.027 16.6802 13.0027 16.6552 12.9776C16.5263 12.8107 16.5263 12.8107 16.3763 12.877ZM7.73433 15.4687C7.71554 15.5247 7.69679 15.5807 7.67805 15.6368C7.6676 15.6679 7.65716 15.6991 7.6464 15.7313C7.61175 15.8367 7.58054 15.9427 7.55122 16.0498C7.53649 16.1028 7.53649 16.1028 7.52147 16.1569C7.49555 16.2531 7.49555 16.2531 7.49995 16.3672C8.63433 16.3672 9.7687 16.3672 10.9375 16.3672C10.8779 16.0287 10.8779 16.0287 10.7983 15.6982C10.7886 15.6627 10.7789 15.6271 10.7688 15.5905C10.7496 15.5093 10.7496 15.5093 10.7031 15.4687C10.6104 15.465 10.5188 15.4638 10.4261 15.4643C10.3972 15.4643 10.3682 15.4643 10.3384 15.4643C10.2422 15.4643 10.146 15.4646 10.0498 15.4649C9.98334 15.465 9.91684 15.4651 9.85034 15.4651C9.67495 15.4652 9.49958 15.4656 9.3242 15.4661C9.14537 15.4665 8.96654 15.4666 8.78772 15.4668C8.43659 15.4673 8.08546 15.4679 7.73433 15.4687ZM5.78608 17.2656C5.76282 17.2922 5.73956 17.3188 5.71559 17.3462C5.65302 17.4227 5.65302 17.4227 5.66401 17.5391C8.01011 17.5391 10.3562 17.5391 12.7734 17.5391C12.7345 17.3371 12.7345 17.3371 12.6098 17.1997C12.5875 17.177 12.5652 17.1543 12.5422 17.1309C12.3676 17.0008 12.1825 16.9824 11.97 16.982C11.9191 16.9817 11.8682 16.9814 11.8157 16.9812C11.7598 16.9812 11.7038 16.9813 11.6478 16.9815C11.5885 16.9813 11.5292 16.9811 11.4699 16.9808C11.3092 16.9803 11.1485 16.9803 10.9879 16.9804C10.8536 16.9804 10.7193 16.9803 10.5851 16.9801C10.2683 16.9796 9.95161 16.9796 9.63487 16.9798C9.30829 16.9801 8.98171 16.9796 8.65513 16.9788C8.37451 16.9781 8.09388 16.9778 7.81326 16.978C7.64575 16.978 7.47825 16.9779 7.31075 16.9774C7.15325 16.9769 6.99577 16.977 6.83828 16.9775C6.78055 16.9776 6.72282 16.9775 6.6651 16.9772C6.58616 16.9768 6.50723 16.9771 6.42829 16.9776C6.38416 16.9776 6.34004 16.9775 6.29457 16.9775C6.07542 17.0037 5.92713 17.1001 5.78608 17.2656Z" fill="white"/>
<path d="M14.2269 4.24456C15.1782 5.08259 15.7865 6.27224 15.8985 7.53908C15.9692 8.93354 15.6076 10.2322 14.6729 11.2915C14.6129 11.3561 14.5527 11.4203 14.4922 11.4844C14.4635 11.5161 14.4347 11.5478 14.4051 11.5805C13.5534 12.485 12.2934 12.951 11.071 13.0077C10.5703 13.014 10.0701 12.9614 9.58499 12.8369C9.55471 12.8292 9.52444 12.8216 9.49324 12.8136C9.32035 12.7651 9.19031 12.7106 9.06253 12.5781C9.02872 12.4706 9.03873 12.3752 9.06253 12.2656C9.12357 12.168 9.12357 12.168 9.21878 12.1094C9.4529 12.0904 9.65214 12.1447 9.87552 12.2046C11.0271 12.4931 12.1453 12.2782 13.1763 11.7041C13.7133 11.3775 14.2007 10.9268 14.5313 10.3906C14.5451 10.3687 14.5589 10.3467 14.5731 10.324C15.1762 9.35207 15.3968 8.19339 15.1548 7.06911C14.9936 6.38482 14.6943 5.71945 14.2188 5.19533C14.1773 5.14631 14.1773 5.14631 14.135 5.0963C13.4454 4.29559 12.3852 3.75753 11.3282 3.67189C10.1624 3.60354 9.00474 3.89654 8.10855 4.67333C8.07532 4.70379 8.04209 4.73426 8.00784 4.76564C7.97219 4.79812 7.93654 4.8306 7.89981 4.86406C7.07241 5.65333 6.61214 6.7358 6.56391 7.87584C6.53876 9.04245 6.98668 10.1803 7.78367 11.0267C7.92895 11.1702 8.08775 11.3005 8.24956 11.4248C8.38097 11.5304 8.4311 11.5783 8.47751 11.7461C8.47659 11.875 8.47659 11.875 8.41556 11.9873C8.29791 12.0899 8.24213 12.1125 8.08597 12.1094C7.87175 12.0033 7.70486 11.8701 7.53177 11.7066C7.50644 11.6826 7.4811 11.6587 7.455 11.6341C6.45894 10.6732 5.95095 9.42023 5.89847 8.04689C5.87471 6.71706 6.40594 5.4576 7.31788 4.50246C9.1885 2.59579 12.2138 2.52012 14.2269 4.24456Z" fill="white"/>
<path d="M13.9725 6.7406C14.3451 6.97368 14.607 7.28549 14.7122 7.71914C14.7744 8.12432 14.6888 8.52968 14.4458 8.86477C14.1828 9.1697 13.8584 9.33496 13.461 9.38739C13.0843 9.40628 12.7275 9.29928 12.4414 9.05276C12.1605 8.77507 11.9859 8.4876 11.9773 8.08345C11.9785 7.62993 12.0556 7.32893 12.3772 6.9913C12.7916 6.60931 13.4558 6.49097 13.9725 6.7406ZM12.7499 7.52704C12.6073 7.71783 12.5899 7.89975 12.6008 8.13403C12.6317 8.33845 12.7403 8.45141 12.8882 8.58401C13.087 8.73006 13.2286 8.77141 13.4765 8.75003C13.7212 8.66987 13.8577 8.55014 14.0137 8.34964C14.1053 8.14812 14.1293 7.94333 14.0649 7.72952C13.9845 7.54294 13.8361 7.41895 13.6719 7.30472C13.3135 7.18527 13.0068 7.25572 12.7499 7.52704Z" fill="white"/>
<path d="M8.78387 6.75031C8.91482 6.82346 9.00198 6.87685 9.10156 6.99216C9.13213 7.1118 9.12175 7.17748 9.10156 7.30466C9.04053 7.40232 9.04053 7.40232 8.94531 7.46091C8.74234 7.49155 8.64649 7.4488 8.47824 7.33945C8.31827 7.26971 8.13968 7.29354 7.96875 7.30466C7.96875 7.35623 7.96875 7.40779 7.96875 7.46091C8.0037 7.47557 8.03864 7.49022 8.07465 7.50532C8.19826 7.55763 8.32149 7.61067 8.44448 7.66441C8.50632 7.69125 8.56847 7.71737 8.63068 7.74335C8.86792 7.84964 9.01165 7.97561 9.14062 8.2031C9.20878 8.40756 9.22361 8.63732 9.14429 8.84077C8.99753 9.08772 8.79712 9.26418 8.52325 9.35529C8.18917 9.43198 7.85517 9.36772 7.55768 9.20331C7.40623 9.10652 7.2857 9.02033 7.1875 8.86716C7.16797 8.75242 7.16797 8.75242 7.1875 8.63279C7.28631 8.49506 7.34547 8.44523 7.51221 8.41062C7.65904 8.438 7.69715 8.4613 7.80762 8.55222C7.97002 8.6853 8.11045 8.72807 8.32031 8.71091C8.44115 8.67569 8.44115 8.67569 8.51562 8.59373C8.53195 8.49111 8.53195 8.49111 8.51562 8.39841C8.46781 8.38285 8.46781 8.38285 8.41904 8.36698C7.53487 8.06736 7.53487 8.06736 7.34375 7.73435C7.27035 7.51415 7.26948 7.27606 7.36084 7.06052C7.63949 6.56637 8.31803 6.52969 8.78387 6.75031Z" fill="white"/>
<path d="M10.299 6.61465C10.3486 6.6144 10.3982 6.61415 10.4493 6.61389C10.5008 6.61465 10.5524 6.6154 10.6054 6.61618C10.6827 6.61505 10.6827 6.61505 10.7615 6.61389C10.8359 6.61427 10.8359 6.61427 10.9118 6.61465C10.957 6.61487 11.0022 6.6151 11.0488 6.61532C11.2072 6.64787 11.2664 6.71221 11.3671 6.83591C11.3845 6.91922 11.3845 6.91922 11.372 6.99704C11.3689 7.02292 11.3658 7.0488 11.3626 7.07547C11.3085 7.18987 11.2486 7.21624 11.1328 7.26559C11.0175 7.27898 10.9044 7.27671 10.7885 7.27292C10.7577 7.27239 10.727 7.27186 10.6952 7.27132C10.6197 7.26994 10.5442 7.26784 10.4687 7.26559C10.4687 7.40739 10.4687 7.54919 10.4687 7.69528C10.5148 7.69347 10.561 7.69166 10.6085 7.68979C10.6693 7.68832 10.7301 7.6869 10.791 7.68552C10.8213 7.68421 10.8517 7.6829 10.883 7.68155C11.1081 7.6777 11.1081 7.6777 11.2312 7.76547C11.3152 7.89051 11.3074 7.97771 11.289 8.12497C11.2203 8.24938 11.1914 8.27469 11.0546 8.32028C10.9542 8.32303 10.8548 8.32394 10.7544 8.32272C10.7132 8.32246 10.7132 8.32246 10.6713 8.32219C10.6038 8.32173 10.5362 8.32103 10.4687 8.32028C10.4687 8.46208 10.4687 8.60388 10.4687 8.74997C10.5464 8.74657 10.5464 8.74657 10.6256 8.7431C10.6937 8.74127 10.7619 8.73949 10.83 8.73776C10.8641 8.73613 10.8982 8.73449 10.9333 8.7328C11.1858 8.72798 11.1858 8.72798 11.313 8.83954C11.3867 8.98335 11.3708 9.06501 11.3281 9.21872C11.2541 9.31968 11.2153 9.33445 11.0937 9.37497C10.9327 9.38512 10.7716 9.38401 10.6103 9.38474C10.5659 9.38554 10.5215 9.38635 10.4757 9.38718C10.4328 9.38738 10.3899 9.38758 10.3457 9.38779C10.3066 9.38815 10.2674 9.38852 10.2271 9.38889C10.0978 9.37251 10.0263 9.33483 9.92184 9.25778C9.83308 9.12464 9.83337 9.07536 9.83174 8.91883C9.83112 8.87332 9.83049 8.82782 9.82985 8.78094C9.82964 8.73175 9.82943 8.68255 9.82922 8.63187C9.82886 8.58134 9.82851 8.53081 9.82815 8.47876C9.8275 8.37178 9.8272 8.2648 9.82709 8.15781C9.82688 8.02098 9.82541 7.88418 9.82362 7.74736C9.82218 7.61658 9.82213 7.4858 9.82189 7.35501C9.82113 7.30597 9.82037 7.25694 9.81958 7.20642C9.82132 6.87066 9.82132 6.87066 9.92648 6.70743C10.061 6.62755 10.143 6.61542 10.299 6.61465Z" fill="white"/>
<path d="M2.13532 13.0003C2.16207 13 2.18881 12.9996 2.21637 12.9993C2.30505 12.9983 2.39373 12.9977 2.48241 12.9971C2.51269 12.9969 2.54297 12.9967 2.57417 12.9965C2.73447 12.9955 2.89476 12.9947 3.05506 12.9941C3.22058 12.9935 3.38606 12.9917 3.55156 12.9898C3.67887 12.9884 3.80618 12.988 3.93349 12.9878C3.9945 12.9875 4.0555 12.9869 4.1165 12.986C4.20198 12.9847 4.28738 12.9847 4.37287 12.985C4.44577 12.9846 4.44577 12.9846 4.52014 12.9841C4.68401 13.0144 4.74159 13.0741 4.8437 13.2031C4.86812 13.3203 4.86812 13.3203 4.8437 13.4375C4.74178 13.5661 4.68401 13.6261 4.52067 13.6568C4.44812 13.6565 4.44812 13.6565 4.37411 13.6562C4.33386 13.6565 4.33386 13.6565 4.29281 13.6567C4.20455 13.657 4.11637 13.6558 4.02812 13.6546C3.96659 13.6545 3.90507 13.6544 3.84354 13.6544C3.71478 13.6541 3.58605 13.6532 3.4573 13.6518C3.29236 13.6501 3.12745 13.6495 2.9625 13.6494C2.83553 13.6492 2.70856 13.6486 2.58159 13.6478C2.52077 13.6475 2.45995 13.6472 2.39913 13.647C2.31414 13.6467 2.22917 13.6458 2.14419 13.6448C2.09585 13.6444 2.04752 13.644 1.99772 13.6435C1.88119 13.6334 1.81468 13.6197 1.7187 13.5547C1.65668 13.4307 1.66359 13.2992 1.67964 13.1641C1.80024 12.9941 1.93833 13.0023 2.13532 13.0003Z" fill="white"/>
</g>
<defs>
<clipPath id="clip0_24_6">
<rect width="20" height="20" fill="white"/>
</clipPath>
</defs>
</svg>
