<svg width="20" height="20" viewBox="0 0 20 20" fill="none" xmlns="http://www.w3.org/2000/svg">
<path d="M2.63365 4.0017C2.69874 4.00152 2.76382 4.00127 2.82891 4.00096C3.00699 4.00031 3.18506 4.00063 3.36315 4.00112C3.5555 4.00147 3.74785 4.00092 3.9402 4.00049C4.31671 3.9998 4.69322 3.99995 5.06973 4.0004C5.37578 4.00075 5.68182 4.0008 5.98786 4.00063C6.03145 4.00061 6.07503 4.00058 6.11993 4.00056C6.20848 4.00051 6.29702 4.00046 6.38557 4.00041C7.21554 3.99996 8.04551 4.00047 8.87548 4.00131C9.58739 4.00201 10.2993 4.00189 11.0112 4.00117C11.8382 4.00033 12.6653 4.00001 13.4923 4.00048C13.5805 4.00053 13.6687 4.00058 13.7569 4.00063C13.822 4.00067 13.822 4.00067 13.8885 4.00071C14.1941 4.00084 14.4997 4.00061 14.8053 4.00024C15.1779 3.99981 15.5504 3.99993 15.9229 4.00076C16.1129 4.00117 16.3029 4.00133 16.4929 4.00081C16.667 4.00035 16.841 4.0006 17.0151 4.00143C17.0779 4.00161 17.1408 4.00152 17.2036 4.00114C17.6441 3.99868 18.1144 4.11419 18.4547 4.41598C18.4229 4.38895 18.4856 4.44221 18.4547 4.41598C18.7448 6.98785 18.4547 10.1877 18.7448 13.5528C19.0349 16.9179 7.03323 13.5528 0.999986 13.5528C0.999986 4.73845 0.999986 4.73845 1.40598 4.31451C1.76218 4.00407 2.18298 3.99897 2.63365 4.0017ZM11.6152 6.67779C11.5442 6.77539 11.4912 6.88046 11.437 6.98785C11.42 7.02047 11.4031 7.05308 11.3857 7.08669C11.2222 7.40566 11.0712 7.73044 10.9201 8.05527C10.7292 8.46514 10.5292 8.87043 10.3279 9.27545C10.0792 9.77617 9.83455 10.2783 9.59893 10.7852C9.49614 11.0062 9.39038 11.2245 9.27608 11.44C9.22451 11.5524 9.21529 11.6349 9.23866 11.7559C9.2996 11.8795 9.33915 11.9059 9.47136 11.9512C9.636 11.9512 9.6757 11.907 9.79319 11.795C9.8517 11.6974 9.90202 11.6042 9.95038 11.502C9.96452 11.4731 9.97865 11.4443 9.99322 11.4145C10.0392 11.3202 10.0846 11.2256 10.1299 11.1309C10.162 11.0648 10.1941 10.9986 10.2263 10.9325C10.4282 10.5165 10.6256 10.0985 10.8209 9.67943C11.0548 9.17953 11.3011 8.68563 11.5469 8.19132C11.6071 8.06985 11.6671 7.94821 11.727 7.82658C11.7762 7.72731 11.826 7.62836 11.8758 7.5294C11.9088 7.46288 11.9418 7.39634 11.9748 7.3298C11.9904 7.29922 12.006 7.26864 12.022 7.23714C12.1034 7.07136 12.1562 6.94454 12.1301 6.75592C12.059 6.66322 12.0006 6.61349 11.8949 6.56305C11.7688 6.55928 11.7158 6.60295 11.6152 6.67779ZM3.41614 7.65435C3.38605 7.76382 3.38605 7.76382 3.38988 7.88697C3.38913 7.93394 3.38838 7.9809 3.3876 8.02929C3.38788 8.07998 3.38816 8.13068 3.38844 8.18292C3.38821 8.23587 3.38792 8.28882 3.38758 8.34178C3.38711 8.4529 3.38738 8.564 3.38814 8.67513C3.38904 8.81629 3.38799 8.95736 3.38636 9.09851C3.38533 9.20804 3.38545 9.31755 3.38588 9.42709C3.38596 9.50402 3.38506 9.58095 3.38413 9.65788C3.38945 10.0682 3.49947 10.4091 3.80232 10.7012C4.1726 10.982 4.54877 11.0116 5.0005 10.9747C5.32238 10.9234 5.59502 10.7432 5.78726 10.4849C5.93463 10.2497 5.99513 10.0801 5.99773 9.80317C5.99824 9.75598 5.99875 9.70879 5.99927 9.66017C5.99957 9.60935 5.99986 9.55852 6.00016 9.50616C6.00032 9.48021 6.00048 9.45426 6.00065 9.42752C6.00147 9.29032 6.00204 9.15312 6.00241 9.01591C6.00285 8.87431 6.00422 8.73273 6.00579 8.59113C6.00682 8.48209 6.00715 8.37305 6.0073 8.264C6.00758 8.18644 6.00863 8.10889 6.00969 8.03135C6.00957 7.98416 6.00946 7.93697 6.00934 7.88835C6.00969 7.82608 6.00968 7.82608 6.01004 7.76255C5.98582 7.62691 5.94195 7.58094 5.83229 7.4981C5.69554 7.47844 5.62363 7.48187 5.50304 7.54937C5.3826 7.66814 5.39153 7.79087 5.39097 7.95004C5.39069 7.99463 5.39041 8.03923 5.39012 8.08517C5.38996 8.13339 5.38979 8.18161 5.38962 8.23129C5.3887 8.33309 5.38775 8.43489 5.38676 8.53669C5.38532 8.69742 5.38414 8.85815 5.38368 9.01888C5.3832 9.17384 5.38147 9.32878 5.37972 9.48373C5.3798 9.53171 5.37987 9.57969 5.37995 9.62913C5.37387 10.0474 5.37387 10.0474 5.19854 10.2325C4.97609 10.3739 4.75871 10.4092 4.50043 10.3619C4.31868 10.3164 4.18686 10.2457 4.08505 10.0847C4.04172 9.97802 4.03964 9.894 4.03914 9.77907C4.03853 9.71317 4.03853 9.71317 4.03791 9.64594C4.03783 9.59865 4.03774 9.55137 4.03766 9.50265C4.03666 9.40258 4.03565 9.30251 4.03464 9.20243C4.03342 9.04462 4.03254 8.8868 4.03181 8.72898C4.03106 8.57671 4.02939 8.42445 4.02775 8.27218C4.02775 8.22498 4.02775 8.17777 4.02774 8.12914C4.02721 8.08508 4.02668 8.04102 4.02614 7.99563C4.02594 7.95698 4.02574 7.91833 4.02553 7.87851C4.00229 7.71561 3.92856 7.61283 3.81223 7.4981C3.62845 7.46871 3.54507 7.52852 3.41614 7.65435ZM6.48583 7.58111C6.40984 7.72476 6.42318 7.77242 6.46603 7.92779C6.5226 8.03391 6.59009 8.13136 6.65912 8.22992C6.67832 8.25801 6.69751 8.28611 6.71728 8.31505C6.77838 8.40433 6.84003 8.49321 6.90173 8.58209C6.96329 8.6716 7.02474 8.76119 7.08618 8.8508C7.12438 8.90643 7.16268 8.96199 7.2011 9.01748C7.33328 9.20867 7.33328 9.20867 7.37704 9.29498C7.36372 9.31301 7.3504 9.33103 7.33668 9.34961C7.20156 9.53274 7.06729 9.71646 6.93347 9.90052C6.86607 9.9927 6.79787 10.0842 6.72952 10.1757C6.68952 10.2304 6.64954 10.2851 6.60961 10.3399C6.59053 10.365 6.57144 10.3901 6.55177 10.4159C6.4652 10.5363 6.4256 10.6038 6.43199 10.7534C6.47546 10.8898 6.47546 10.8898 6.58486 10.9747C6.71487 11.0139 6.71487 11.0139 6.86212 10.9747C7.12303 10.7734 7.30458 10.4547 7.49094 10.1877C7.51039 10.1599 7.52983 10.1321 7.54986 10.1034C7.56714 10.0784 7.58441 10.0535 7.60221 10.0277C7.65425 9.95911 7.71022 9.90081 7.77313 9.84185C7.78988 9.86645 7.80663 9.89106 7.82389 9.9164C7.90086 10.0292 7.9781 10.1418 8.05534 10.2545C8.08169 10.2931 8.10803 10.3318 8.13518 10.3717C8.36989 10.7658 8.36989 10.7658 8.72869 10.9991C8.85529 10.9719 8.91424 10.9526 9.00101 10.8575C9.03948 10.7231 9.0532 10.6511 8.99506 10.5218C8.97175 10.4887 8.94844 10.4555 8.92442 10.4214C8.89874 10.3842 8.87307 10.347 8.84661 10.3087C8.8054 10.2517 8.8054 10.2517 8.76335 10.1934C8.73695 10.1565 8.71054 10.1195 8.68334 10.0815C8.52277 9.85777 8.52277 9.85777 8.35991 9.63571C8.3341 9.5995 8.30829 9.5633 8.2817 9.526C8.25816 9.49375 8.23462 9.46151 8.21036 9.42828C8.16922 9.33404 8.16922 9.33404 8.19577 9.23275C8.24148 9.15114 8.28686 9.07833 8.34483 9.00491C8.36381 8.98053 8.38279 8.95615 8.40235 8.93104C8.42263 8.90531 8.44291 8.87959 8.46381 8.85308C8.636 8.62977 8.80671 8.40565 8.9713 8.17681C8.99021 8.15142 9.00913 8.12603 9.02861 8.09986C9.13672 7.94772 9.18836 7.84671 9.15944 7.65435C9.07662 7.53497 9.02901 7.50339 8.88465 7.47613C8.60987 7.52591 8.44228 7.84967 8.28804 8.05963C8.26415 8.09185 8.24025 8.12408 8.21563 8.15728C8.08204 8.33736 8.08204 8.33736 7.95214 8.52002C7.90743 8.58425 7.86033 8.64685 7.81274 8.70904C7.78659 8.70904 7.76045 8.70904 7.73352 8.70904C7.67787 8.63606 7.62583 8.5604 7.57539 8.48382C7.56005 8.46078 7.54472 8.43774 7.52892 8.41401C7.47968 8.33999 7.4308 8.26575 7.38199 8.19146C7.33343 8.11775 7.28478 8.0441 7.23591 7.97059C7.20547 7.92481 7.17522 7.8789 7.14518 7.83286C7.06182 7.70727 6.97898 7.59499 6.86212 7.4981C6.6913 7.47103 6.61933 7.46921 6.48583 7.58111ZM12.5684 7.61994C12.4706 7.79017 12.5001 8.00455 12.5027 8.19436C12.5027 8.24345 12.5027 8.29253 12.5027 8.3431C12.5029 8.44699 12.5035 8.5508 12.5047 8.65467C12.5063 8.78675 12.5065 8.91879 12.5062 9.05088C12.506 9.17797 12.5069 9.30506 12.5076 9.43216C12.5076 9.47908 12.5077 9.52601 12.5077 9.57436C12.5135 9.98536 12.5725 10.3645 12.8827 10.6622C13.2857 10.953 13.6636 11.0118 14.1502 10.9747C14.5036 10.8985 14.7768 10.6842 14.977 10.3912C15.1666 10.0936 15.1531 9.74768 15.1537 9.40927C15.154 9.36075 15.1542 9.31224 15.1545 9.26225C15.1549 9.16012 15.1551 9.05798 15.1551 8.95584C15.1551 8.85131 15.1556 8.7468 15.1567 8.64227C15.1582 8.49103 15.1585 8.33982 15.1587 8.18856C15.1592 8.14185 15.1598 8.09513 15.1604 8.047C15.1607 7.79577 15.1607 7.79577 15.0687 7.56619C14.9819 7.48662 14.9819 7.48662 14.8433 7.47613C14.682 7.5017 14.6451 7.52962 14.5463 7.65435C14.5228 7.75952 14.5228 7.75952 14.5265 7.87635C14.5261 7.92094 14.5257 7.96553 14.5253 8.01147C14.5256 8.05949 14.526 8.10751 14.5263 8.15698C14.5259 8.20649 14.5256 8.256 14.5252 8.30701C14.5242 8.43858 14.5239 8.57011 14.524 8.70168C14.524 8.8867 14.5237 9.0717 14.5224 9.25672C14.5217 9.35514 14.5216 9.45358 14.5221 9.552C14.5207 9.78364 14.5184 9.9534 14.3878 10.1544C14.3878 10.1801 14.3878 10.2059 14.3878 10.2325C14.0809 10.3737 13.7971 10.423 13.4768 10.3106C13.3521 10.256 13.2933 10.2137 13.2148 10.1039C13.1325 9.88646 13.1449 9.67763 13.1466 9.44741C13.1462 9.34582 13.1456 9.24422 13.1451 9.14262C13.1448 8.98283 13.1451 8.82304 13.1457 8.66326C13.1462 8.50878 13.1452 8.35433 13.1442 8.19986C13.1447 8.15204 13.1452 8.10423 13.1458 8.05496C13.1528 7.78826 13.1528 7.78826 13.026 7.56563C12.9282 7.49382 12.9282 7.49382 12.8233 7.47369C12.7138 7.50068 12.6464 7.53918 12.5684 7.61994ZM15.7741 7.65435C15.7273 7.79288 15.7289 7.9038 15.7282 8.05006C15.728 8.07828 15.7278 8.10649 15.7276 8.13556C15.727 8.22891 15.7267 8.32226 15.7265 8.41561C15.7263 8.48057 15.726 8.54553 15.7258 8.61048C15.7254 8.74672 15.7252 8.88296 15.725 9.0192C15.7248 9.19351 15.7239 9.3678 15.7227 9.5421C15.722 9.67631 15.7218 9.81052 15.7217 9.94474C15.7216 10.009 15.7213 10.0732 15.7208 10.1375C15.7201 10.2275 15.7202 10.3175 15.7204 10.4075C15.7203 10.4587 15.7201 10.5099 15.72 10.5626C15.7358 10.7129 15.7732 10.8077 15.8534 10.9356C15.9659 10.9911 16.0457 10.987 16.1702 10.9747C16.2621 10.9172 16.2621 10.9172 16.3287 10.8184C16.3443 10.7113 16.3504 10.6198 16.3492 10.5127C16.3495 10.4821 16.3497 10.4514 16.35 10.4199C16.3507 10.3187 16.3502 10.2176 16.3497 10.1165C16.3498 10.0462 16.35 9.97583 16.3502 9.90549C16.3504 9.75811 16.3501 9.61075 16.3493 9.46338C16.3484 9.27448 16.3489 9.08562 16.3499 8.89672C16.3505 8.75148 16.3503 8.60625 16.3499 8.46101C16.3498 8.39137 16.3499 8.32172 16.3503 8.25207C16.3507 8.15471 16.3501 8.05742 16.3492 7.96006C16.3497 7.9169 16.3497 7.91689 16.3501 7.87285C16.3479 7.73925 16.3379 7.66652 16.2556 7.55834C16.1712 7.48942 16.1712 7.48942 16.0514 7.47857C15.9068 7.50234 15.8626 7.54122 15.7741 7.65435Z" fill="white"/>
<path d="M1.01767 13C6.79267 13 12.5677 13 18.5177 13C18.5177 14.4367 18.5177 14.4367 18.1737 14.8037C17.8757 15.0514 17.547 15.1534 17.1661 15.1531C17.1408 15.1532 17.1154 15.1532 17.0892 15.1532C17.0046 15.1533 16.9199 15.1531 16.8352 15.1529C16.7744 15.1529 16.7135 15.1529 16.6527 15.1529C16.4877 15.1529 16.3228 15.1527 16.1578 15.1524C15.9854 15.1522 15.8129 15.1521 15.6405 15.1521C15.314 15.152 14.9875 15.1516 14.661 15.1513C14.2893 15.1508 13.9175 15.1506 13.5458 15.1504C12.7812 15.15 12.0166 15.1493 11.252 15.1484C11.2817 15.2476 11.3116 15.3467 11.3418 15.4457C11.35 15.4734 11.3583 15.5012 11.3668 15.5298C11.6553 16.4712 12.4952 17.227 13.2413 17.826C13.2783 17.8564 13.2783 17.8564 13.3161 17.8874C13.3387 17.9056 13.3612 17.9238 13.3844 17.9426C13.4395 18 13.4395 18 13.4835 18.1392C13.4781 18.2876 13.453 18.3534 13.3614 18.4688C13.2447 18.5271 13.1385 18.5133 13.0083 18.5138C12.9653 18.5141 12.9653 18.5141 12.9215 18.5143C12.825 18.5149 12.7285 18.5151 12.6321 18.5153C12.5631 18.5157 12.4941 18.516 12.4252 18.5163C12.1983 18.5173 11.9714 18.5179 11.7444 18.5185C11.6664 18.5187 11.5884 18.5189 11.5103 18.5191C11.1858 18.52 10.8613 18.5207 10.5367 18.5211C10.0712 18.5218 9.60569 18.5231 9.14018 18.5253C8.81308 18.5268 8.48598 18.5276 8.15888 18.5278C7.9634 18.5279 7.76794 18.5284 7.57246 18.5297C7.38858 18.5308 7.20472 18.5311 7.02084 18.5306C6.95333 18.5306 6.88582 18.5309 6.81832 18.5316C6.72617 18.5325 6.63409 18.5322 6.54194 18.5316C6.5152 18.5321 6.48847 18.5326 6.46092 18.5332C6.31318 18.5307 6.2545 18.5098 6.1381 18.4155C6.05673 18.3125 6.05673 18.3125 6.02743 18.2026C6.09067 17.9339 6.32135 17.7693 6.52975 17.6042C7.22568 17.039 8.12633 16.237 8.32501 15.317C8.33187 15.2854 8.33874 15.2539 8.34582 15.2213C8.35354 15.1852 8.35354 15.1852 8.36142 15.1484C8.31364 15.1486 8.31364 15.1486 8.2649 15.1488C7.48892 15.1514 6.71294 15.1533 5.93696 15.1545C5.5617 15.1551 5.18644 15.1559 4.81117 15.1573C4.48399 15.1584 4.15681 15.1592 3.82963 15.1595C3.65648 15.1596 3.48334 15.16 3.31019 15.1608C3.147 15.1616 2.98381 15.1619 2.82061 15.1617C2.76093 15.1617 2.70125 15.162 2.64158 15.1624C2.15797 15.1659 1.74898 15.1191 1.36923 14.7969C0.880747 14.2817 1.01767 13.7311 1.01767 13ZM8.75204 13.4688C8.69656 13.5797 8.70069 13.6584 8.71298 13.7812C8.80017 13.8925 8.85165 13.9316 8.98642 13.9766C9.0965 13.9813 9.20559 13.9839 9.3157 13.9845C9.34802 13.9847 9.38034 13.9849 9.41364 13.9852C9.482 13.9855 9.55036 13.9858 9.61872 13.9859C9.72306 13.9863 9.82737 13.9875 9.9317 13.9888C9.99818 13.989 10.0647 13.9892 10.1311 13.9894C10.1622 13.9899 10.1933 13.9903 10.2254 13.9908C10.4507 13.9899 10.581 13.9444 10.7442 13.7812C10.7638 13.6674 10.7638 13.6674 10.7442 13.5469C10.657 13.4356 10.6056 13.3965 10.4708 13.3516C10.3612 13.3468 10.2525 13.3442 10.1429 13.3436C10.1107 13.3434 10.0784 13.3432 10.0452 13.343C9.97703 13.3426 9.90883 13.3423 9.84063 13.3422C9.73672 13.3418 9.63285 13.3406 9.52894 13.3394C9.46259 13.3391 9.39624 13.3389 9.32989 13.3387C9.299 13.3383 9.26811 13.3378 9.23628 13.3373C9.0465 13.338 8.91656 13.3637 8.75204 13.4688Z" fill="white"/>
</svg>
