<svg width="340" height="239" viewBox="0 0 340 239" fill="none" xmlns="http://www.w3.org/2000/svg">
<g id="Frame 1" clip-path="url(#clip0_4_2)">
<rect width="340" height="239" fill="white"/>
<path id="Vector 2" d="M170.722 30.5C303.222 71.5 342.722 30.5 342.722 30.5V-9H170.722H8.22222C8.22222 -9 -19.2778 48.5 8.22222 30.5C35.7222 12.5 38.2222 -10.5 170.722 30.5Z" fill="#382CB8" fill-opacity="0.8"/>
<path id="Vector 2_2" d="M172 30.5C39.5 71.5 0 30.5 0 30.5V-9H172H334.5C334.5 -9 362 48.5 334.5 30.5C307 12.5 304.5 -10.5 172 30.5Z" fill="#382CB8" fill-opacity="0.9"/>
<path id="Vector 3" d="M26.7713 136.906C55.032 227.218 24.7367 253.466 24.7367 253.466L-4 252.964L-1.96544 136.405L-0.0432562 26.2827C-0.0432562 26.2827 42.114 8.37684 28.6935 26.7843C15.273 45.1917 -1.48939 46.5938 26.7713 136.906Z" fill="#382CB8" fill-opacity="0.96"/>
<path id="Vector 2_3" d="M28.7367 4.23139C28.7367 4.23139 44.8385 36.2794 16.5778 126.592C9.49201 149.236 5.23661 166.29 3.04926 179.425L3.6781 215.451C6.97902 224.513 13.0183 229.195 18.5 236.714C31.9205 255.121 3.95674 231.415 3.95674 231.415L3.6781 215.451C0.923868 207.89 0.0760636 197.279 3.04926 179.425L2.03456 121.293L2.07491e-06 4.73299L28.7367 4.23139Z" fill="#382CB8" fill-opacity="0.9"/>
<path id="Quick Setup" d="M131.989 176.136H133.631L135.007 177.947L135.369 178.43L137.422 181.159H135.78L134.428 179.348L134.089 178.889L131.989 176.136ZM137.929 173.818C137.929 175.122 137.694 176.249 137.223 177.199C136.752 178.149 136.106 178.881 135.285 179.396C134.464 179.911 133.526 180.169 132.472 180.169C131.417 180.169 130.479 179.911 129.658 179.396C128.837 178.881 128.191 178.149 127.721 177.199C127.25 176.249 127.014 175.122 127.014 173.818C127.014 172.514 127.25 171.387 127.721 170.438C128.191 169.488 128.837 168.755 129.658 168.24C130.479 167.725 131.417 167.467 132.472 167.467C133.526 167.467 134.464 167.725 135.285 168.24C136.106 168.755 136.752 169.488 137.223 170.438C137.694 171.387 137.929 172.514 137.929 173.818ZM136.48 173.818C136.48 172.748 136.301 171.844 135.943 171.108C135.589 170.371 135.108 169.814 134.5 169.435C133.896 169.057 133.22 168.868 132.472 168.868C131.723 168.868 131.045 169.057 130.437 169.435C129.833 169.814 129.353 170.371 128.994 171.108C128.64 171.844 128.463 172.748 128.463 173.818C128.463 174.889 128.64 175.792 128.994 176.529C129.353 177.265 129.833 177.823 130.437 178.201C131.045 178.579 131.723 178.768 132.472 178.768C133.22 178.768 133.896 178.579 134.5 178.201C135.108 177.823 135.589 177.265 135.943 176.529C136.301 175.792 136.48 174.889 136.48 173.818ZM146.097 176.209V170.727H147.522V180H146.097V178.43H146C145.783 178.901 145.445 179.302 144.986 179.632C144.527 179.958 143.948 180.121 143.248 180.121C142.668 180.121 142.153 179.994 141.702 179.74C141.251 179.483 140.897 179.096 140.64 178.581C140.382 178.062 140.253 177.408 140.253 176.619V170.727H141.678V176.523C141.678 177.199 141.867 177.738 142.245 178.141C142.628 178.543 143.115 178.744 143.706 178.744C144.06 178.744 144.421 178.654 144.787 178.473C145.157 178.292 145.467 178.014 145.717 177.64C145.97 177.265 146.097 176.788 146.097 176.209ZM150.131 180V170.727H151.556V180H150.131ZM150.856 169.182C150.578 169.182 150.338 169.087 150.137 168.898C149.94 168.709 149.841 168.482 149.841 168.216C149.841 167.95 149.94 167.723 150.137 167.534C150.338 167.345 150.578 167.25 150.856 167.25C151.133 167.25 151.371 167.345 151.568 167.534C151.769 167.723 151.87 167.95 151.87 168.216C151.87 168.482 151.769 168.709 151.568 168.898C151.371 169.087 151.133 169.182 150.856 169.182ZM157.932 180.193C157.063 180.193 156.314 179.988 155.687 179.577C155.059 179.167 154.576 178.601 154.238 177.881C153.9 177.161 153.731 176.338 153.731 175.412C153.731 174.47 153.904 173.639 154.25 172.919C154.6 172.194 155.087 171.629 155.711 171.222C156.339 170.812 157.071 170.607 157.908 170.607C158.56 170.607 159.148 170.727 159.671 170.969C160.194 171.21 160.623 171.548 160.957 171.983C161.291 172.418 161.498 172.925 161.579 173.504H160.154C160.045 173.082 159.804 172.707 159.43 172.381C159.059 172.051 158.56 171.886 157.932 171.886C157.377 171.886 156.89 172.031 156.471 172.321C156.057 172.607 155.733 173.011 155.499 173.534C155.27 174.054 155.155 174.663 155.155 175.364C155.155 176.08 155.268 176.704 155.493 177.235C155.723 177.766 156.045 178.179 156.459 178.473C156.878 178.766 157.369 178.913 157.932 178.913C158.303 178.913 158.639 178.849 158.941 178.72C159.242 178.591 159.498 178.406 159.707 178.165C159.916 177.923 160.065 177.634 160.154 177.295H161.579C161.498 177.843 161.299 178.336 160.981 178.775C160.667 179.209 160.251 179.555 159.731 179.813C159.216 180.066 158.617 180.193 157.932 180.193ZM164.99 176.619L164.965 174.857H165.255L169.312 170.727H171.075L166.752 175.098H166.632L164.99 176.619ZM163.661 180V167.636H165.086V180H163.661ZM169.553 180L165.931 175.412L166.945 174.422L171.365 180H169.553ZM184.644 170.727C184.572 170.116 184.278 169.641 183.763 169.303C183.248 168.964 182.616 168.795 181.867 168.795C181.32 168.795 180.841 168.884 180.43 169.061C180.024 169.238 179.706 169.482 179.477 169.792C179.251 170.101 179.139 170.454 179.139 170.848C179.139 171.178 179.217 171.462 179.374 171.699C179.535 171.933 179.74 172.128 179.99 172.285C180.239 172.438 180.501 172.565 180.775 172.665C181.048 172.762 181.3 172.84 181.529 172.901L182.785 173.239C183.107 173.323 183.465 173.44 183.859 173.589C184.258 173.738 184.638 173.941 185 174.199C185.367 174.452 185.669 174.778 185.906 175.176C186.143 175.575 186.262 176.064 186.262 176.643C186.262 177.312 186.087 177.915 185.737 178.455C185.391 178.994 184.884 179.422 184.216 179.74C183.552 180.058 182.745 180.217 181.795 180.217C180.909 180.217 180.143 180.074 179.495 179.789C178.851 179.503 178.344 179.105 177.973 178.593C177.607 178.082 177.4 177.489 177.352 176.812H178.897C178.937 177.279 179.094 177.666 179.368 177.972C179.646 178.273 179.996 178.499 180.418 178.648C180.845 178.793 181.304 178.865 181.795 178.865C182.366 178.865 182.879 178.772 183.334 178.587C183.789 178.398 184.149 178.137 184.415 177.803C184.68 177.464 184.813 177.07 184.813 176.619C184.813 176.209 184.699 175.875 184.469 175.617C184.24 175.36 183.938 175.15 183.564 174.989C183.189 174.828 182.785 174.687 182.35 174.567L180.829 174.132C179.863 173.854 179.098 173.458 178.535 172.943C177.971 172.428 177.69 171.754 177.69 170.92C177.69 170.228 177.877 169.625 178.251 169.109C178.629 168.59 179.137 168.188 179.772 167.902C180.412 167.612 181.127 167.467 181.916 167.467C182.712 167.467 183.421 167.61 184.041 167.896C184.66 168.178 185.151 168.564 185.514 169.055C185.88 169.546 186.073 170.103 186.093 170.727H184.644ZM192.418 180.193C191.525 180.193 190.754 179.996 190.106 179.602C189.462 179.203 188.965 178.648 188.615 177.935C188.269 177.219 188.096 176.386 188.096 175.436C188.096 174.486 188.269 173.649 188.615 172.925C188.965 172.196 189.452 171.629 190.076 171.222C190.704 170.812 191.436 170.607 192.273 170.607C192.756 170.607 193.233 170.687 193.704 170.848C194.175 171.009 194.604 171.271 194.99 171.633C195.376 171.991 195.684 172.466 195.914 173.058C196.143 173.649 196.258 174.378 196.258 175.243V175.847H189.11V174.615H194.809C194.809 174.092 194.704 173.625 194.495 173.214C194.29 172.804 193.996 172.48 193.614 172.243C193.235 172.005 192.789 171.886 192.273 171.886C191.706 171.886 191.215 172.027 190.8 172.309C190.39 172.587 190.074 172.949 189.853 173.396C189.631 173.842 189.521 174.321 189.521 174.832V175.653C189.521 176.354 189.641 176.947 189.883 177.434C190.128 177.917 190.468 178.286 190.903 178.539C191.338 178.789 191.843 178.913 192.418 178.913C192.793 178.913 193.131 178.861 193.433 178.756C193.738 178.648 194.002 178.487 194.223 178.273C194.445 178.056 194.616 177.786 194.737 177.464L196.113 177.851C195.968 178.318 195.725 178.728 195.382 179.082C195.04 179.433 194.618 179.706 194.115 179.903C193.612 180.097 193.046 180.193 192.418 180.193ZM202.458 170.727V171.935H197.652V170.727H202.458ZM199.053 168.506H200.478V177.344C200.478 177.746 200.536 178.048 200.653 178.249C200.773 178.446 200.926 178.579 201.112 178.648C201.301 178.712 201.5 178.744 201.709 178.744C201.866 178.744 201.995 178.736 202.096 178.72C202.196 178.7 202.277 178.684 202.337 178.672L202.627 179.952C202.53 179.988 202.395 180.024 202.222 180.06C202.049 180.101 201.83 180.121 201.564 180.121C201.162 180.121 200.767 180.034 200.381 179.861C199.999 179.688 199.681 179.424 199.427 179.07C199.178 178.716 199.053 178.269 199.053 177.73V168.506ZM210.445 176.209V170.727H211.869V180H210.445V178.43H210.348C210.131 178.901 209.793 179.302 209.334 179.632C208.875 179.958 208.295 180.121 207.595 180.121C207.016 180.121 206.5 179.994 206.05 179.74C205.599 179.483 205.245 179.096 204.987 178.581C204.73 178.062 204.601 177.408 204.601 176.619V170.727H206.026V176.523C206.026 177.199 206.215 177.738 206.593 178.141C206.975 178.543 207.462 178.744 208.054 178.744C208.408 178.744 208.768 178.654 209.135 178.473C209.505 178.292 209.815 178.014 210.064 177.64C210.318 177.265 210.445 176.788 210.445 176.209ZM214.479 183.477V170.727H215.855V172.2H216.024C216.129 172.039 216.274 171.834 216.459 171.585C216.648 171.331 216.918 171.106 217.268 170.908C217.622 170.707 218.101 170.607 218.705 170.607C219.485 170.607 220.174 170.802 220.769 171.192C221.365 171.583 221.83 172.136 222.164 172.852C222.498 173.569 222.665 174.414 222.665 175.388C222.665 176.37 222.498 177.221 222.164 177.941C221.83 178.658 221.367 179.213 220.775 179.608C220.184 179.998 219.502 180.193 218.729 180.193C218.133 180.193 217.656 180.095 217.298 179.897C216.94 179.696 216.664 179.469 216.471 179.215C216.278 178.958 216.129 178.744 216.024 178.575H215.903V183.477H214.479ZM215.879 175.364C215.879 176.064 215.982 176.682 216.187 177.217C216.392 177.748 216.692 178.165 217.087 178.467C217.481 178.764 217.964 178.913 218.536 178.913C219.131 178.913 219.628 178.756 220.027 178.442C220.429 178.125 220.731 177.698 220.932 177.163C221.138 176.623 221.24 176.024 221.24 175.364C221.24 174.712 221.14 174.124 220.938 173.601C220.741 173.074 220.441 172.657 220.039 172.351C219.64 172.041 219.139 171.886 218.536 171.886C217.956 171.886 217.469 172.033 217.075 172.327C216.68 172.617 216.382 173.023 216.181 173.547C215.98 174.066 215.879 174.671 215.879 175.364Z" fill="black"/>
<g id="Clip path group">
<mask id="mask0_4_2" style="mask-type:luminance" maskUnits="userSpaceOnUse" x="126" y="71" width="94" height="93">
<g id="clip2_3_2">
<path id="Vector" d="M219.056 71H126V163.4H219.056V71Z" fill="white"/>
</g>
</mask>
<g mask="url(#mask0_4_2)">
<g id="Group">
<path id="Vector_2" d="M130.741 75.4769C130.888 75.4754 131.036 75.4739 131.188 75.4724C131.675 75.468 132.163 75.4649 132.65 75.4624C132.9 75.4609 132.9 75.4609 133.155 75.4595C134.036 75.4546 134.918 75.4512 135.799 75.4485C136.528 75.4461 137.258 75.4411 137.987 75.4337C138.869 75.4248 139.749 75.4203 140.63 75.4191C140.966 75.4178 141.302 75.4151 141.637 75.4108C142.107 75.4051 142.576 75.4051 143.045 75.4064C143.184 75.4034 143.322 75.4004 143.465 75.3974C144.188 75.4059 144.509 75.4889 145.086 75.9356C145.447 76.4141 145.447 76.4141 145.447 76.9554C146.587 76.9554 147.727 76.9554 148.9 76.9554C148.961 76.6576 149.02 76.3599 149.082 76.0532C149.487 75.6247 149.733 75.5218 150.321 75.4439C150.52 75.4438 150.719 75.4437 150.925 75.4436C151.156 75.4422 151.386 75.4407 151.623 75.4393C151.879 75.4405 152.136 75.4417 152.391 75.443C152.663 75.4423 152.935 75.4415 153.207 75.4404C153.955 75.4381 154.702 75.4393 155.45 75.4409C156.256 75.4421 157.062 75.4403 157.868 75.4388C159.448 75.4364 161.028 75.4369 162.607 75.4384C163.891 75.4397 165.175 75.4398 166.46 75.4393C166.642 75.4392 166.824 75.4391 167.012 75.439C167.384 75.4388 167.754 75.4387 168.125 75.4385C171.606 75.4369 175.087 75.4387 178.567 75.4417C181.553 75.4441 184.54 75.4436 187.526 75.4411C190.994 75.4382 194.461 75.4371 197.927 75.4388C198.297 75.4389 198.667 75.4391 199.037 75.4393C199.219 75.4393 199.4 75.4394 199.588 75.4395C200.87 75.44 202.152 75.4392 203.434 75.438C204.998 75.4364 206.56 75.4369 208.123 75.4397C208.921 75.4411 209.718 75.4417 210.516 75.4399C211.246 75.4382 211.976 75.4392 212.706 75.442C212.971 75.4427 213.234 75.4423 213.498 75.441C215.115 75.4336 216.323 75.5037 217.727 76.3463C219.075 77.7218 219.187 79.0793 219.172 80.9393C219.174 81.1954 219.175 81.4516 219.177 81.7078C219.181 82.4085 219.179 83.1091 219.177 83.8098C219.176 84.5668 219.179 85.3237 219.182 86.0807C219.187 87.5622 219.186 89.0439 219.184 90.5255C219.183 91.7299 219.183 92.9344 219.184 94.1388C219.185 94.3966 219.185 94.3966 219.185 94.659C219.185 95.0074 219.186 95.3557 219.186 95.7041C219.19 98.9713 219.188 102.238 219.183 105.505C219.18 108.306 219.182 111.108 219.188 113.91C219.194 117.165 219.198 120.42 219.195 123.674C219.195 124.022 219.194 124.369 219.194 124.717C219.194 124.973 219.194 124.973 219.194 125.234C219.193 126.437 219.195 127.639 219.199 128.842C219.203 130.308 219.203 131.774 219.197 133.241C219.194 133.988 219.194 134.736 219.198 135.483C219.202 136.169 219.2 136.853 219.194 137.539C219.193 137.903 219.197 138.266 219.201 138.63C219.182 140.108 218.915 141.126 217.965 142.285C216.542 143.488 214.988 143.418 213.212 143.403C212.984 143.403 212.756 143.402 212.52 143.402C211.918 143.4 211.315 143.396 210.712 143.393C210.096 143.389 209.479 143.387 208.863 143.385C207.656 143.382 206.449 143.376 205.242 143.368C205.243 143.516 205.244 143.664 205.245 143.817C205.246 144.109 205.246 144.109 205.248 144.406C205.249 144.599 205.25 144.792 205.251 144.99C205.195 148.831 203.129 152.403 200.429 155.029C197.367 157.809 193.369 159.068 189.266 158.911C186.135 158.722 183.445 157.595 180.888 155.82C180.755 155.728 180.621 155.636 180.483 155.54C180.192 155.336 179.903 155.127 179.616 154.918C179.589 155.118 179.589 155.118 179.562 155.321C179.419 155.883 179.229 156.147 178.843 156.576C178.684 156.758 178.684 156.758 178.522 156.945C177.864 157.529 177.189 157.669 176.323 157.68C176.141 157.683 175.961 157.686 175.774 157.689C175.581 157.69 175.387 157.691 175.188 157.692C174.987 157.693 174.786 157.695 174.579 157.697C174.154 157.7 173.729 157.701 173.305 157.702C172.657 157.704 172.009 157.713 171.363 157.722C170.949 157.724 170.535 157.725 170.121 157.726C169.93 157.729 169.737 157.733 169.539 157.737C168.308 157.729 167.475 157.53 166.53 156.722C165.358 155.504 165.496 154.012 165.508 152.426C165.509 152.041 165.508 151.658 165.504 151.274C165.501 150.928 165.502 150.582 165.504 150.237C165.485 149.693 165.485 149.693 165.206 149.355C164.878 149.132 164.58 148.987 164.205 148.853C164.01 148.782 164.01 148.782 163.813 148.71C163.678 148.663 163.544 148.616 163.406 148.568C163.202 148.494 163.202 148.494 162.993 148.418C162.658 148.298 162.322 148.179 161.986 148.06C161.275 148.646 160.594 149.254 159.948 149.911C159.846 150.014 159.744 150.118 159.639 150.225C159.435 150.433 159.233 150.641 159.032 150.851C158.292 151.607 157.621 152.139 156.533 152.282C156.354 152.282 156.174 152.28 155.989 152.279C155.808 152.28 155.629 152.282 155.444 152.282C154.107 152.107 153.309 151.254 152.402 150.346C152.271 150.216 152.14 150.087 152.006 149.954C151.731 149.681 151.456 149.408 151.183 149.133C150.764 148.715 150.342 148.299 149.921 147.884C149.653 147.618 149.386 147.352 149.119 147.086C148.93 146.9 148.93 146.9 148.737 146.711C147.463 145.426 147.463 145.426 147.436 144.452C147.44 144.09 147.443 143.729 147.447 143.368C147.113 143.37 147.113 143.37 146.775 143.371C144.681 143.382 142.587 143.391 140.493 143.396C139.417 143.399 138.34 143.403 137.264 143.409C136.225 143.415 135.186 143.418 134.146 143.419C133.75 143.42 133.354 143.422 132.959 143.425C132.402 143.43 131.847 143.43 131.29 143.43C131.047 143.432 131.047 143.432 130.799 143.435C129.523 143.43 128.422 143.181 127.318 142.533C125.99 141.141 125.868 139.805 125.884 137.94C125.882 137.684 125.881 137.428 125.879 137.172C125.874 136.471 125.876 135.771 125.878 135.07C125.88 134.312 125.876 133.556 125.873 132.799C125.869 131.318 125.87 129.836 125.872 128.355C125.873 127.15 125.873 125.946 125.872 124.741C125.872 124.569 125.871 124.398 125.871 124.221C125.871 123.872 125.87 123.524 125.87 123.175C125.866 119.908 125.868 116.642 125.873 113.375C125.875 110.573 125.873 107.771 125.868 104.97C125.861 101.715 125.858 98.4603 125.86 95.2051C125.86 94.8577 125.861 94.5102 125.861 94.1628C125.861 93.9921 125.861 93.8212 125.861 93.6452C125.862 92.4426 125.86 91.2401 125.857 90.0375C125.853 88.5714 125.853 87.1052 125.859 85.6391C125.861 84.8913 125.861 84.1437 125.858 83.396C125.854 82.7108 125.856 82.0257 125.861 81.3406C125.862 80.9769 125.859 80.6131 125.855 80.2494C125.873 78.786 126.12 77.7285 127.091 76.5945C128.263 75.653 129.253 75.4852 130.741 75.4769Z" fill="#020303"/>
<path id="Vector_3" d="M128.727 88.8664C157.635 88.8664 186.545 88.8664 216.329 88.8664C216.344 97.2148 216.36 105.564 216.375 114.166C216.381 116.805 216.388 119.444 216.395 122.164C216.398 125.378 216.398 125.378 216.399 126.883C216.4 127.936 216.402 128.989 216.406 130.043C216.411 131.257 216.413 132.471 216.412 133.685C216.411 134.307 216.412 134.928 216.416 135.55C216.419 136.215 216.418 136.879 216.417 137.545C216.419 137.739 216.421 137.934 216.423 138.134C216.417 138.946 216.412 139.439 215.991 140.149C215.479 140.586 215.19 140.59 214.519 140.583C214.3 140.583 214.083 140.583 213.857 140.583C213.623 140.578 213.388 140.573 213.146 140.569C212.903 140.567 212.659 140.565 212.415 140.564C211.776 140.561 211.137 140.552 210.497 140.542C209.844 140.533 209.192 140.529 208.538 140.525C207.258 140.515 205.978 140.5 204.697 140.48C204.649 140.332 204.6 140.185 204.55 140.033C204.486 139.839 204.422 139.645 204.356 139.444C204.26 139.156 204.26 139.156 204.163 138.861C203.923 138.181 203.629 137.558 203.277 136.927C203.216 136.815 203.154 136.701 203.09 136.585C202.565 135.645 201.954 134.796 201.244 133.984C201.379 133.853 201.514 133.723 201.653 133.589C202.547 132.681 203.077 132.063 203.097 130.771C203.099 130.594 203.102 130.419 203.106 130.238C203.113 129.432 203.121 128.626 203.125 127.82C203.128 127.396 203.133 126.972 203.14 126.548C203.151 125.935 203.154 125.323 203.157 124.71C203.163 124.428 203.163 124.428 203.169 124.139C203.165 122.932 202.972 122.09 202.153 121.17C200.922 120.168 199.333 120.352 197.825 120.358C197.316 120.36 196.808 120.358 196.3 120.353C195.964 120.354 195.964 120.354 195.62 120.355C195.065 120.268 195.065 120.268 194.73 119.934C194.471 119.456 194.25 118.976 194.042 118.474C193.965 118.29 193.888 118.106 193.808 117.917C193.471 117.001 193.471 117.001 193.429 116.478C193.607 116.157 193.607 116.157 193.906 115.846C194.022 115.723 194.137 115.601 194.257 115.475C194.6 115.135 194.945 114.799 195.293 114.464C195.398 114.363 195.502 114.262 195.609 114.157C195.818 113.957 196.028 113.757 196.24 113.56C197.064 112.77 197.513 112.056 197.688 110.906C197.688 110.665 197.688 110.665 197.689 110.422C197.692 110.261 197.696 110.101 197.699 109.936C197.482 108.737 196.45 107.869 195.617 107.041C195.496 106.919 195.374 106.797 195.249 106.671C194.993 106.415 194.736 106.16 194.48 105.905C194.089 105.515 193.7 105.122 193.311 104.73C193.061 104.481 192.811 104.233 192.562 103.983C192.446 103.867 192.331 103.749 192.212 103.628C191.33 102.762 190.537 102.358 189.271 102.323C189.13 102.315 188.987 102.308 188.841 102.3C187.106 102.65 185.937 104.225 184.802 105.458C184.665 105.601 184.527 105.743 184.386 105.891C184.203 106.088 184.203 106.088 184.015 106.289C183.614 106.553 183.614 106.553 183.062 106.519C182.419 106.343 181.815 106.108 181.206 105.842C181.093 105.794 180.979 105.746 180.863 105.697C180.368 105.484 180.001 105.31 179.616 104.928C179.572 104.379 179.572 104.379 179.573 103.68C179.57 103.425 179.567 103.169 179.564 102.914C179.561 102.512 179.559 102.111 179.561 101.709C179.625 99.7364 179.625 99.7364 178.82 98.0011C177.896 97.0864 176.821 96.9025 175.559 96.8775C175.372 96.8785 175.185 96.8785 174.993 96.8794C174.796 96.8775 174.6 96.8757 174.398 96.8738C173.985 96.872 173.572 96.872 173.159 96.8738C172.53 96.8748 171.901 96.8664 171.272 96.8572C170.869 96.8563 170.466 96.8563 170.063 96.8563C169.876 96.8526 169.69 96.8498 169.497 96.8461C168.203 96.8628 167.453 97.1649 166.53 98.0704C165.518 99.2494 165.699 100.703 165.701 102.176C165.7 102.561 165.698 102.946 165.694 103.331C165.689 103.678 165.688 104.026 165.688 104.373C165.621 104.928 165.621 104.928 165.378 105.261C164.921 105.577 164.438 105.751 163.917 105.943C163.714 106.02 163.51 106.097 163.299 106.176C162.275 106.519 162.275 106.519 161.805 106.553C161.405 106.269 161.405 106.269 161.005 105.845C160.858 105.693 160.711 105.541 160.559 105.385C160.408 105.223 160.257 105.061 160.101 104.894C158.579 103.191 158.579 103.191 156.535 102.293C156.276 102.291 156.276 102.291 156.011 102.288C155.839 102.283 155.667 102.276 155.49 102.27C153.682 102.671 152.341 104.309 151.082 105.569C150.752 105.899 150.418 106.225 150.084 106.551C149.87 106.763 149.656 106.976 149.443 107.188C149.344 107.284 149.245 107.38 149.144 107.479C148.269 108.363 147.636 109.335 147.514 110.591C147.607 112.374 149.098 113.674 150.343 114.798C150.487 114.925 150.631 115.053 150.78 115.184C151.8 116.137 151.8 116.137 151.842 116.939C151.613 117.603 151.375 118.249 151.092 118.892C151.045 119.005 150.997 119.118 150.947 119.236C150.583 120.063 150.583 120.063 150.173 120.268C149.75 120.287 149.326 120.296 148.903 120.3C148.644 120.304 148.385 120.308 148.127 120.313C147.719 120.319 147.312 120.324 146.904 120.327C146.51 120.33 146.117 120.337 145.722 120.344C145.37 120.349 145.37 120.349 145.008 120.353C144.052 120.493 143.494 120.918 142.857 121.621C142.368 122.315 142.131 122.795 142.123 123.649C142.121 123.818 142.118 123.986 142.116 124.16C142.115 124.342 142.115 124.523 142.114 124.709C142.114 124.897 142.113 125.084 142.111 125.279C142.109 125.676 142.108 126.073 142.108 126.47C142.108 127.076 142.1 127.681 142.094 128.286C142.093 128.673 142.092 129.06 142.092 129.447C142.089 129.626 142.087 129.806 142.084 129.991C142.093 131.313 142.35 132.263 143.226 133.275C144.55 134.215 145.959 134.121 147.514 134.096C147.913 134.092 148.311 134.089 148.709 134.091C149.068 134.092 149.426 134.088 149.785 134.082C150.354 134.164 150.355 134.164 150.69 134.495C150.961 135.002 151.181 135.512 151.388 136.048C151.467 136.248 151.547 136.45 151.628 136.656C151.809 137.234 151.89 137.539 151.808 138.134C151.145 139.236 150.253 140.252 148.974 140.614C147.612 140.824 146.24 140.772 144.867 140.742C144.424 140.739 143.981 140.738 143.538 140.738C142.613 140.734 141.69 140.724 140.766 140.707C139.581 140.685 138.396 140.678 137.21 140.676C136.298 140.674 135.385 140.667 134.472 140.658C134.034 140.653 133.598 140.65 133.161 140.647C132.551 140.643 131.943 140.633 131.334 140.62C131.152 140.62 130.972 140.62 130.786 140.619C130.62 140.614 130.455 140.61 130.283 140.605C130.14 140.602 129.997 140.6 129.849 140.598C129.21 140.408 129.048 140.157 128.727 139.578C128.621 138.9 128.632 138.229 128.639 137.545C128.638 137.337 128.637 137.13 128.637 136.916C128.636 136.34 128.638 135.764 128.642 135.188C128.645 134.558 128.644 133.927 128.644 133.297C128.643 132.073 128.646 130.849 128.651 129.625C128.657 128.209 128.657 126.794 128.658 125.378C128.661 121.641 128.672 117.903 128.681 114.166C128.696 105.817 128.711 97.468 128.727 88.8664Z" fill="#F1F9FD"/>
<path id="Vector_4" d="M169.057 99.4694C169.268 99.4703 169.268 99.4703 169.484 99.4703C169.723 99.4694 169.723 99.4694 169.967 99.4684C170.226 99.4703 170.226 99.4703 170.49 99.4721C170.666 99.4721 170.843 99.4731 171.025 99.4731C171.398 99.4731 171.771 99.4749 172.145 99.4767C172.719 99.4804 173.293 99.4804 173.867 99.4804C174.23 99.4814 174.592 99.4823 174.954 99.4841C175.127 99.4841 175.299 99.4841 175.478 99.4841C175.637 99.4851 175.795 99.4869 175.959 99.4878C176.17 99.4888 176.17 99.4888 176.385 99.4897C176.708 99.5137 176.708 99.5137 176.889 99.6948C176.91 100.091 176.918 100.489 176.922 100.885C176.926 101.133 176.93 101.381 176.935 101.629C176.941 102.019 176.947 102.41 176.949 102.799C176.938 105.098 176.938 105.098 178.083 107.03C178.883 107.754 179.908 108.121 180.9 108.515C181.04 108.571 181.179 108.627 181.322 108.685C182.47 109.118 183.404 109.263 184.583 108.828C185.661 108.313 186.402 107.457 187.204 106.597C187.5 106.28 187.798 105.966 188.099 105.653C188.293 105.444 188.293 105.444 188.491 105.231C188.885 104.928 188.885 104.928 189.311 104.813C190.074 104.995 190.496 105.497 191.036 106.041C191.151 106.155 191.267 106.269 191.386 106.386C191.63 106.629 191.873 106.871 192.114 107.115C192.484 107.487 192.859 107.855 193.235 108.222C193.472 108.457 193.708 108.693 193.944 108.928C194.056 109.038 194.169 109.148 194.284 109.262C195.031 110.024 195.031 110.024 195.18 110.64C195.024 111.213 194.762 111.462 194.329 111.87C194.098 112.092 194.098 112.092 193.864 112.319C193.702 112.47 193.54 112.622 193.372 112.779C193.054 113.08 192.737 113.383 192.42 113.687C192.207 113.887 192.207 113.887 191.99 114.09C191.123 115.013 190.916 115.762 190.943 117.002C191.059 117.965 191.439 118.839 191.816 119.726C191.884 119.891 191.953 120.054 192.024 120.223C192.54 121.368 193.04 122.066 194.199 122.632C194.82 122.833 195.363 122.85 196.016 122.863C196.14 122.866 196.263 122.869 196.39 122.872C196.781 122.882 197.173 122.889 197.563 122.896C197.958 122.904 198.352 122.912 198.745 122.921C199.101 122.931 199.456 122.937 199.812 122.944C200.336 122.975 200.336 122.975 200.517 123.155C200.536 123.403 200.542 123.651 200.543 123.899C200.545 124.136 200.545 124.136 200.547 124.378C200.548 124.635 200.548 124.634 200.548 124.898C200.549 125.072 200.549 125.248 200.55 125.428C200.551 125.8 200.551 126.17 200.551 126.542C200.551 127.112 200.554 127.681 200.558 128.25C200.559 128.61 200.559 128.97 200.559 129.33C200.561 129.501 200.562 129.673 200.563 129.85C200.563 130.008 200.562 130.166 200.562 130.329C200.562 130.469 200.562 130.608 200.562 130.752C200.517 131.096 200.517 131.096 200.153 131.457C198.405 131.863 197.047 130.969 195.571 130.179C193.781 129.262 191.868 129.255 189.897 129.19C189.677 129.182 189.456 129.174 189.23 129.167C188.692 129.147 188.152 129.129 187.613 129.111C187.604 128.874 187.595 128.636 187.586 128.391C187.391 123.622 186.177 119.565 182.581 116.185C179.432 113.496 175.43 112.258 171.297 112.474C168.36 112.719 165.59 113.997 163.259 115.757C163.079 115.891 163.079 115.891 162.895 116.027C160.689 117.803 159.025 120.601 158.352 123.336C158.27 124.176 158.27 124.176 158.544 124.949C159.113 125.258 159.536 125.23 160.169 125.141C160.625 124.523 160.869 123.863 161.123 123.144C162.34 119.979 164.35 117.618 167.439 116.117C170.818 114.742 174.017 114.676 177.435 115.959C180.645 117.37 182.916 119.818 184.224 123.039C184.85 124.843 184.942 126.487 184.886 128.389C184.891 128.562 184.896 128.737 184.901 128.915C184.871 129.452 184.816 129.738 184.524 130.194C183.875 130.628 183.212 130.958 182.507 131.288C181.544 131.743 180.77 132.378 179.98 133.082C179.869 133.174 179.758 133.267 179.644 133.364C178.162 134.701 177.069 136.596 176.464 138.476C175.967 139.103 175.297 139.125 174.527 139.217C171.032 139.513 167.83 138.86 165.008 136.713C162.857 134.893 161.551 132.759 160.691 130.104C160.561 129.629 160.561 129.629 160.169 129.291C159.326 129.192 159.326 129.192 158.583 129.522C158.281 129.862 158.281 129.862 158.352 130.532C158.878 133.966 161.08 136.891 163.758 139.003C166.631 141.044 169.676 141.782 173.164 141.755C173.365 141.754 173.567 141.753 173.775 141.753C174.268 141.751 174.761 141.748 175.254 141.743C175.258 141.853 175.261 141.963 175.265 142.077C175.319 145.448 175.319 145.448 176.215 148.662C177.007 150.518 177.216 152.553 176.889 154.557C176.457 154.988 176.364 154.964 175.774 154.968C175.618 154.969 175.463 154.971 175.303 154.973C175.051 154.972 175.051 154.972 174.794 154.972C174.622 154.973 174.449 154.974 174.273 154.975C173.908 154.976 173.544 154.976 173.18 154.975C172.621 154.974 172.063 154.979 171.503 154.983C171.15 154.983 170.797 154.983 170.443 154.983C170.276 154.985 170.107 154.987 169.934 154.989C169.702 154.987 169.702 154.987 169.464 154.985C169.259 154.985 169.259 154.985 169.049 154.985C168.711 154.918 168.711 154.918 168.348 154.376C168.304 153.825 168.304 153.825 168.304 153.151C168.301 152.904 168.298 152.658 168.296 152.411C168.293 152.025 168.291 151.638 168.292 151.251C168.324 149.115 168.324 149.115 167.257 147.338C165.752 146.13 163.488 145.207 161.548 145.22C159.828 145.704 158.693 147.153 157.524 148.409C157.317 148.623 157.317 148.623 157.106 148.842C156.982 148.974 156.859 149.105 156.733 149.241C156.352 149.504 156.352 149.504 155.929 149.525C155.209 149.226 154.742 148.737 154.195 148.193C154.021 148.022 154.021 148.022 153.843 147.848C153.599 147.607 153.356 147.366 153.113 147.124C152.74 146.752 152.364 146.386 151.986 146.02C151.748 145.787 151.512 145.551 151.276 145.316C151.105 145.153 151.105 145.153 150.932 144.986C150.18 144.221 150.18 144.221 150.147 143.612C150.399 143.095 150.687 142.786 151.108 142.394C151.261 142.248 151.413 142.102 151.572 141.951C151.895 141.649 152.217 141.347 152.541 141.045C153.63 140.002 154.237 139.299 154.455 137.785C154.396 136.087 153.474 133.817 152.353 132.54C151.37 131.778 150.674 131.616 149.445 131.6C149.191 131.594 148.938 131.589 148.685 131.584C148.286 131.577 147.888 131.57 147.488 131.565C147.103 131.56 146.718 131.552 146.333 131.543C146.102 131.54 145.871 131.536 145.634 131.532C145.452 131.507 145.271 131.482 145.084 131.457C144.712 130.903 144.674 130.789 144.673 130.164C144.672 130.013 144.671 129.863 144.67 129.708C144.671 129.546 144.671 129.384 144.672 129.218C144.672 129.051 144.672 128.884 144.671 128.712C144.671 128.36 144.672 128.008 144.673 127.656C144.674 127.116 144.673 126.576 144.671 126.035C144.671 125.693 144.672 125.352 144.672 125.011C144.672 124.848 144.671 124.685 144.67 124.519C144.671 124.368 144.672 124.219 144.673 124.064C144.673 123.932 144.673 123.8 144.674 123.663C144.72 123.336 144.72 123.336 145.084 122.975C145.597 122.932 145.597 122.932 146.248 122.932C146.484 122.929 146.722 122.926 146.965 122.923C147.339 122.92 147.715 122.919 148.09 122.92C149.682 122.922 151.045 122.872 152.353 121.892C152.808 121.403 152.808 121.403 153.081 120.809C153.138 120.697 153.195 120.586 153.253 120.471C154.407 118.115 154.407 118.115 154.353 115.576C153.578 114.124 152.405 113.073 151.201 111.974C151.066 111.846 150.931 111.718 150.793 111.586C150.669 111.472 150.545 111.358 150.419 111.242C150.173 110.884 150.173 110.884 150.156 110.463C150.445 109.761 150.917 109.316 151.453 108.788C151.564 108.677 151.674 108.566 151.788 108.452C152.022 108.219 152.257 107.986 152.492 107.754C152.852 107.399 153.208 107.04 153.563 106.68C153.791 106.454 154.019 106.227 154.248 106.002C154.354 105.894 154.46 105.787 154.569 105.676C155.003 105.255 155.326 104.955 155.926 104.818C156.484 104.962 156.707 105.188 157.099 105.607C157.236 105.75 157.374 105.892 157.515 106.039C157.656 106.19 157.797 106.34 157.942 106.496C159.656 108.343 159.656 108.343 161.973 109.178C162.892 109.113 163.714 108.755 164.554 108.403C164.711 108.34 164.869 108.277 165.031 108.212C166.823 107.486 166.823 107.486 167.984 106.011C168.196 105.36 168.197 104.728 168.211 104.047C168.217 103.804 168.222 103.562 168.229 103.319C168.237 102.938 168.245 102.556 168.253 102.176C168.259 101.807 168.269 101.438 168.279 101.069C168.285 100.739 168.285 100.739 168.293 100.402C168.354 99.8149 168.433 99.5497 169.057 99.4694Z" fill="#C3D1DB"/>
<path id="Vector_5" d="M145.265 76.9554C146.525 76.9554 147.784 76.9554 149.082 76.9554C149.202 77.2532 149.322 77.551 149.445 77.8578C150.081 78.2786 150.329 78.2639 151.08 78.2639C151.425 78.2653 151.425 78.2653 151.775 78.2667C152.031 78.2659 152.286 78.265 152.542 78.2641C152.813 78.2645 153.084 78.265 153.355 78.2658C154.1 78.2673 154.845 78.2664 155.591 78.2653C156.394 78.2645 157.197 78.2658 158 78.2668C159.392 78.2684 160.785 78.2687 162.177 78.2683C164.191 78.2677 166.206 78.2698 168.219 78.2727C171.487 78.2774 174.756 78.281 178.025 78.2834C178.318 78.2836 178.318 78.2836 178.617 78.2839C181.396 78.2859 184.174 78.2868 186.952 78.2874C187.148 78.2874 187.343 78.2874 187.545 78.2875C187.74 78.2875 187.936 78.2876 188.138 78.2876C191.393 78.2882 194.649 78.2917 197.904 78.2974C199.914 78.3008 201.923 78.3019 203.933 78.3C205.309 78.2988 206.686 78.3002 208.062 78.3038C208.857 78.3057 209.651 78.3064 210.446 78.304C211.174 78.3019 211.901 78.303 212.627 78.3068C212.891 78.3075 213.155 78.3072 213.418 78.3053C213.776 78.3031 214.133 78.3057 214.489 78.3086C214.688 78.3086 214.888 78.3087 215.092 78.3088C215.602 78.3992 215.602 78.3992 216.329 79.1211C216.329 81.4437 216.329 83.7663 216.329 86.1593C190.899 86.1593 165.469 86.1593 139.268 86.1593C139.268 83.5985 139.268 81.0377 139.268 78.3992C141.766 78.3428 141.766 78.3428 142.552 78.3292C142.757 78.3232 142.961 78.3172 143.172 78.311C143.382 78.3063 143.591 78.3016 143.807 78.2967C144.408 78.2113 144.664 78.1093 145.084 77.6774C145.143 77.4391 145.204 77.2009 145.265 76.9554Z" fill="#25A5FD"/>
<path id="Vector_6" d="M197.396 133.969C199.671 135.705 201.736 138.307 202.285 141.175C202.729 144.655 202.301 148.201 200.131 151.066C200.018 151.206 199.906 151.345 199.79 151.489C199.678 151.63 199.565 151.771 199.45 151.917C197.481 154.254 194.563 155.752 191.508 156.046C188.477 156.237 185.758 155.821 183.251 154.016C183.087 153.899 182.923 153.782 182.754 153.662C180.185 151.71 178.444 148.909 177.98 145.714C177.679 142.205 178.311 139.092 180.502 136.262C184.825 131.248 191.862 130.242 197.396 133.969Z" fill="#6BF3C0"/>
<path id="Vector_7" d="M180.042 117.446C182.554 119.299 184.192 122.089 184.811 125.121C184.957 126.21 184.919 127.294 184.886 128.389C184.894 128.649 184.894 128.649 184.901 128.915C184.871 129.452 184.816 129.738 184.524 130.193C183.875 130.628 183.212 130.958 182.507 131.288C181.544 131.743 180.77 132.378 179.98 133.081C179.869 133.174 179.758 133.267 179.644 133.364C178.162 134.701 177.069 136.596 176.464 138.476C175.967 139.103 175.297 139.125 174.527 139.217C171.032 139.513 167.83 138.86 165.008 136.713C162.886 134.918 161.492 132.77 160.714 130.115C160.501 129.574 160.307 129.398 159.805 129.111C159.626 129.051 159.445 128.992 159.26 128.93C159.032 128.251 159.059 127.618 159.067 126.911C159.068 126.776 159.068 126.64 159.069 126.502C159.072 126.168 159.075 125.835 159.078 125.501C159.281 125.428 159.483 125.354 159.693 125.279C160.223 125.053 160.223 125.053 160.583 124.614C160.642 124.411 160.642 124.411 160.702 124.205C161.467 122.007 162.46 120.085 164.168 118.463C164.292 118.336 164.417 118.209 164.545 118.078C168.782 113.987 175.412 114.19 180.042 117.446Z" fill="#F2F5F6"/>
<path id="Vector_8" d="M208.877 88.8664C211.337 88.8664 213.796 88.8664 216.329 88.8664C216.346 95.3114 216.359 101.756 216.366 108.201C216.367 108.962 216.368 109.723 216.369 110.483C216.369 110.635 216.37 110.787 216.37 110.942C216.373 113.395 216.378 115.848 216.386 118.301C216.392 120.817 216.396 123.334 216.398 125.85C216.399 127.404 216.402 128.956 216.408 130.509C216.412 131.574 216.413 132.638 216.412 133.704C216.411 134.318 216.412 134.932 216.416 135.547C216.419 136.212 216.418 136.878 216.417 137.545C216.419 137.739 216.421 137.934 216.423 138.134C216.422 138.312 216.42 138.491 216.418 138.675C216.419 138.829 216.419 138.982 216.419 139.141C216.329 139.578 216.329 139.578 215.602 140.48C213.323 140.48 211.044 140.48 208.696 140.48C208.756 129.403 208.816 118.326 208.877 106.913C206.179 106.913 203.48 106.913 200.698 106.913C200.698 106.854 200.698 106.794 200.698 106.733C200.9 106.732 200.9 106.732 201.107 106.731C202.377 106.724 203.647 106.714 204.918 106.7C205.57 106.692 206.223 106.687 206.876 106.684C207.506 106.681 208.137 106.675 208.767 106.666C209.125 106.663 209.481 106.662 209.838 106.662C210.056 106.658 210.275 106.654 210.5 106.651C210.692 106.649 210.883 106.648 211.081 106.646C211.732 106.53 212.039 106.281 212.513 105.83C212.759 105.34 212.723 104.948 212.73 104.399C212.733 104.063 212.733 104.063 212.738 103.718C212.74 103.472 212.743 103.225 212.744 102.979C212.745 102.793 212.745 102.793 212.747 102.604C212.752 101.947 212.756 101.291 212.758 100.635C212.76 100.091 212.765 99.5488 212.772 99.0055C212.782 98.3504 212.786 97.6944 212.787 97.0383C212.789 96.7888 212.792 96.5394 212.796 96.2899C212.801 95.9406 212.801 95.5904 212.8 95.2402C212.802 95.0415 212.803 94.8429 212.805 94.6378C212.658 93.9218 212.347 93.6536 211.786 93.1976C211.227 93.0128 210.829 92.9893 210.244 92.9801C210.04 92.9765 209.837 92.9729 209.627 92.9692C209.297 92.9647 209.297 92.9647 208.961 92.9601C208.736 92.9564 208.511 92.9526 208.279 92.9487C207.68 92.9389 207.083 92.9298 206.485 92.9212C205.874 92.9121 205.264 92.902 204.653 92.8921C203.457 92.8727 202.26 92.8543 201.062 92.8367C201.062 92.7772 201.062 92.7176 201.062 92.6562C203.642 92.6562 206.22 92.6562 208.877 92.6562C208.877 91.4056 208.877 90.155 208.877 88.8664Z" fill="#DDF4FB"/>
<path id="Vector_9" d="M169.057 99.4694C169.198 99.4694 169.339 99.4703 169.484 99.4703C169.723 99.4694 169.723 99.4694 169.967 99.4684C170.226 99.4703 170.226 99.4703 170.49 99.4721C170.666 99.4721 170.843 99.4731 171.025 99.4731C171.398 99.4731 171.771 99.4749 172.145 99.4767C172.719 99.4804 173.293 99.4804 173.867 99.4804C174.23 99.4814 174.592 99.4823 174.954 99.4841C175.213 99.4841 175.213 99.4841 175.478 99.4841C175.637 99.4851 175.795 99.4869 175.959 99.4878C176.17 99.4888 176.17 99.4888 176.385 99.4897C176.708 99.5137 176.708 99.5137 176.89 99.6948C176.91 100.091 176.918 100.489 176.922 100.885C176.926 101.133 176.93 101.381 176.935 101.629C176.941 102.019 176.947 102.41 176.949 102.799C176.938 105.098 176.938 105.098 178.083 107.03C178.883 107.754 179.908 108.121 180.9 108.515C181.04 108.571 181.179 108.627 181.322 108.685C182.47 109.118 183.404 109.263 184.583 108.828C185.661 108.313 186.402 107.457 187.204 106.597C187.5 106.28 187.798 105.966 188.099 105.653C188.228 105.514 188.357 105.375 188.491 105.231C188.885 104.928 188.885 104.928 189.311 104.813C190.074 104.995 190.496 105.497 191.036 106.041C191.151 106.155 191.267 106.269 191.386 106.386C191.63 106.629 191.873 106.871 192.114 107.115C192.484 107.487 192.859 107.855 193.235 108.222C193.472 108.457 193.708 108.693 193.944 108.928C194.056 109.038 194.169 109.148 194.284 109.262C195.031 110.024 195.031 110.024 195.18 110.64C195.024 111.213 194.762 111.462 194.329 111.87C194.098 112.092 194.098 112.092 193.864 112.319C193.702 112.47 193.54 112.622 193.372 112.779C193.054 113.08 192.737 113.383 192.42 113.687C192.278 113.82 192.136 113.953 191.99 114.09C191.123 115.013 190.916 115.762 190.943 117.002C191.059 117.965 191.439 118.839 191.816 119.726C191.919 119.972 191.919 119.972 192.024 120.223C192.54 121.368 193.04 122.066 194.199 122.632C194.82 122.833 195.363 122.85 196.016 122.863C196.14 122.866 196.263 122.869 196.39 122.872C196.781 122.882 197.173 122.889 197.563 122.896C197.958 122.904 198.352 122.912 198.745 122.921C199.101 122.931 199.456 122.937 199.812 122.944C200.336 122.975 200.336 122.975 200.517 123.155C200.536 123.403 200.542 123.651 200.544 123.899C200.545 124.057 200.546 124.215 200.547 124.378C200.548 124.634 200.548 124.634 200.548 124.898C200.549 125.072 200.549 125.248 200.55 125.428C200.551 125.8 200.551 126.17 200.551 126.542C200.551 127.112 200.554 127.681 200.558 128.25C200.559 128.61 200.559 128.97 200.559 129.33C200.561 129.501 200.562 129.673 200.563 129.85C200.563 130.008 200.562 130.166 200.562 130.329C200.562 130.469 200.562 130.608 200.562 130.752C200.517 131.096 200.517 131.096 200.154 131.457C198.405 131.863 197.047 130.969 195.571 130.179C193.781 129.262 191.868 129.255 189.897 129.19C189.677 129.182 189.456 129.174 189.23 129.167C188.692 129.147 188.152 129.129 187.613 129.111C187.604 128.874 187.595 128.636 187.586 128.391C187.408 124.07 186.48 120.298 183.433 117.02C182.957 116.598 182.477 116.188 181.979 115.793C181.523 115.294 181.528 114.973 181.433 114.312C181.216 113.85 180.996 113.421 180.741 112.982C180.668 112.856 180.597 112.732 180.523 112.603C177.728 107.87 173.641 103.981 168.711 101.499C168.651 102.571 168.592 103.643 168.529 104.747C168.47 104.747 168.409 104.747 168.348 104.747C168.337 103.943 168.331 103.139 168.324 102.334C168.322 102.105 168.319 101.875 168.315 101.639C168.314 101.42 168.313 101.202 168.312 100.976C168.31 100.672 168.31 100.672 168.306 100.363C168.354 99.7918 168.456 99.547 169.057 99.4694Z" fill="#B5C2CD"/>
<path id="Vector_10" d="M188.885 131.818C192.692 131.705 195.831 132.416 198.7 135.066C200.783 137.043 202.279 139.742 202.39 142.623C202.449 145.947 201.944 148.819 199.79 151.489C199.678 151.63 199.565 151.771 199.45 151.917C197.594 154.119 194.85 155.623 191.975 156.001C190.643 156.079 189.309 156.048 187.977 156.001C187.977 155.941 187.977 155.881 187.977 155.82C188.175 155.791 188.374 155.76 188.579 155.73C190.883 155.152 192.866 152.885 194.041 150.937C195.676 148.007 196.069 145.4 195.973 142.105C195.404 142.801 194.86 143.513 194.326 144.236C194.239 144.354 194.153 144.471 194.065 144.591C193.432 145.451 192.819 146.324 192.214 147.203C192.13 147.323 192.047 147.443 191.961 147.566C191.582 148.113 191.208 148.661 190.844 149.218C189.976 150.503 189.976 150.503 189.158 150.88C187.499 150.586 185.97 148.465 184.793 147.309C184.559 147.079 184.323 146.85 184.087 146.622C183.742 146.289 183.4 145.954 183.059 145.618C182.953 145.517 182.847 145.415 182.738 145.312C182.123 144.697 181.81 144.275 181.797 143.368C182.059 142.849 182.059 142.849 182.524 142.466C183.45 142.349 183.791 142.333 184.56 142.88C184.749 143.067 184.933 143.259 185.114 143.453C185.213 143.552 185.312 143.653 185.413 143.756C185.726 144.075 186.033 144.398 186.341 144.721C186.553 144.939 186.765 145.157 186.977 145.374C187.497 145.904 188.01 146.44 188.522 146.978C189.137 146.774 189.203 146.673 189.548 146.156C189.64 146.02 189.731 145.885 189.826 145.745C189.925 145.597 190.022 145.449 190.124 145.297C190.334 144.985 190.545 144.672 190.756 144.361C190.866 144.198 190.976 144.036 191.09 143.868C191.651 143.043 192.228 142.23 192.805 141.417C193.108 140.987 193.412 140.559 193.713 140.127C193.875 139.898 194.041 139.674 194.214 139.453C194.574 138.982 194.702 138.728 194.694 138.13C193.884 135.629 191.466 133.496 189.246 132.216C189.127 132.145 189.008 132.073 188.885 131.999C188.885 131.939 188.885 131.88 188.885 131.818Z" fill="#00F0A4"/>
<path id="Vector_11" d="M176.609 120.5C178.133 121.425 179.328 122.763 179.98 124.418C180.044 124.581 180.109 124.744 180.175 124.912C180.706 126.781 180.485 129.009 179.616 130.735C178.331 132.881 176.607 134.184 174.175 134.852C173.992 134.863 173.807 134.874 173.618 134.886C173.462 134.897 173.306 134.908 173.145 134.92C170.929 135.011 169.122 134.324 167.439 132.901C166.542 132.049 165.92 131.146 165.44 130.013C165.375 129.887 165.31 129.762 165.243 129.632C164.664 127.827 164.828 125.301 165.677 123.622C166.576 122.259 167.752 120.967 169.245 120.245C169.416 120.161 169.416 120.161 169.591 120.075C171.915 119.081 174.398 119.352 176.609 120.5Z" fill="#030303"/>
<path id="Vector_12" d="M201.399 92.7638C201.72 92.7604 201.72 92.7604 202.048 92.7569C202.394 92.7576 202.394 92.7576 202.748 92.7584C202.985 92.7575 203.223 92.7566 203.469 92.7556C203.972 92.754 204.476 92.7544 204.979 92.7562C205.622 92.7582 206.265 92.7546 206.908 92.7494C207.524 92.7452 208.14 92.7465 208.756 92.7472C208.986 92.7451 209.216 92.7431 209.452 92.7411C210.687 92.7508 211.523 92.7937 212.513 93.5586C212.935 94.1878 212.924 94.4437 212.932 95.1875C212.934 95.4121 212.937 95.6357 212.941 95.8667C212.942 96.1115 212.943 96.3573 212.944 96.6022C212.946 96.8535 212.946 97.1048 212.948 97.3562C212.951 97.8838 212.953 98.4114 212.953 98.939C212.955 99.6135 212.961 100.287 212.97 100.962C212.975 101.481 212.976 102.001 212.976 102.52C212.977 102.769 212.979 103.018 212.984 103.266C213.014 105.451 213.014 105.451 212.438 106.161C211.75 106.733 211.413 106.757 210.526 106.768C210.3 106.771 210.073 106.774 209.84 106.776C209.592 106.778 209.343 106.78 209.096 106.782C208.908 106.784 208.908 106.784 208.717 106.785C208.056 106.79 207.396 106.793 206.734 106.796C206.188 106.799 205.641 106.803 205.094 106.811C204.434 106.82 203.774 106.824 203.113 106.825C202.862 106.826 202.611 106.829 202.36 106.834C202.007 106.839 201.654 106.839 201.302 106.838C201.101 106.839 200.901 106.841 200.695 106.843C199.87 106.676 199.469 106.16 199.01 105.486C198.831 104.962 198.82 104.489 198.813 103.936C198.809 103.733 198.803 103.529 198.797 103.321C198.881 102.762 198.881 102.762 199.21 102.334C199.79 101.907 200.177 101.941 200.881 102.041C201.324 102.323 201.324 102.323 201.608 102.762C201.608 103.179 201.608 103.596 201.608 104.026C204.426 104.026 207.246 104.026 210.15 104.026C210.15 101.227 210.15 98.428 210.15 95.5433C207.331 95.5433 204.512 95.5433 201.608 95.5433C201.608 96.1393 201.608 96.7352 201.608 97.3488C201.244 98.0704 201.244 98.0704 200.881 98.2506C199.723 98.3347 199.723 98.3347 199.267 98.003C198.808 97.3423 198.836 96.7278 198.824 95.9498C198.82 95.8223 198.814 95.6957 198.809 95.5645C198.797 94.6322 198.989 94.1148 199.609 93.3781C200.199 92.8351 200.602 92.768 201.399 92.7638Z" fill="#040402"/>
<path id="Vector_13" d="M175.074 122.75C176.34 123.539 177.164 124.416 177.617 125.862C177.853 127.543 177.618 129.051 176.581 130.42C175.496 131.604 174.249 132.186 172.641 132.292C171.298 132.237 170.081 131.658 169.077 130.781C167.981 129.571 167.544 128.265 167.571 126.655C167.732 125.255 168.578 124.071 169.62 123.155C171.243 121.987 173.286 121.814 175.074 122.75Z" fill="#C3D0DA"/>
<path id="Vector_14" d="M201.608 95.5433C204.426 95.5433 207.246 95.5433 210.15 95.5433C210.15 98.343 210.15 101.142 210.15 104.026C207.331 104.026 204.512 104.026 201.608 104.026C201.548 103.609 201.488 103.192 201.426 102.762C201.336 102.495 201.336 102.495 201.244 102.221C200.824 102.162 200.404 102.102 199.972 102.041C200.152 101.951 200.152 101.951 200.336 101.86C200.336 100.729 200.336 99.5969 200.336 98.4317C200.216 98.3716 200.095 98.3125 199.972 98.2506C200.602 98.1619 200.602 98.1619 201.244 98.0704C201.364 97.237 201.484 96.4026 201.608 95.5433Z" fill="#FEE076"/>
<path id="Vector_15" d="M208.514 78.3992C209.51 78.3814 210.507 78.3682 211.502 78.3596C211.842 78.356 212.181 78.351 212.519 78.3448C213.006 78.336 213.494 78.3319 213.981 78.3287C214.132 78.325 214.284 78.3213 214.439 78.3174C214.652 78.3173 214.652 78.3173 214.869 78.3172C214.994 78.3157 215.117 78.3141 215.246 78.3124C215.602 78.3992 215.602 78.3992 216.329 79.1211C216.329 81.4437 216.329 83.7663 216.329 86.1593C190.899 86.1593 165.469 86.1593 139.268 86.1593C139.268 86.0998 139.268 86.0402 139.268 85.9789C162.239 85.9789 185.21 85.9789 208.877 85.9789C209.066 82.1246 209.066 82.1246 208.514 78.3992Z" fill="#0787E4"/>
<path id="Vector_16" d="M196.882 137.593C197.314 137.874 197.314 137.874 197.609 138.315C197.78 139.394 197.445 139.946 196.834 140.789C196.722 140.937 196.611 141.084 196.496 141.236C196.261 141.558 196.025 141.88 195.79 142.203C195.67 142.366 195.549 142.53 195.424 142.699C194.869 143.455 194.331 144.223 193.793 144.992C193.583 145.289 193.374 145.585 193.164 145.882C192.712 146.524 192.262 147.168 191.814 147.813C191.698 147.979 191.583 148.145 191.464 148.316C191.241 148.635 191.02 148.954 190.799 149.275C190.699 149.418 190.599 149.561 190.496 149.708C190.408 149.835 190.321 149.961 190.231 150.092C189.976 150.406 189.976 150.406 189.43 150.767C188.559 150.789 188.081 150.581 187.449 150.02C187.193 149.771 186.939 149.52 186.689 149.265C186.554 149.132 186.419 148.999 186.28 148.861C185.996 148.579 185.714 148.295 185.432 148.011C185.002 147.576 184.565 147.147 184.129 146.718C183.854 146.444 183.578 146.168 183.304 145.892C183.173 145.765 183.043 145.636 182.909 145.504C182.373 144.957 182.022 144.587 181.789 143.852C181.797 143.368 181.797 143.368 182.059 142.849C182.591 142.41 182.916 142.372 183.6 142.392C184.269 142.522 184.67 142.975 185.114 143.453C185.213 143.552 185.312 143.653 185.413 143.756C185.726 144.075 186.033 144.398 186.341 144.721C186.553 144.939 186.765 145.157 186.977 145.374C187.497 145.904 188.01 146.44 188.522 146.978C189.137 146.774 189.203 146.673 189.548 146.156C189.64 146.02 189.731 145.885 189.826 145.745C189.924 145.597 190.022 145.449 190.124 145.297C190.335 144.984 190.547 144.671 190.759 144.357C190.869 144.195 190.979 144.031 191.092 143.864C192.032 142.482 193.006 141.121 193.974 139.759C194.055 139.644 194.137 139.529 194.221 139.411C195.606 137.466 195.606 137.466 196.882 137.593Z" fill="#010302"/>
<path id="Vector_17" d="M131.074 78.3287C131.213 78.3294 131.352 78.3302 131.495 78.3309C132.01 78.3347 132.527 78.3448 133.042 78.3541C134.774 78.3765 134.774 78.3765 136.541 78.3992C136.541 80.9601 136.541 83.5209 136.541 86.1593C133.963 86.1593 131.383 86.1593 128.727 86.1593C128.712 85.0129 128.696 83.8665 128.681 82.6854C128.674 82.3244 128.668 81.9636 128.66 81.5918C128.659 81.3049 128.657 81.0181 128.655 80.7312C128.651 80.5829 128.647 80.4347 128.644 80.2819C128.644 79.6332 128.661 79.2323 128.993 78.6639C129.681 78.2682 130.293 78.3094 131.074 78.3287Z" fill="#5EB4FB"/>
<path id="Vector_18" d="M134.639 92.7609C134.845 92.7586 134.845 92.7586 135.054 92.7563C135.507 92.7521 135.958 92.7519 136.41 92.7522C136.725 92.7509 137.039 92.7495 137.354 92.748C138.013 92.7455 138.672 92.7452 139.332 92.7463C140.176 92.7474 141.02 92.7418 141.864 92.7345C142.514 92.7299 143.164 92.7293 143.814 92.73C144.124 92.7297 144.436 92.728 144.747 92.7248C145.182 92.7207 145.618 92.7225 146.053 92.7256C146.182 92.7233 146.309 92.7209 146.441 92.7184C147.136 92.7302 147.433 92.8263 147.987 93.254C148.355 93.7391 148.355 93.7391 148.367 94.3929C148.149 95.0794 148.066 95.2069 147.446 95.5433C146.976 95.5978 146.548 95.6218 146.077 95.62C145.872 95.6218 145.872 95.6218 145.662 95.6246C145.21 95.6283 144.758 95.6283 144.306 95.6283C143.991 95.6292 143.677 95.6311 143.362 95.6329C142.703 95.6348 142.044 95.6348 141.385 95.6338C140.54 95.6329 139.696 95.6385 138.852 95.6458C138.202 95.6505 137.553 95.6514 136.903 95.6505C136.592 95.6505 136.281 95.6523 135.969 95.656C135.534 95.6597 135.098 95.6579 134.663 95.6551C134.535 95.6569 134.407 95.6597 134.274 95.6625C133.581 95.6505 133.283 95.5544 132.729 95.1266C132.361 94.6415 132.361 94.6415 132.35 93.9872C132.729 92.7932 133.491 92.7562 134.639 92.7609Z" fill="#020202"/>
<path id="Vector_19" d="M134.623 103.775C134.825 103.774 134.825 103.774 135.032 103.772C135.479 103.77 135.924 103.772 136.37 103.773C136.681 103.773 136.992 103.772 137.302 103.772C137.953 103.771 138.603 103.772 139.254 103.774C140.088 103.778 140.921 103.776 141.753 103.772C142.395 103.771 143.037 103.772 143.678 103.772C143.985 103.773 144.292 103.772 144.599 103.772C145.029 103.771 145.459 103.772 145.889 103.775C146.078 103.773 146.078 103.773 146.271 103.772C147.053 103.782 147.56 103.897 148.173 104.387C148.378 104.996 148.378 104.996 148.355 105.65C147.874 106.283 147.599 106.525 146.805 106.667C146.556 106.672 146.306 106.673 146.056 106.669C145.851 106.671 145.851 106.671 145.641 106.674C145.19 106.677 144.74 106.676 144.288 106.672C143.974 106.673 143.66 106.674 143.346 106.675C142.688 106.677 142.029 106.674 141.371 106.67C140.528 106.665 139.686 106.668 138.843 106.673C138.194 106.677 137.544 106.676 136.896 106.673C136.585 106.673 136.274 106.673 135.963 106.676C135.529 106.677 135.094 106.674 134.66 106.669C134.532 106.671 134.405 106.673 134.273 106.675C133.58 106.66 133.283 106.562 132.73 106.135C132.361 105.65 132.361 105.65 132.35 104.996C132.727 103.808 133.479 103.765 134.623 103.775Z" fill="#020202"/>
<path id="Vector_20" d="M134.494 98.3375C134.635 98.3365 134.775 98.3356 134.92 98.3338C135.386 98.331 135.85 98.3328 136.314 98.3356C136.637 98.3347 136.961 98.3338 137.284 98.3328C137.961 98.3319 138.638 98.3338 139.315 98.3375C140.184 98.3411 141.051 98.3393 141.919 98.3347C142.586 98.3319 143.253 98.3328 143.921 98.3347C144.241 98.3347 144.561 98.3347 144.881 98.3328C145.328 98.331 145.775 98.3338 146.223 98.3375C146.355 98.3365 146.487 98.3347 146.623 98.3338C147.238 98.3439 147.577 98.3938 148.078 98.7588C148.355 99.1533 148.355 99.1533 148.367 99.7844C148.133 100.548 147.938 100.72 147.265 101.138C146.787 101.208 146.385 101.237 145.908 101.231C145.774 101.233 145.641 101.234 145.504 101.235C145.064 101.239 144.625 101.237 144.186 101.234C143.88 101.234 143.574 101.235 143.267 101.236C142.626 101.237 141.986 101.236 141.345 101.232C140.524 101.229 139.703 101.23 138.883 101.235C138.25 101.238 137.618 101.237 136.986 101.235C136.684 101.234 136.38 101.235 136.078 101.237C135.655 101.239 135.232 101.236 134.809 101.231C134.622 101.234 134.622 101.234 134.431 101.236C133.805 101.225 133.46 101.144 132.924 100.811C132.399 100.268 132.348 99.8981 132.361 99.1533C132.934 98.3356 133.561 98.3273 134.494 98.3375Z" fill="#070808"/>
<path id="Vector_21" d="M175.617 147.699C176.987 149.739 177.253 152.153 176.89 154.557C176.457 154.988 176.364 154.964 175.774 154.968C175.618 154.969 175.463 154.971 175.303 154.973C175.135 154.972 174.967 154.972 174.794 154.972C174.622 154.973 174.449 154.974 174.273 154.975C173.908 154.976 173.544 154.976 173.18 154.975C172.621 154.974 172.063 154.979 171.503 154.983C171.15 154.983 170.797 154.983 170.443 154.983C170.276 154.985 170.107 154.987 169.934 154.989C169.779 154.988 169.624 154.986 169.464 154.985C169.259 154.985 169.259 154.985 169.049 154.985C168.711 154.918 168.711 154.918 168.348 154.376C168.306 153.868 168.306 153.868 168.312 153.258C168.313 153.04 168.314 152.822 168.315 152.597C168.32 152.255 168.32 152.255 168.324 151.906C168.326 151.676 168.328 151.446 168.33 151.21C168.334 150.641 168.34 150.072 168.348 149.504C168.407 149.504 168.468 149.504 168.529 149.504C168.59 150.636 168.649 151.767 168.711 152.933C172.67 150.835 172.67 150.835 175.617 147.699Z" fill="#B4C2CD"/>
<path id="Vector_22" d="M172.346 122.253C173.832 122.146 174.932 122.551 176.117 123.449C177.189 124.443 177.667 125.588 177.719 127.036C177.64 128.738 177.123 129.995 175.847 131.151C174.529 132.132 173.229 132.288 171.619 132.179C171.726 132.132 171.833 132.086 171.942 132.038C173.141 131.386 173.821 130.184 174.225 128.928C174.605 127.224 174.436 125.607 173.618 124.058C173.298 123.596 172.963 123.164 172.599 122.737C172.346 122.434 172.346 122.434 172.346 122.253Z" fill="#B2C0CB"/>
<path id="Vector_23" d="M207.06 95.5433C208.08 95.5433 209.1 95.5433 210.15 95.5433C210.15 98.343 210.15 101.142 210.15 104.026C209.13 104.026 208.11 104.026 207.06 104.026C207.06 101.227 207.06 98.428 207.06 95.5433Z" fill="#FFD15B"/>
<path id="Vector_24" d="M135.002 109.351C135.282 109.35 135.282 109.35 135.569 109.35C135.963 109.35 136.358 109.352 136.753 109.355C137.357 109.361 137.961 109.359 138.565 109.357C138.95 109.358 139.333 109.36 139.716 109.362C139.897 109.361 140.078 109.361 140.264 109.36C140.433 109.363 140.601 109.364 140.775 109.367C140.923 109.368 141.071 109.369 141.224 109.37C141.738 109.459 141.987 109.618 142.357 109.982C142.5 110.969 142.5 110.969 142.357 111.425C141.817 112.015 141.39 112.196 140.609 112.243C140.274 112.249 139.938 112.251 139.603 112.249C139.425 112.25 139.246 112.251 139.063 112.253C138.687 112.254 138.311 112.253 137.935 112.251C137.361 112.248 136.787 112.255 136.213 112.261C135.847 112.261 135.481 112.261 135.116 112.26C134.859 112.264 134.859 112.264 134.596 112.268C133.765 112.256 133.388 112.235 132.707 111.723C132.361 111.245 132.361 111.245 132.259 110.692C132.547 109.195 133.736 109.336 135.002 109.351Z" fill="#060606"/>
</g>
</g>
</g>
</g>
<defs>
<clipPath id="clip0_4_2">
<rect width="340" height="239" fill="white"/>
</clipPath>
</defs>
</svg>
