<svg width="340" height="239" viewBox="0 0 340 239" fill="none" xmlns="http://www.w3.org/2000/svg">
<g clip-path="url(#clip0_5_94)">
<mask id="mask0_5_94" style="mask-type:luminance" maskUnits="userSpaceOnUse" x="0" y="0" width="340" height="239">
<path d="M340 0H0V239H340V0Z" fill="white"/>
</mask>
<g mask="url(#mask0_5_94)">
<path d="M340 0H0V239H340V0Z" fill="white"/>
<path d="M170.722 30.5C303.222 71.5 342.722 30.5 342.722 30.5V-9H170.722H8.22223C8.22223 -9 -19.2778 48.5 8.22223 30.5C35.7222 12.5 38.2222 -10.5 170.722 30.5Z" fill="#382CB8" fill-opacity="0.8"/>
<path d="M172 30.5C39.5 71.5 0 30.5 0 30.5V-9H172H334.5C334.5 -9 362 48.5 334.5 30.5C307 12.5 304.5 -10.5 172 30.5Z" fill="#382CB8" fill-opacity="0.9"/>
<path d="M26.7713 136.906C55.032 227.218 24.7367 253.466 24.7367 253.466L-4 252.964L-1.96544 136.405L-0.0432563 26.2827C-0.0432563 26.2827 42.114 8.37683 28.6935 26.7843C15.273 45.1917 -1.48939 46.5938 26.7713 136.906Z" fill="#382CB8" fill-opacity="0.96"/>
<path d="M28.7367 4.23138C28.7367 4.23138 44.8385 36.2794 16.5778 126.592C9.49201 149.236 5.23661 166.29 3.04926 179.425L3.6781 215.451C6.97902 224.513 13.0183 229.195 18.5 236.714C31.9205 255.121 3.95674 231.415 3.95674 231.415L3.6781 215.451C0.923866 207.89 0.0760612 197.279 3.04926 179.425L2.03456 121.293L0 4.73298L28.7367 4.23138Z" fill="#382CB8" fill-opacity="0.9"/>
<mask id="mask1_5_94" style="mask-type:luminance" maskUnits="userSpaceOnUse" x="112" y="56" width="100" height="100">
<path d="M212 56H112V156H212V56Z" fill="white"/>
</mask>
<g mask="url(#mask1_5_94)">
<path d="M178.211 56.7812C178.344 56.8231 178.477 56.865 178.614 56.9081C181.503 57.8386 183.926 59.2739 186.219 61.2734C186.352 61.3787 186.486 61.4839 186.623 61.5923C190.522 64.7339 192.926 70.049 193.599 74.9097C193.69 75.8444 193.68 76.7848 193.689 77.7232C193.695 78.1958 193.702 78.6685 193.708 79.1411C193.717 79.8799 193.726 80.6186 193.734 81.3574C193.794 86.873 194.267 91.1691 197.708 95.6683C199.73 98.3616 200.427 101.103 200.086 104.437C199.918 105.335 199.663 106.138 199.305 106.977C199.226 107.16 199.148 107.344 199.067 107.534C197.916 109.903 195.862 111.755 193.404 112.682C192.168 113.074 191.032 113.273 189.743 113.345C189.609 113.353 189.476 113.36 189.339 113.369C189.015 113.387 188.691 113.405 188.367 113.422C188.497 113.477 188.627 113.532 188.761 113.589C190.003 114.117 191.243 114.645 192.483 115.174C193.121 115.446 193.758 115.718 194.396 115.989C204.915 120.456 204.915 120.456 207.312 125.336C207.878 126.764 208.314 128.156 208.313 129.701C208.313 130.011 208.313 130.011 208.313 130.327C208.313 130.552 208.312 130.777 208.311 131.008C208.311 131.247 208.311 131.485 208.311 131.73C208.311 132.382 208.31 133.034 208.309 133.685C208.308 134.367 208.308 135.048 208.307 135.73C208.307 137.02 208.305 138.31 208.303 139.6C208.301 141.069 208.3 142.538 208.299 144.007C208.297 147.028 208.293 150.049 208.289 153.07C208.617 153.06 208.617 153.06 208.952 153.05C209.24 153.044 209.527 153.039 209.815 153.034C210.031 153.026 210.031 153.026 210.252 153.019C211.319 153.004 211.319 153.004 211.802 153.339C212.063 153.757 212.078 154.045 212.073 154.535C212.075 154.686 212.076 154.837 212.078 154.993C211.975 155.547 211.879 155.676 211.414 156C210.862 156.057 210.353 156.079 209.8 156.074C209.549 156.075 209.549 156.075 209.293 156.076C208.727 156.078 208.161 156.076 207.596 156.074C207.188 156.075 206.78 156.076 206.372 156.077C205.248 156.08 204.124 156.078 202.999 156.077C201.788 156.075 200.577 156.077 199.366 156.079C197.13 156.081 194.893 156.081 192.657 156.08C190.591 156.078 188.525 156.078 186.459 156.078C186.322 156.078 186.185 156.078 186.044 156.079C185.488 156.079 184.933 156.079 184.377 156.079C179.162 156.081 173.946 156.079 168.731 156.076C164.095 156.073 159.458 156.074 154.822 156.076C149.616 156.08 144.411 156.081 139.205 156.079C138.651 156.079 138.096 156.079 137.541 156.078C137.405 156.078 137.268 156.078 137.128 156.078C135.063 156.078 132.998 156.078 130.933 156.08C128.585 156.082 126.238 156.081 123.891 156.078C122.692 156.076 121.493 156.076 120.295 156.078C119.199 156.079 118.103 156.079 117.007 156.075C116.61 156.075 116.212 156.075 115.814 156.076C115.276 156.078 114.738 156.076 114.2 156.074C114.043 156.075 113.886 156.076 113.725 156.078C112.682 156.067 112.682 156.067 112.197 155.729C111.936 155.313 111.922 155.024 111.927 154.535C111.925 154.384 111.924 154.233 111.922 154.077C112.02 153.547 112.165 153.401 112.586 153.07C113.006 152.998 113.006 152.998 113.502 153C113.784 152.999 113.784 152.999 114.072 152.997C114.278 153 114.484 153.002 114.696 153.004C114.914 153.004 115.131 153.004 115.355 153.004C116.074 153.004 116.794 153.008 117.514 153.013C118.012 153.014 118.51 153.015 119.009 153.016C120.188 153.018 121.366 153.022 122.545 153.028C123.887 153.035 125.229 153.038 126.571 153.041C129.331 153.047 132.091 153.057 134.852 153.07C134.851 152.952 134.85 152.834 134.85 152.712C134.837 149.823 134.827 146.934 134.821 144.044C134.818 142.647 134.814 141.25 134.807 139.853C134.801 138.634 134.798 137.415 134.796 136.196C134.796 135.551 134.794 134.907 134.79 134.262C134.758 128.861 135.45 124.94 139.348 120.938C140.962 119.592 142.763 118.732 144.69 117.926C144.94 117.82 145.189 117.714 145.439 117.608C145.977 117.379 146.516 117.15 147.055 116.922C148.515 116.303 149.97 115.67 151.425 115.039C152.213 114.697 153.001 114.357 153.789 114.016C154.057 113.9 154.326 113.784 154.594 113.668C154.782 113.587 154.97 113.506 155.164 113.422C154.94 113.412 154.716 113.401 154.485 113.391C154.186 113.375 153.888 113.36 153.589 113.345C153.442 113.338 153.295 113.332 153.143 113.325C150.188 113.167 147.605 111.875 145.594 109.711C143.794 107.338 142.755 104.505 143.055 101.508C143.467 99.1666 144.216 97.415 145.708 95.5498C147.839 92.8734 149.497 89.51 149.534 86.0221C149.538 85.7197 149.538 85.7197 149.542 85.4111C149.544 85.1947 149.546 84.9782 149.548 84.7552C149.555 84.2911 149.561 83.8269 149.568 83.3628C149.577 82.6356 149.585 81.9085 149.593 81.1813C149.652 75.9043 149.652 75.9043 150.086 73.5781C150.127 73.3579 150.127 73.3579 150.169 73.1331C151.349 67.4983 154.904 62.5052 159.681 59.3581C161.65 58.1041 163.655 57.215 165.906 56.5859C166.114 56.5235 166.322 56.4611 166.536 56.3967C170.222 55.4656 174.595 55.6093 178.211 56.7812Z" fill="#EDEBED"/>
<path d="M178.211 56.7812C178.344 56.8231 178.477 56.865 178.614 56.9081C181.503 57.8386 183.926 59.2739 186.219 61.2734C186.352 61.3787 186.486 61.4839 186.623 61.5923C190.522 64.7339 192.926 70.049 193.599 74.9097C193.69 75.8444 193.68 76.7848 193.689 77.7232C193.695 78.1958 193.702 78.6685 193.708 79.1411C193.717 79.8799 193.726 80.6186 193.734 81.3574C193.794 86.873 194.267 91.1691 197.708 95.6683C199.73 98.3616 200.427 101.103 200.086 104.437C199.918 105.335 199.663 106.138 199.305 106.977C199.226 107.16 199.148 107.344 199.067 107.534C197.908 109.92 195.873 111.689 193.438 112.689C190.346 113.734 187.399 113.522 184.481 112.097C183.531 111.599 182.686 111.054 181.922 110.297C181.813 110.193 181.705 110.09 181.593 109.983C180.302 108.628 179.432 106.605 179.448 104.729C179.578 104.242 179.578 104.242 179.952 103.902C180.47 103.605 180.999 103.339 181.531 103.07C184.169 101.339 186.13 98.3538 186.805 95.2578C186.899 94.5426 186.961 93.8297 187 93.1094C186.842 93.2768 186.683 93.4442 186.52 93.6167C184.302 95.924 181.805 97.5927 178.742 98.5919C178.119 98.8048 177.736 99.1348 177.234 99.5547C176.264 99.8782 175.26 99.8024 174.244 99.811C174.023 99.8167 173.803 99.8224 173.576 99.8282C172.32 99.8378 171.545 99.8188 170.594 98.9687C170.441 98.8398 170.288 98.7109 170.13 98.5781C169.619 97.6349 169.647 96.6951 169.813 95.6484C170.187 94.8739 170.775 94.3981 171.57 94.0859C172.471 93.9966 173.375 94.0136 174.28 94.0127C174.528 94.0079 174.775 94.0031 175.03 93.9982C177.194 93.9914 177.194 93.9914 178.211 94.8672C178.859 95.1053 178.986 95.0646 179.677 94.8084C183.18 93.1336 185.44 90.6562 186.8 87.0142C187.183 85.5956 187.154 84.1573 187.159 82.6968C187.163 82.379 187.168 82.0612 187.174 81.7435C187.186 80.9748 187.192 80.2063 187.195 79.4375C187.068 79.4272 186.94 79.4169 186.808 79.4064C183.227 79.0888 180.059 77.3809 177.625 74.75C177.517 74.6339 177.409 74.5179 177.298 74.3983C176.512 73.5317 175.866 72.6379 175.281 71.625C175.142 71.7338 175.002 71.8425 174.858 71.9546C170.969 74.9326 166.718 76.9695 162.049 78.4121C161.864 78.4695 161.679 78.5269 161.489 78.5861C159.692 79.1264 158.015 79.4474 156.141 79.4375C156.148 81.3223 156.16 83.2071 156.177 85.0919C156.184 85.9673 156.191 86.8428 156.194 87.7183C156.197 88.5656 156.203 89.4127 156.213 90.26C156.215 90.5808 156.217 90.9016 156.217 91.2225C156.221 95.3404 157.285 98.8551 160.216 101.885C160.979 102.596 161.759 103.064 162.684 103.546C163.288 103.891 163.288 103.891 163.758 104.242C163.955 104.971 163.955 105.123 163.758 105.805C163.711 105.989 163.664 106.173 163.616 106.363C162.965 108.594 161.734 110.543 159.652 111.685C156.696 113.186 153.721 113.861 150.428 112.909C147.475 111.81 145.356 109.889 143.982 107.06C142.735 104.137 142.854 101.361 143.836 98.3828C144.311 97.3218 144.985 96.454 145.708 95.5498C147.839 92.8734 149.497 89.51 149.534 86.0221C149.537 85.8205 149.539 85.6189 149.542 85.4112C149.544 85.1947 149.546 84.9782 149.548 84.7552C149.555 84.2911 149.561 83.8269 149.568 83.3628C149.577 82.6356 149.585 81.9085 149.593 81.1813C149.652 75.9043 149.652 75.9043 150.086 73.5781C150.113 73.4313 150.141 73.2844 150.169 73.1331C151.349 67.4983 154.904 62.5052 159.681 59.3581C161.65 58.1041 163.655 57.215 165.906 56.5859C166.114 56.5235 166.322 56.4611 166.536 56.3967C170.222 55.4656 174.595 55.6093 178.211 56.7812Z" fill="#E02D2D"/>
<path d="M175.281 71.4297C175.901 72.1684 176.428 72.9472 176.948 73.7567C177.219 74.1688 177.219 74.1688 177.563 74.486C177.82 74.75 177.82 74.75 177.82 75.1406C177.932 75.1902 178.043 75.2398 178.158 75.2909C178.654 75.5598 179.03 75.8812 179.456 76.2515C181.771 78.1186 184.333 78.8706 187.195 79.4375C187.22 80.3645 187.237 81.2914 187.249 82.2187C187.254 82.5329 187.26 82.8471 187.269 83.1613C187.368 86.9025 186.133 89.719 183.558 92.4677C182.28 93.696 180.698 94.7346 178.992 95.2578C178.408 95.2203 178.198 95.0515 177.747 94.6658C176.756 93.9784 175.457 94.1694 174.305 94.1836C174.059 94.1806 173.813 94.1776 173.56 94.1744C171.814 94.1649 171.814 94.1649 170.398 95.0625C169.79 95.9758 169.868 96.9236 170.008 97.9922C170.379 98.769 170.973 99.2384 171.766 99.5547C172.569 99.6378 173.375 99.618 174.183 99.6157C174.402 99.6189 174.622 99.622 174.848 99.6253C176.144 99.626 177.167 99.6098 178.142 98.6537C178.229 98.5643 178.316 98.4749 178.406 98.3828C178.801 98.2556 179.197 98.129 179.593 98.0052C182.396 96.9834 184.551 95.4307 186.615 93.2932C187 92.9141 187 92.9141 187.195 92.9141C187.384 95.7409 185.942 98.5477 184.266 100.727C184.125 100.924 183.984 101.121 183.838 101.325C182.829 102.506 181.319 103.504 179.969 104.242C179.84 104.242 179.711 104.242 179.578 104.242C179.765 106.542 180.433 108.743 182.129 110.382C183.962 111.839 186.21 112.592 188.367 113.422C188.367 115.291 188.367 117.16 188.367 119.086C186.995 119.585 185.712 120.038 184.302 120.355C184.124 120.396 183.945 120.436 183.761 120.478C175.362 122.29 163.008 123.496 154.969 119.477C154.904 117.543 154.84 115.609 154.773 113.617C156.91 112.714 156.91 112.714 157.572 112.437C159.941 111.421 161.857 110.225 162.94 107.807C163.391 106.642 163.611 105.479 163.758 104.242C163.503 104.17 163.503 104.17 163.243 104.096C160.494 103.074 158.341 100.372 157.117 97.7969C156.504 96.1387 156.109 94.5766 156.118 92.8078C156.118 92.6629 156.118 92.5179 156.118 92.3686C156.119 91.892 156.12 91.4154 156.122 90.9388C156.122 90.6074 156.122 90.276 156.122 89.9446C156.123 89.0741 156.125 88.2037 156.127 87.3332C156.129 86.4442 156.13 85.5553 156.131 84.6663C156.133 82.9234 156.137 81.1804 156.141 79.4375C156.379 79.4034 156.618 79.3693 156.864 79.3342C158.743 79.0575 160.554 78.7272 162.366 78.1436C162.686 78.0425 162.686 78.0425 163.012 77.9395C167.213 76.5778 172.092 74.6188 175.281 71.4297Z" fill="#FECDBE"/>
<path d="M138.257 59.1128C138.558 59.3729 138.855 59.6374 139.148 59.9063C139.296 60.0359 139.444 60.1656 139.596 60.2992C142.817 63.2941 144.255 67.4041 144.415 71.7089C144.499 75.9557 142.778 79.7337 140.011 82.8532C139.539 83.3438 139.539 83.3438 138.953 83.7344C138.953 83.9922 138.953 84.25 138.953 84.5156C139.26 84.7883 139.26 84.7883 139.679 84.9848C139.829 85.066 139.979 85.1472 140.133 85.2309C140.453 85.3968 140.773 85.5621 141.093 85.7268C141.512 85.9547 141.902 86.1691 142.273 86.4688C142.377 87.0188 142.377 87.0188 142.273 87.4453C141.699 87.7324 141.187 87.6687 140.546 87.6721C140.409 87.6731 140.271 87.674 140.13 87.675C139.672 87.6779 139.215 87.6792 138.757 87.6803C138.437 87.6814 138.117 87.6826 137.797 87.6837C137.124 87.6857 136.451 87.6869 135.777 87.6875C134.924 87.6886 134.07 87.6933 133.217 87.6989C132.554 87.7026 131.891 87.7035 131.228 87.7038C130.914 87.7044 130.6 87.7059 130.286 87.7085C125.249 87.7472 120.914 86.582 117.151 83.0416C114.054 79.8379 112.495 75.6582 112.557 71.2222C112.784 66.7298 114.691 62.9234 117.886 59.8063C119.541 58.3681 121.447 57.2881 123.523 56.5859C123.701 56.5238 123.879 56.4616 124.062 56.3975C128.852 55.0116 134.335 56.0756 138.257 59.1128Z" fill="#2DC781"/>
<path d="M184.852 60.4922C188.134 61.629 190.379 65.8426 191.821 68.7792C193.131 71.6616 193.659 74.5751 193.689 77.7232C193.695 78.1958 193.702 78.6685 193.708 79.1411C193.717 79.8799 193.726 80.6186 193.734 81.3574C193.794 86.873 194.267 91.1691 197.708 95.6683C199.73 98.3616 200.427 101.103 200.086 104.437C199.918 105.335 199.663 106.138 199.305 106.977C199.226 107.16 199.148 107.344 199.067 107.534C197.908 109.92 195.873 111.689 193.438 112.689C190.346 113.734 187.399 113.522 184.481 112.097C183.531 111.599 182.686 111.054 181.922 110.297C181.813 110.193 181.705 110.09 181.593 109.983C180.302 108.628 179.432 106.605 179.448 104.729C179.578 104.242 179.578 104.242 179.952 103.902C180.47 103.605 180.999 103.339 181.531 103.07C184.169 101.339 186.13 98.3538 186.805 95.2578C186.899 94.5426 186.961 93.8297 187 93.1094C186.842 93.2768 186.683 93.4442 186.52 93.6167C184.302 95.924 181.805 97.5927 178.742 98.5919C178.119 98.8048 177.736 99.1348 177.234 99.5547C176.264 99.8782 175.26 99.8024 174.244 99.811C174.023 99.8167 173.803 99.8224 173.576 99.8282C172.32 99.8378 171.545 99.8188 170.594 98.9687C170.441 98.8398 170.288 98.7109 170.13 98.5781C169.619 97.6349 169.647 96.6951 169.813 95.6484C170.187 94.8739 170.775 94.3981 171.57 94.0859C172.471 93.9966 173.375 94.0136 174.28 94.0127C174.528 94.0079 174.775 94.0031 175.03 93.9982C177.194 93.9914 177.194 93.9914 178.211 94.8672C178.859 95.1053 178.986 95.0646 179.677 94.8084C183.18 93.1336 185.44 90.6562 186.8 87.0142C187.183 85.5956 187.154 84.1573 187.159 82.6968C187.163 82.379 187.168 82.0612 187.174 81.7435C187.186 80.9748 187.192 80.2063 187.195 79.4375C187.068 79.4272 186.94 79.4169 186.808 79.4064C183.227 79.0888 180.059 77.3809 177.625 74.75C177.515 74.6317 177.404 74.5133 177.291 74.3914C175.477 72.3934 175.477 72.3934 175.477 71.2344C175.864 70.875 175.864 70.875 176.404 70.4653C178.625 68.7003 180.426 66.668 182.117 64.3984C182.262 64.2041 182.408 64.0097 182.557 63.8094C183.355 62.7253 184.117 61.6198 184.852 60.4922Z" fill="#DA5D5D"/>
<path d="M154.969 113.812C154.969 118.002 154.969 122.191 154.969 126.508C151.526 126.557 151.526 126.557 150.446 126.566C150.161 126.572 149.875 126.578 149.59 126.584C149.371 126.584 149.371 126.584 149.148 126.585C148.144 126.612 147.553 126.811 146.766 127.484C145.542 129.169 146.225 131.761 146.451 133.708C146.495 134.095 146.538 134.483 146.581 134.87C146.627 135.276 146.673 135.683 146.72 136.089C146.816 136.928 146.91 137.768 147.003 138.608C147.026 138.817 147.026 138.817 147.05 139.031C147.081 139.312 147.113 139.593 147.144 139.874C147.19 140.293 147.237 140.712 147.284 141.132C147.524 143.283 147.756 145.435 147.974 147.589C148.006 147.911 148.039 148.233 148.072 148.555C148.118 148.993 148.162 149.432 148.205 149.871C148.229 150.11 148.253 150.348 148.278 150.594C148.335 151.418 148.328 152.245 148.328 153.07C143.945 153.07 139.563 153.07 135.047 153.07C135.016 147.022 135.016 147.022 135.008 144.023C135.003 142.404 134.998 140.785 134.988 139.167C134.98 137.885 134.975 136.603 134.973 135.321C134.972 134.643 134.97 133.965 134.964 133.287C134.958 132.527 134.958 131.768 134.958 131.008C134.955 130.787 134.953 130.566 134.95 130.339C134.967 127.014 136.328 124.091 138.629 121.747C138.8 121.578 138.972 121.409 139.148 121.234C139.27 121.114 139.391 120.993 139.515 120.868C141.114 119.389 143.3 118.575 145.264 117.707C145.508 117.598 145.753 117.49 145.997 117.381C146.64 117.096 147.284 116.812 147.928 116.528C148.335 116.348 148.742 116.168 149.149 115.987C149.824 115.688 150.499 115.391 151.174 115.094C151.432 114.981 151.69 114.867 151.948 114.753C152.307 114.593 152.668 114.436 153.029 114.279C153.234 114.188 153.439 114.098 153.651 114.005C154.188 113.812 154.188 113.812 154.969 113.812Z" fill="#382CB8" fill-opacity="0.9"/>
<path d="M188.367 113.617C190.346 114.277 190.346 114.277 191.256 114.66C191.459 114.746 191.662 114.831 191.872 114.919C192.193 115.056 192.193 115.056 192.521 115.195C192.747 115.291 192.973 115.386 193.206 115.485C193.683 115.687 194.159 115.889 194.635 116.091C195.118 116.297 195.602 116.502 196.086 116.705C196.79 117.002 197.494 117.3 198.198 117.6C198.411 117.689 198.624 117.778 198.843 117.871C202.653 119.502 205.835 121.758 207.435 125.693C207.927 127.032 208.314 128.268 208.313 129.701C208.313 130.011 208.313 130.011 208.313 130.327C208.312 130.664 208.312 130.664 208.311 131.008C208.311 131.247 208.311 131.485 208.311 131.73C208.311 132.382 208.31 133.034 208.309 133.685C208.308 134.367 208.308 135.048 208.307 135.73C208.307 137.02 208.305 138.31 208.303 139.6C208.301 141.213 208.3 142.826 208.299 144.44C208.297 147.316 208.293 150.193 208.289 153.07C204.357 153.07 200.426 153.07 196.375 153.07C196.495 151.505 196.622 149.948 196.793 148.388C196.825 148.092 196.825 148.092 196.857 147.79C196.903 147.366 196.949 146.942 196.995 146.519C197.093 145.615 197.189 144.712 197.286 143.808C197.465 142.131 197.644 140.455 197.826 138.778C197.954 137.607 198.079 136.435 198.203 135.263C198.251 134.819 198.299 134.374 198.347 133.93C198.416 133.308 198.481 132.687 198.547 132.065C198.567 131.884 198.588 131.702 198.609 131.515C198.808 129.602 198.808 129.602 198.269 127.802C198.167 127.697 198.066 127.592 197.962 127.484C197.862 127.376 197.762 127.267 197.658 127.155C197.123 126.707 196.597 126.677 195.928 126.663C195.758 126.659 195.587 126.655 195.412 126.651C195.233 126.648 195.055 126.645 194.871 126.641C194.707 126.638 194.542 126.634 194.373 126.63C193.758 126.617 193.144 126.605 192.53 126.593C191.156 126.565 189.782 126.537 188.367 126.508C188.367 122.254 188.367 118 188.367 113.617Z" fill="#382CB8" fill-opacity="0.9"/>
<path d="M134.852 129.633C134.916 129.633 134.98 129.633 135.047 129.633C135.047 137.367 135.047 145.102 135.047 153.07C139.43 153.07 143.812 153.07 148.328 153.07C148.393 152.941 148.457 152.813 148.523 152.68C148.523 152.809 148.523 152.937 148.523 153.07C148.656 153.07 148.789 153.07 148.926 153.07C156.794 153.057 164.661 153.046 172.529 153.04C173.473 153.04 174.417 153.039 175.361 153.038C175.549 153.038 175.737 153.038 175.93 153.038C178.976 153.035 182.022 153.03 185.068 153.025C188.192 153.02 191.316 153.016 194.439 153.015C196.368 153.014 198.297 153.012 200.225 153.007C201.546 153.004 202.868 153.003 204.189 153.004C204.952 153.004 205.715 153.004 206.478 153C207.304 152.997 208.13 152.998 208.956 153C209.321 152.997 209.321 152.997 209.692 152.995C209.913 152.996 210.133 152.997 210.36 152.998C210.551 152.998 210.741 152.998 210.938 152.998C211.495 153.083 211.669 153.208 212 153.656C212.078 154.077 212.078 154.077 212.073 154.535C212.075 154.686 212.076 154.837 212.078 154.993C211.975 155.547 211.879 155.676 211.414 156C210.862 156.057 210.353 156.079 209.8 156.074C209.633 156.075 209.465 156.075 209.293 156.076C208.727 156.078 208.161 156.076 207.596 156.074C207.188 156.075 206.78 156.076 206.372 156.077C205.248 156.08 204.124 156.078 202.999 156.077C201.788 156.075 200.577 156.077 199.366 156.079C197.13 156.081 194.893 156.081 192.657 156.08C190.591 156.078 188.525 156.078 186.459 156.078C186.322 156.078 186.185 156.078 186.044 156.079C185.488 156.079 184.933 156.079 184.377 156.079C179.162 156.081 173.946 156.079 168.731 156.076C164.095 156.073 159.458 156.074 154.822 156.076C149.616 156.08 144.411 156.081 139.205 156.079C138.651 156.079 138.096 156.079 137.541 156.078C137.405 156.078 137.268 156.078 137.128 156.078C135.063 156.078 132.998 156.078 130.933 156.08C128.585 156.082 126.238 156.081 123.891 156.078C122.692 156.076 121.493 156.076 120.295 156.078C119.199 156.079 118.103 156.079 117.007 156.075C116.61 156.075 116.212 156.075 115.814 156.077C115.276 156.078 114.738 156.076 114.2 156.074C114.043 156.075 113.886 156.076 113.725 156.078C112.682 156.067 112.682 156.067 112.197 155.729C111.936 155.313 111.922 155.024 111.927 154.535C111.925 154.384 111.924 154.233 111.922 154.077C112.02 153.547 112.165 153.401 112.586 153.07C113.006 152.998 113.006 152.998 113.502 153C113.783 152.999 113.783 152.999 114.071 152.997C114.277 153 114.484 153.002 114.696 153.004C114.917 153.004 115.138 153.004 115.365 153.004C116.082 153.004 116.798 153.008 117.514 153.013C117.955 153.014 118.397 153.015 118.838 153.015C120.477 153.018 122.116 153.026 123.755 153.034C129.248 153.052 129.248 153.052 134.852 153.07C134.852 145.336 134.852 137.602 134.852 129.633Z" fill="#C8BEC8"/>
<path d="M184.852 60.4922C188.134 61.629 190.379 65.8426 191.821 68.7792C193.086 71.561 193.68 74.4208 193.653 77.4722C193.652 77.6616 193.651 77.8511 193.65 78.0463C193.648 78.51 193.645 78.9738 193.641 79.4375C189.736 80.3462 185.257 79.7847 181.727 77.875C181.563 77.7866 181.399 77.6983 181.231 77.6072C178.781 76.208 176.732 74.383 175.477 71.8203C175.477 71.627 175.477 71.4336 175.477 71.2344C175.864 70.875 175.864 70.875 176.404 70.4653C178.625 68.7003 180.426 66.668 182.117 64.3984C182.262 64.2041 182.408 64.0097 182.557 63.8094C183.355 62.7253 184.117 61.6198 184.852 60.4922Z" fill="#EA5353"/>
<path d="M127.674 55.9256C132.056 55.9332 135.844 56.8742 139.148 59.9063C139.296 60.0359 139.444 60.1656 139.596 60.2992C142.817 63.2941 144.255 67.4041 144.415 71.7089C144.499 75.9557 142.778 79.7337 140.011 82.8532C139.539 83.3438 139.539 83.3438 138.953 83.7344C138.953 83.9922 138.953 84.25 138.953 84.5156C139.26 84.7883 139.26 84.7883 139.679 84.9848C139.829 85.066 139.979 85.1472 140.133 85.2309C140.453 85.3968 140.773 85.5621 141.093 85.7268C141.512 85.9547 141.902 86.1691 142.273 86.4688C142.377 87.0188 142.377 87.0188 142.273 87.4453C141.693 87.7357 141.167 87.6623 140.52 87.6597C140.319 87.6593 140.319 87.6593 140.115 87.6589C139.687 87.6578 139.259 87.6553 138.831 87.6528C138.541 87.6519 138.251 87.651 137.961 87.6502C137.25 87.648 136.539 87.6446 135.828 87.6406C135.893 87.3184 135.957 86.9961 136.023 86.6641C135.842 86.5271 135.661 86.3901 135.474 86.249C134.74 85.6259 134.356 85.0441 134.19 84.0754C134.088 82.6258 134.644 81.7755 135.438 80.6094C137.865 76.7866 138.699 72.4242 137.766 67.9476C137.171 65.592 136.041 63.5016 134.461 61.6641C134.364 61.5369 134.267 61.4098 134.167 61.2788C132.099 58.671 128.852 57.117 125.672 56.3906C126.267 55.7953 126.86 55.9372 127.674 55.9256Z" fill="#57BE92"/>
<path d="M188.367 119.086C188.367 121.535 188.367 123.984 188.367 126.508C177.346 126.508 166.324 126.508 154.969 126.508C154.969 124.187 154.969 121.867 154.969 119.477C155.529 119.593 156.089 119.71 156.666 119.831C156.852 119.869 157.038 119.908 157.23 119.948C158.118 120.134 158.997 120.336 159.876 120.563C161.913 121.043 164.024 121.211 166.102 121.43C166.28 121.449 166.458 121.468 166.642 121.488C173.467 122.171 181.039 121.418 187.548 119.223C187.977 119.086 187.977 119.086 188.367 119.086Z" fill="#FEFEFE"/>
<path d="M179.578 104.242C179.59 104.394 179.603 104.545 179.616 104.701C179.828 106.578 180.425 108.811 181.922 110.102C181.825 110.392 181.825 110.392 181.727 110.687C179.708 111.557 177.559 111.586 175.399 111.56C174.891 111.554 174.384 111.556 173.876 111.558C169.985 111.554 166.475 110.808 163.402 108.242C163.172 107.953 163.172 107.953 163.209 107.367C163.259 107.106 163.312 106.846 163.367 106.586C163.437 106.199 163.506 105.813 163.575 105.426C163.635 105.097 163.696 104.767 163.758 104.437C164.407 104.556 165.012 104.719 165.636 104.932C166.721 105.262 167.734 105.31 168.862 105.31C169.165 105.313 169.165 105.313 169.475 105.315C169.901 105.317 170.326 105.317 170.752 105.317C171.394 105.316 172.035 105.325 172.677 105.333C175.054 105.346 177.391 104.242 179.578 104.242Z" fill="#FEB09E"/>
<path d="M187 86.6641C187.064 86.6641 187.129 86.6641 187.195 86.6641C187.229 87.4977 187.254 88.3309 187.27 89.1651C187.277 89.4481 187.287 89.7311 187.298 90.014C187.407 92.6657 187.407 92.6657 186.546 93.6518C186.311 93.8668 186.072 94.0769 185.828 94.2812C185.614 94.5111 185.402 94.7428 185.193 94.9771C183.47 96.6588 181.022 97.8481 178.742 98.5919C178.119 98.8048 177.736 99.1348 177.234 99.5547C176.264 99.8782 175.26 99.8024 174.244 99.811C173.913 99.8195 173.913 99.8195 173.576 99.8282C172.32 99.8378 171.545 99.8188 170.594 98.9687C170.441 98.8398 170.288 98.7109 170.13 98.5781C169.619 97.6349 169.647 96.6951 169.813 95.6484C170.187 94.8739 170.775 94.3981 171.57 94.0859C172.471 93.9966 173.375 94.0136 174.28 94.0127C174.528 94.0079 174.775 94.0031 175.03 93.9982C177.194 93.9914 177.194 93.9914 178.211 94.8672C178.859 95.1053 178.986 95.0646 179.677 94.8084C183.367 93.0442 185.481 90.4055 187 86.6641Z" fill="#695E68"/>
<path d="M174.528 136.793C175.374 137.404 176.063 138.232 176.453 139.203C176.629 140.635 176.566 141.938 175.672 143.109C174.702 144.139 173.815 144.676 172.388 144.745C171.2 144.715 170.346 144.38 169.469 143.576C168.449 142.464 168.15 141.387 168.19 139.891C168.31 138.9 168.668 138.177 169.397 137.493C170.996 136.241 172.669 135.75 174.528 136.793Z" fill="#C9BFC8"/>
<path d="M187 86.6641C187.064 86.6641 187.129 86.6641 187.195 86.6641C187.229 87.4977 187.254 88.3309 187.27 89.1651C187.277 89.4481 187.287 89.7311 187.298 90.014C187.407 92.6657 187.407 92.6657 186.546 93.6518C186.311 93.8668 186.072 94.0769 185.828 94.2812C185.614 94.5111 185.402 94.7428 185.193 94.9771C183.92 96.2193 182.354 97.0265 180.762 97.7847C180.637 97.8446 180.513 97.9045 180.384 97.9662C179.728 98.2683 179.339 98.3828 178.602 98.3828C178.62 98.2391 178.639 98.0953 178.658 97.9472C178.69 97.6613 178.69 97.6613 178.724 97.3696C178.746 97.1816 178.769 96.9935 178.792 96.7997C178.797 96.1874 178.669 95.8057 178.406 95.2578C178.551 95.2032 178.695 95.1485 178.843 95.0923C182.654 93.5864 184.937 91.2608 186.622 87.5674C186.75 87.2673 186.877 86.9665 187 86.6641Z" fill="#7C6E7A"/>
<path d="M135.047 70.2578C135.511 70.563 135.511 70.563 135.828 71.0391C135.938 71.8086 135.946 72.2222 135.523 72.8823C134.858 73.3086 134.454 73.312 133.68 73.1875C133.191 72.7847 133.191 72.7847 132.898 72.2109C132.898 71.4661 132.928 71.0343 133.423 70.4653C134.019 70.1918 134.398 70.1632 135.047 70.2578Z" fill="#F9FCFB"/>
<path d="M128.992 70.2578C129.566 70.6606 129.566 70.6606 129.969 71.2344C129.969 71.9265 129.902 72.3801 129.554 72.98C128.956 73.3186 128.491 73.2698 127.82 73.1875C127.344 72.8823 127.344 72.8823 127.039 72.4062C126.928 71.6299 126.917 71.2217 127.356 70.563C127.968 70.1606 128.273 70.1256 128.992 70.2578Z" fill="#FAFDFC"/>
<path d="M123.133 70.2578C123.597 70.5508 123.597 70.5508 123.914 71.0391C124.028 71.6178 123.991 71.9964 123.914 72.6016C123.485 73.1297 123.219 73.1767 122.547 73.2607C121.875 73.1767 121.609 73.1297 121.18 72.6016C121.069 71.7311 121.019 71.2869 121.497 70.5508C122.102 70.1688 122.429 70.1406 123.133 70.2578Z" fill="#FBFDFC"/>
</g>
<path d="M134.788 197.246H133.246C133.155 196.803 132.995 196.413 132.767 196.077C132.543 195.742 132.27 195.46 131.947 195.232C131.627 195 131.273 194.826 130.883 194.71C130.494 194.594 130.088 194.536 129.665 194.536C128.894 194.536 128.195 194.73 127.57 195.12C126.948 195.51 126.453 196.084 126.084 196.842C125.719 197.601 125.537 198.531 125.537 199.634C125.537 200.736 125.719 201.667 126.084 202.425C126.453 203.184 126.948 203.758 127.57 204.147C128.195 204.537 128.894 204.732 129.665 204.732C130.088 204.732 130.494 204.674 130.883 204.558C131.273 204.442 131.627 204.27 131.947 204.042C132.27 203.809 132.543 203.526 132.767 203.19C132.995 202.85 133.155 202.46 133.246 202.021H134.788C134.672 202.672 134.46 203.254 134.154 203.768C133.847 204.282 133.466 204.719 133.01 205.08C132.554 205.436 132.042 205.708 131.474 205.894C130.91 206.081 130.307 206.174 129.665 206.174C128.579 206.174 127.613 205.909 126.768 205.378C125.922 204.848 125.257 204.093 124.772 203.115C124.287 202.137 124.044 200.977 124.044 199.634C124.044 198.291 124.287 197.13 124.772 196.152C125.257 195.174 125.922 194.419 126.768 193.889C127.613 193.358 128.579 193.093 129.665 193.093C130.307 193.093 130.91 193.186 131.474 193.373C132.042 193.559 132.554 193.833 133.01 194.194C133.466 194.55 133.847 194.985 134.154 195.499C134.46 196.009 134.672 196.591 134.788 197.246ZM140.96 206.199C140.098 206.199 139.341 205.994 138.691 205.583C138.044 205.173 137.538 204.599 137.174 203.861C136.813 203.124 136.633 202.261 136.633 201.275C136.633 200.28 136.813 199.412 137.174 198.67C137.538 197.928 138.044 197.352 138.691 196.942C139.341 196.531 140.098 196.326 140.96 196.326C141.822 196.326 142.576 196.531 143.223 196.942C143.874 197.352 144.379 197.928 144.74 198.67C145.105 199.412 145.287 200.28 145.287 201.275C145.287 202.261 145.105 203.124 144.74 203.861C144.379 204.599 143.874 205.173 143.223 205.583C142.576 205.994 141.822 206.199 140.96 206.199ZM140.96 204.881C141.615 204.881 142.154 204.713 142.576 204.377C142.999 204.042 143.312 203.6 143.515 203.053C143.718 202.506 143.82 201.913 143.82 201.275C143.82 200.637 143.718 200.042 143.515 199.491C143.312 198.939 142.999 198.494 142.576 198.154C142.154 197.814 141.615 197.644 140.96 197.644C140.305 197.644 139.766 197.814 139.343 198.154C138.921 198.494 138.608 198.939 138.405 199.491C138.201 200.042 138.1 200.637 138.1 201.275C138.1 201.913 138.201 202.506 138.405 203.053C138.608 203.6 138.921 204.042 139.343 204.377C139.766 204.713 140.305 204.881 140.96 204.881ZM148.994 200.255V206H147.527V196.45H148.944V197.943H149.069C149.292 197.458 149.632 197.068 150.088 196.774C150.544 196.475 151.133 196.326 151.854 196.326C152.5 196.326 153.066 196.459 153.551 196.724C154.036 196.985 154.413 197.383 154.683 197.918C154.952 198.448 155.087 199.12 155.087 199.932V206H153.62V200.032C153.62 199.281 153.425 198.697 153.035 198.278C152.646 197.856 152.111 197.644 151.431 197.644C150.963 197.644 150.544 197.746 150.175 197.949C149.81 198.152 149.522 198.448 149.311 198.838C149.1 199.227 148.994 199.7 148.994 200.255ZM164.532 198.589L163.214 198.962C163.131 198.742 163.009 198.529 162.847 198.322C162.69 198.11 162.474 197.936 162.201 197.8C161.927 197.663 161.577 197.594 161.15 197.594C160.566 197.594 160.079 197.729 159.689 197.999C159.304 198.264 159.111 198.602 159.111 199.012C159.111 199.377 159.243 199.665 159.509 199.876C159.774 200.087 160.188 200.264 160.752 200.405L162.17 200.753C163.024 200.96 163.66 201.277 164.078 201.704C164.497 202.127 164.706 202.672 164.706 203.339C164.706 203.886 164.549 204.375 164.234 204.806C163.923 205.237 163.488 205.577 162.928 205.826C162.369 206.075 161.718 206.199 160.976 206.199C160.002 206.199 159.196 205.988 158.558 205.565C157.919 205.142 157.515 204.524 157.345 203.712L158.738 203.364C158.87 203.878 159.121 204.263 159.49 204.52C159.863 204.777 160.35 204.906 160.951 204.906C161.635 204.906 162.178 204.761 162.58 204.471C162.986 204.176 163.189 203.824 163.189 203.414C163.189 203.082 163.073 202.804 162.841 202.581C162.609 202.353 162.253 202.183 161.772 202.071L160.18 201.698C159.306 201.49 158.663 201.169 158.253 200.734C157.847 200.295 157.644 199.746 157.644 199.087C157.644 198.548 157.795 198.071 158.097 197.657C158.404 197.242 158.821 196.917 159.347 196.68C159.878 196.444 160.479 196.326 161.15 196.326C162.095 196.326 162.837 196.533 163.376 196.948C163.919 197.362 164.304 197.909 164.532 198.589ZM172.933 202.096V196.45H174.4V206H172.933V204.384H172.834C172.61 204.868 172.262 205.281 171.789 205.621C171.317 205.956 170.72 206.124 169.999 206.124C169.402 206.124 168.871 205.994 168.407 205.733C167.943 205.467 167.578 205.069 167.313 204.539C167.048 204.004 166.915 203.331 166.915 202.518V196.45H168.382V202.419C168.382 203.115 168.577 203.671 168.967 204.085C169.36 204.5 169.862 204.707 170.471 204.707C170.836 204.707 171.207 204.614 171.584 204.427C171.965 204.241 172.285 203.955 172.541 203.569C172.803 203.184 172.933 202.692 172.933 202.096ZM178.555 193.267V206H177.088V193.267H178.555ZM185.395 196.45V197.694H180.447V196.45H185.395ZM181.889 194.163H183.356V203.264C183.356 203.679 183.416 203.99 183.537 204.197C183.661 204.4 183.818 204.537 184.009 204.607C184.204 204.674 184.409 204.707 184.625 204.707C184.786 204.707 184.919 204.699 185.022 204.682C185.126 204.661 185.209 204.645 185.271 204.632L185.57 205.95C185.47 205.988 185.331 206.025 185.153 206.062C184.975 206.104 184.749 206.124 184.475 206.124C184.061 206.124 183.655 206.035 183.257 205.857C182.863 205.679 182.536 205.407 182.274 205.043C182.017 204.678 181.889 204.218 181.889 203.662V194.163ZM190.413 206.224C189.808 206.224 189.258 206.11 188.765 205.882C188.272 205.65 187.88 205.316 187.59 204.881C187.3 204.442 187.155 203.911 187.155 203.289C187.155 202.742 187.263 202.299 187.478 201.959C187.694 201.615 187.982 201.345 188.342 201.151C188.703 200.956 189.101 200.811 189.536 200.715C189.975 200.616 190.417 200.537 190.86 200.479C191.441 200.405 191.911 200.349 192.272 200.311C192.636 200.27 192.902 200.201 193.067 200.106C193.237 200.011 193.322 199.845 193.322 199.609V199.559C193.322 198.946 193.154 198.469 192.819 198.129C192.487 197.789 191.984 197.619 191.308 197.619C190.608 197.619 190.058 197.773 189.66 198.079C189.263 198.386 188.983 198.713 188.821 199.062L187.428 198.564C187.677 197.984 188.009 197.532 188.423 197.209C188.842 196.881 189.298 196.654 189.791 196.525C190.288 196.392 190.777 196.326 191.258 196.326C191.565 196.326 191.917 196.363 192.315 196.438C192.717 196.508 193.105 196.656 193.478 196.879C193.855 197.103 194.168 197.441 194.417 197.893C194.665 198.345 194.79 198.95 194.79 199.708V206H193.322V204.707H193.248C193.148 204.914 192.982 205.136 192.75 205.372C192.518 205.608 192.209 205.809 191.824 205.975C191.439 206.141 190.968 206.224 190.413 206.224ZM190.637 204.906C191.217 204.906 191.706 204.792 192.104 204.564C192.506 204.336 192.808 204.042 193.012 203.681C193.219 203.32 193.322 202.941 193.322 202.543V201.2C193.26 201.275 193.123 201.343 192.912 201.406C192.705 201.464 192.464 201.515 192.191 201.561C191.921 201.602 191.658 201.64 191.401 201.673C191.148 201.702 190.943 201.727 190.786 201.747C190.404 201.797 190.048 201.878 189.716 201.99C189.389 202.098 189.124 202.261 188.921 202.481C188.722 202.697 188.622 202.991 188.622 203.364C188.622 203.874 188.811 204.259 189.188 204.52C189.569 204.777 190.052 204.906 190.637 204.906ZM198.935 200.255V206H197.468V196.45H198.885V197.943H199.01C199.233 197.458 199.573 197.068 200.029 196.774C200.485 196.475 201.074 196.326 201.795 196.326C202.441 196.326 203.007 196.459 203.492 196.724C203.977 196.985 204.354 197.383 204.624 197.918C204.893 198.448 205.028 199.12 205.028 199.932V206H203.56V200.032C203.56 199.281 203.366 198.697 202.976 198.278C202.586 197.856 202.052 197.644 201.372 197.644C200.904 197.644 200.485 197.746 200.116 197.949C199.751 198.152 199.463 198.448 199.252 198.838C199.041 199.227 198.935 199.7 198.935 200.255ZM211.588 206.199C210.693 206.199 209.922 205.988 209.276 205.565C208.629 205.142 208.132 204.56 207.783 203.818C207.435 203.076 207.261 202.228 207.261 201.275C207.261 200.305 207.439 199.449 207.796 198.707C208.157 197.961 208.658 197.379 209.3 196.96C209.947 196.537 210.701 196.326 211.564 196.326C212.235 196.326 212.84 196.45 213.379 196.699C213.918 196.948 214.359 197.296 214.703 197.744C215.047 198.191 215.261 198.713 215.344 199.31H213.876C213.764 198.875 213.516 198.49 213.13 198.154C212.749 197.814 212.235 197.644 211.588 197.644C211.016 197.644 210.515 197.793 210.084 198.092C209.657 198.386 209.323 198.803 209.083 199.341C208.847 199.876 208.728 200.504 208.728 201.225C208.728 201.963 208.845 202.605 209.077 203.153C209.313 203.7 209.644 204.124 210.071 204.427C210.502 204.73 211.008 204.881 211.588 204.881C211.97 204.881 212.316 204.815 212.627 204.682C212.938 204.549 213.201 204.359 213.416 204.11C213.632 203.861 213.785 203.563 213.876 203.215H215.344C215.261 203.778 215.055 204.286 214.728 204.738C214.405 205.186 213.976 205.542 213.441 205.807C212.911 206.068 212.293 206.199 211.588 206.199ZM218.433 209.581C218.185 209.581 217.963 209.56 217.768 209.519C217.573 209.482 217.439 209.444 217.364 209.407L217.737 208.114C218.094 208.205 218.409 208.238 218.682 208.213C218.956 208.188 219.198 208.066 219.41 207.846C219.625 207.631 219.822 207.281 220 206.796L220.274 206.05L216.742 196.45H218.334L220.97 204.06H221.07L223.706 196.45H225.297L221.244 207.393C221.061 207.886 220.835 208.294 220.566 208.617C220.297 208.945 219.984 209.187 219.627 209.345C219.275 209.502 218.877 209.581 218.433 209.581Z" fill="#5E5E5E"/>
<path d="M103.327 184L97.6123 163.1H100.184L104.552 180.122H104.756L109.205 163.1H112.062L116.512 180.122H116.716L121.083 163.1H123.655L117.94 184H115.328L110.715 167.346H110.552L105.939 184H103.327ZM131.594 184.327C130.084 184.327 128.781 183.993 127.686 183.326C126.597 182.653 125.757 181.714 125.165 180.51C124.58 179.299 124.288 177.891 124.288 176.285C124.288 174.68 124.58 173.265 125.165 172.04C125.757 170.809 126.58 169.849 127.635 169.162C128.696 168.468 129.934 168.121 131.35 168.121C132.166 168.121 132.972 168.257 133.768 168.529C134.564 168.802 135.289 169.244 135.942 169.856C136.595 170.462 137.115 171.264 137.503 172.264C137.891 173.265 138.085 174.496 138.085 175.959V176.979H126.002V174.897H135.636C135.636 174.013 135.459 173.224 135.105 172.53C134.758 171.836 134.261 171.288 133.615 170.887C132.975 170.485 132.22 170.285 131.35 170.285C130.39 170.285 129.56 170.523 128.86 170.999C128.166 171.468 127.632 172.081 127.257 172.836C126.883 173.591 126.696 174.401 126.696 175.265V176.653C126.696 177.836 126.9 178.84 127.308 179.663C127.723 180.479 128.298 181.102 129.033 181.53C129.768 181.952 130.622 182.163 131.594 182.163C132.227 182.163 132.799 182.075 133.309 181.898C133.826 181.714 134.271 181.442 134.646 181.081C135.02 180.714 135.309 180.258 135.513 179.714L137.84 180.367C137.595 181.156 137.183 181.85 136.605 182.449C136.027 183.041 135.312 183.503 134.462 183.837C133.612 184.163 132.656 184.327 131.594 184.327ZM142.075 184V163.1H144.483V170.815H144.687C144.864 170.543 145.109 170.196 145.422 169.774C145.742 169.346 146.198 168.965 146.789 168.632C147.388 168.291 148.198 168.121 149.218 168.121C150.538 168.121 151.701 168.451 152.708 169.111C153.715 169.771 154.501 170.706 155.066 171.917C155.63 173.128 155.913 174.557 155.913 176.203C155.913 177.863 155.63 179.302 155.066 180.52C154.501 181.731 153.719 182.67 152.718 183.337C151.718 183.997 150.565 184.327 149.259 184.327C148.252 184.327 147.446 184.16 146.84 183.827C146.235 183.486 145.769 183.102 145.442 182.673C145.116 182.238 144.864 181.877 144.687 181.592H144.402V184H142.075ZM144.442 176.163C144.442 177.346 144.616 178.391 144.963 179.296C145.31 180.194 145.817 180.898 146.483 181.408C147.15 181.911 147.966 182.163 148.932 182.163C149.939 182.163 150.78 181.898 151.453 181.367C152.133 180.83 152.644 180.109 152.984 179.204C153.331 178.292 153.504 177.278 153.504 176.163C153.504 175.061 153.334 174.067 152.994 173.183C152.661 172.292 152.154 171.588 151.473 171.07C150.8 170.547 149.953 170.285 148.932 170.285C147.953 170.285 147.13 170.533 146.463 171.03C145.796 171.519 145.293 172.207 144.953 173.091C144.612 173.969 144.442 174.993 144.442 176.163ZM174.455 184H168.005V163.1H174.741C176.768 163.1 178.503 163.519 179.945 164.356C181.387 165.186 182.493 166.38 183.262 167.938C184.03 169.489 184.415 171.346 184.415 173.509C184.415 175.686 184.027 177.561 183.251 179.132C182.476 180.697 181.346 181.901 179.863 182.745C178.38 183.582 176.577 184 174.455 184ZM170.536 181.755H174.291C176.02 181.755 177.452 181.422 178.588 180.755C179.724 180.088 180.571 179.139 181.129 177.908C181.687 176.676 181.966 175.21 181.966 173.509C181.966 171.822 181.69 170.37 181.139 169.152C180.588 167.927 179.765 166.989 178.669 166.335C177.574 165.675 176.21 165.346 174.577 165.346H170.536V181.755ZM194.905 184.327C193.395 184.327 192.092 183.993 190.997 183.326C189.908 182.653 189.068 181.714 188.476 180.51C187.891 179.299 187.599 177.891 187.599 176.285C187.599 174.68 187.891 173.265 188.476 172.04C189.068 170.809 189.891 169.849 190.946 169.162C192.007 168.468 193.245 168.121 194.66 168.121C195.477 168.121 196.283 168.257 197.079 168.529C197.875 168.802 198.599 169.244 199.253 169.856C199.906 170.462 200.426 171.264 200.814 172.264C201.202 173.265 201.396 174.496 201.396 175.959V176.979H189.313V174.897H198.946C198.946 174.013 198.77 173.224 198.416 172.53C198.069 171.836 197.572 171.288 196.926 170.887C196.286 170.485 195.531 170.285 194.66 170.285C193.701 170.285 192.871 170.523 192.17 170.999C191.476 171.468 190.942 172.081 190.568 172.836C190.194 173.591 190.007 174.401 190.007 175.265V176.653C190.007 177.836 190.211 178.84 190.619 179.663C191.034 180.479 191.609 181.102 192.344 181.53C193.079 181.952 193.932 182.163 194.905 182.163C195.538 182.163 196.109 182.075 196.62 181.898C197.137 181.714 197.582 181.442 197.957 181.081C198.331 180.714 198.62 180.258 198.824 179.714L201.151 180.367C200.906 181.156 200.494 181.85 199.916 182.449C199.338 183.041 198.623 183.503 197.773 183.837C196.922 184.163 195.967 184.327 194.905 184.327ZM216.162 171.836L213.999 172.448C213.862 172.088 213.662 171.737 213.396 171.397C213.138 171.05 212.784 170.764 212.335 170.54C211.886 170.315 211.311 170.203 210.611 170.203C209.651 170.203 208.852 170.424 208.212 170.866C207.58 171.302 207.263 171.856 207.263 172.53C207.263 173.128 207.481 173.601 207.916 173.948C208.352 174.295 209.032 174.584 209.957 174.816L212.284 175.387C213.686 175.727 214.73 176.248 215.417 176.948C216.104 177.642 216.448 178.537 216.448 179.632C216.448 180.53 216.189 181.333 215.672 182.041C215.162 182.748 214.448 183.306 213.529 183.714C212.611 184.122 211.543 184.327 210.325 184.327C208.726 184.327 207.403 183.98 206.355 183.286C205.307 182.592 204.644 181.578 204.365 180.245L206.651 179.673C206.869 180.517 207.28 181.149 207.886 181.571C208.498 181.993 209.298 182.204 210.284 182.204C211.407 182.204 212.298 181.966 212.958 181.49C213.624 181.007 213.958 180.428 213.958 179.755C213.958 179.211 213.767 178.755 213.386 178.387C213.005 178.013 212.42 177.734 211.631 177.551L209.019 176.938C207.583 176.598 206.529 176.071 205.855 175.356C205.188 174.635 204.855 173.734 204.855 172.652C204.855 171.768 205.103 170.985 205.6 170.305C206.103 169.625 206.787 169.091 207.651 168.703C208.522 168.315 209.508 168.121 210.611 168.121C212.162 168.121 213.379 168.461 214.264 169.142C215.155 169.822 215.788 170.72 216.162 171.836ZM220.073 184V168.325H222.481V184H220.073ZM221.298 165.713C220.828 165.713 220.423 165.553 220.083 165.233C219.75 164.914 219.583 164.529 219.583 164.08C219.583 163.631 219.75 163.247 220.083 162.927C220.423 162.607 220.828 162.447 221.298 162.447C221.767 162.447 222.168 162.607 222.502 162.927C222.842 163.247 223.012 163.631 223.012 164.08C223.012 164.529 222.842 164.914 222.502 165.233C222.168 165.553 221.767 165.713 221.298 165.713ZM233.219 190.205C232.056 190.205 231.056 190.055 230.219 189.756C229.382 189.463 228.685 189.075 228.127 188.592C227.576 188.116 227.137 187.606 226.811 187.061L228.729 185.714C228.947 186 229.222 186.327 229.556 186.694C229.889 187.068 230.345 187.391 230.923 187.664C231.508 187.942 232.274 188.082 233.219 188.082C234.485 188.082 235.529 187.776 236.352 187.164C237.175 186.551 237.587 185.592 237.587 184.286V181.102H237.383C237.206 181.388 236.954 181.741 236.628 182.163C236.308 182.578 235.845 182.949 235.24 183.275C234.641 183.595 233.832 183.755 232.811 183.755C231.546 183.755 230.41 183.456 229.403 182.857C228.403 182.258 227.61 181.388 227.025 180.245C226.447 179.102 226.158 177.714 226.158 176.081C226.158 174.475 226.44 173.077 227.005 171.887C227.569 170.689 228.355 169.764 229.362 169.111C230.369 168.451 231.532 168.121 232.852 168.121C233.872 168.121 234.682 168.291 235.281 168.632C235.886 168.965 236.349 169.346 236.669 169.774C236.995 170.196 237.247 170.543 237.424 170.815H237.669V168.325H239.995V184.449C239.995 185.796 239.689 186.891 239.077 187.735C238.471 188.585 237.655 189.208 236.628 189.602C235.607 190.004 234.471 190.205 233.219 190.205ZM233.138 181.592C234.104 181.592 234.92 181.371 235.587 180.928C236.254 180.486 236.76 179.85 237.107 179.02C237.454 178.19 237.628 177.197 237.628 176.04C237.628 174.911 237.458 173.914 237.118 173.05C236.777 172.186 236.274 171.509 235.607 171.019C234.941 170.53 234.117 170.285 233.138 170.285C232.117 170.285 231.267 170.543 230.587 171.06C229.913 171.577 229.406 172.271 229.066 173.142C228.733 174.013 228.566 174.979 228.566 176.04C228.566 177.129 228.736 178.091 229.076 178.928C229.423 179.758 229.933 180.411 230.607 180.888C231.287 181.357 232.131 181.592 233.138 181.592ZM246.812 174.571V184H244.404V168.325H246.731V170.775H246.935C247.302 169.979 247.86 169.339 248.608 168.856C249.357 168.366 250.323 168.121 251.506 168.121C252.568 168.121 253.496 168.339 254.292 168.774C255.088 169.203 255.707 169.856 256.15 170.734C256.592 171.605 256.813 172.707 256.813 174.04V184H254.405V174.203C254.405 172.972 254.085 172.013 253.445 171.326C252.806 170.632 251.928 170.285 250.813 170.285C250.044 170.285 249.357 170.451 248.751 170.785C248.152 171.118 247.68 171.605 247.333 172.244C246.986 172.884 246.812 173.659 246.812 174.571Z" fill="black"/>
</g>
<rect x="78" y="158" width="211" height="59" fill="white"/>
<path d="M135.773 195H134.364C134.28 194.595 134.134 194.239 133.926 193.932C133.722 193.625 133.472 193.367 133.176 193.159C132.884 192.947 132.561 192.788 132.205 192.682C131.848 192.576 131.477 192.523 131.091 192.523C130.386 192.523 129.748 192.701 129.176 193.057C128.608 193.413 128.155 193.938 127.818 194.631C127.485 195.324 127.318 196.174 127.318 197.182C127.318 198.189 127.485 199.04 127.818 199.733C128.155 200.426 128.608 200.951 129.176 201.307C129.748 201.663 130.386 201.841 131.091 201.841C131.477 201.841 131.848 201.788 132.205 201.682C132.561 201.576 132.884 201.419 133.176 201.21C133.472 200.998 133.722 200.739 133.926 200.432C134.134 200.121 134.28 199.765 134.364 199.364H135.773C135.667 199.958 135.473 200.491 135.193 200.96C134.913 201.43 134.564 201.83 134.148 202.159C133.731 202.485 133.263 202.733 132.744 202.903C132.229 203.074 131.678 203.159 131.091 203.159C130.098 203.159 129.216 202.917 128.443 202.432C127.67 201.947 127.063 201.258 126.619 200.364C126.176 199.47 125.955 198.409 125.955 197.182C125.955 195.955 126.176 194.894 126.619 194C127.063 193.106 127.67 192.417 128.443 191.932C129.216 191.447 130.098 191.205 131.091 191.205C131.678 191.205 132.229 191.29 132.744 191.46C133.263 191.631 133.731 191.881 134.148 192.21C134.564 192.536 134.913 192.934 135.193 193.403C135.473 193.869 135.667 194.402 135.773 195ZM141.413 203.182C140.625 203.182 139.934 202.994 139.339 202.619C138.749 202.244 138.286 201.72 137.953 201.045C137.624 200.371 137.459 199.583 137.459 198.682C137.459 197.773 137.624 196.979 137.953 196.301C138.286 195.623 138.749 195.097 139.339 194.722C139.934 194.347 140.625 194.159 141.413 194.159C142.201 194.159 142.891 194.347 143.482 194.722C144.076 195.097 144.538 195.623 144.868 196.301C145.201 196.979 145.368 197.773 145.368 198.682C145.368 199.583 145.201 200.371 144.868 201.045C144.538 201.72 144.076 202.244 143.482 202.619C142.891 202.994 142.201 203.182 141.413 203.182ZM141.413 201.977C142.012 201.977 142.504 201.824 142.891 201.517C143.277 201.21 143.563 200.807 143.749 200.307C143.934 199.807 144.027 199.265 144.027 198.682C144.027 198.098 143.934 197.555 143.749 197.051C143.563 196.547 143.277 196.14 142.891 195.83C142.504 195.519 142.012 195.364 141.413 195.364C140.815 195.364 140.322 195.519 139.936 195.83C139.55 196.14 139.264 196.547 139.078 197.051C138.893 197.555 138.8 198.098 138.8 198.682C138.8 199.265 138.893 199.807 139.078 200.307C139.264 200.807 139.55 201.21 139.936 201.517C140.322 201.824 140.815 201.977 141.413 201.977ZM148.756 197.75V203H147.415V194.273H148.71V195.636H148.824C149.028 195.193 149.339 194.837 149.756 194.568C150.172 194.295 150.71 194.159 151.369 194.159C151.96 194.159 152.477 194.28 152.92 194.523C153.364 194.761 153.708 195.125 153.955 195.614C154.201 196.098 154.324 196.712 154.324 197.455V203H152.983V197.545C152.983 196.86 152.805 196.326 152.449 195.943C152.093 195.557 151.604 195.364 150.983 195.364C150.555 195.364 150.172 195.456 149.835 195.642C149.502 195.828 149.239 196.098 149.045 196.455C148.852 196.811 148.756 197.242 148.756 197.75ZM162.956 196.227L161.751 196.568C161.676 196.367 161.564 196.172 161.416 195.983C161.272 195.79 161.075 195.631 160.825 195.506C160.575 195.381 160.255 195.318 159.865 195.318C159.331 195.318 158.886 195.441 158.53 195.688C158.178 195.93 158.001 196.239 158.001 196.614C158.001 196.947 158.123 197.21 158.365 197.403C158.607 197.597 158.986 197.758 159.501 197.886L160.797 198.205C161.577 198.394 162.159 198.684 162.541 199.074C162.924 199.46 163.115 199.958 163.115 200.568C163.115 201.068 162.971 201.515 162.683 201.909C162.399 202.303 162.001 202.614 161.49 202.841C160.979 203.068 160.384 203.182 159.706 203.182C158.816 203.182 158.079 202.989 157.496 202.602C156.912 202.216 156.543 201.652 156.388 200.909L157.661 200.591C157.782 201.061 158.011 201.413 158.348 201.648C158.689 201.883 159.134 202 159.683 202C160.308 202 160.804 201.867 161.172 201.602C161.543 201.333 161.729 201.011 161.729 200.636C161.729 200.333 161.623 200.08 161.411 199.875C161.198 199.667 160.873 199.511 160.433 199.409L158.979 199.068C158.179 198.879 157.592 198.585 157.217 198.188C156.846 197.786 156.661 197.284 156.661 196.682C156.661 196.189 156.799 195.754 157.075 195.375C157.356 194.996 157.736 194.699 158.217 194.483C158.702 194.267 159.251 194.159 159.865 194.159C160.729 194.159 161.407 194.348 161.899 194.727C162.395 195.106 162.748 195.606 162.956 196.227ZM170.634 199.432V194.273H171.974V203H170.634V201.523H170.543C170.338 201.966 170.02 202.343 169.588 202.653C169.156 202.96 168.611 203.114 167.952 203.114C167.406 203.114 166.921 202.994 166.497 202.756C166.073 202.513 165.74 202.15 165.497 201.665C165.255 201.176 165.134 200.561 165.134 199.818V194.273H166.474V199.727C166.474 200.364 166.652 200.871 167.009 201.25C167.368 201.629 167.827 201.818 168.384 201.818C168.717 201.818 169.056 201.733 169.401 201.562C169.749 201.392 170.041 201.131 170.276 200.778C170.514 200.426 170.634 199.977 170.634 199.432ZM175.771 191.364V203H174.43V191.364H175.771ZM182.023 194.273V195.409H177.5V194.273H182.023ZM178.818 192.182H180.159V200.5C180.159 200.879 180.214 201.163 180.324 201.352C180.438 201.538 180.581 201.663 180.756 201.727C180.934 201.788 181.121 201.818 181.318 201.818C181.466 201.818 181.587 201.811 181.682 201.795C181.777 201.777 181.852 201.761 181.909 201.75L182.182 202.955C182.091 202.989 181.964 203.023 181.801 203.057C181.638 203.095 181.432 203.114 181.182 203.114C180.803 203.114 180.432 203.032 180.068 202.869C179.708 202.706 179.409 202.458 179.17 202.125C178.936 201.792 178.818 201.371 178.818 200.864V192.182ZM186.608 203.205C186.055 203.205 185.553 203.1 185.102 202.892C184.652 202.68 184.294 202.375 184.028 201.977C183.763 201.576 183.631 201.091 183.631 200.523C183.631 200.023 183.729 199.617 183.926 199.307C184.123 198.992 184.386 198.746 184.716 198.568C185.045 198.39 185.409 198.258 185.807 198.17C186.208 198.08 186.612 198.008 187.017 197.955C187.547 197.886 187.977 197.835 188.307 197.801C188.64 197.763 188.883 197.701 189.034 197.614C189.189 197.527 189.267 197.375 189.267 197.159V197.114C189.267 196.553 189.114 196.117 188.807 195.807C188.504 195.496 188.044 195.341 187.426 195.341C186.786 195.341 186.284 195.481 185.92 195.761C185.557 196.042 185.301 196.341 185.153 196.659L183.881 196.205C184.108 195.674 184.411 195.261 184.79 194.966C185.172 194.667 185.589 194.458 186.04 194.341C186.494 194.22 186.941 194.159 187.381 194.159C187.661 194.159 187.983 194.193 188.347 194.261C188.714 194.326 189.068 194.46 189.409 194.665C189.754 194.869 190.04 195.178 190.267 195.591C190.494 196.004 190.608 196.557 190.608 197.25V203H189.267V201.818H189.199C189.108 202.008 188.956 202.21 188.744 202.426C188.532 202.642 188.25 202.826 187.898 202.977C187.545 203.129 187.116 203.205 186.608 203.205ZM186.812 202C187.343 202 187.79 201.896 188.153 201.688C188.521 201.479 188.797 201.21 188.983 200.881C189.172 200.551 189.267 200.205 189.267 199.841V198.614C189.21 198.682 189.085 198.744 188.892 198.801C188.703 198.854 188.483 198.902 188.233 198.943C187.987 198.981 187.746 199.015 187.511 199.045C187.28 199.072 187.093 199.095 186.949 199.114C186.6 199.159 186.275 199.233 185.972 199.335C185.672 199.434 185.43 199.583 185.244 199.784C185.063 199.981 184.972 200.25 184.972 200.591C184.972 201.057 185.144 201.409 185.489 201.648C185.837 201.883 186.278 202 186.812 202ZM194.396 197.75V203H193.055V194.273H194.351V195.636H194.464C194.669 195.193 194.98 194.837 195.396 194.568C195.813 194.295 196.351 194.159 197.01 194.159C197.601 194.159 198.118 194.28 198.561 194.523C199.004 194.761 199.349 195.125 199.595 195.614C199.841 196.098 199.964 196.712 199.964 197.455V203H198.624V197.545C198.624 196.86 198.446 196.326 198.089 195.943C197.733 195.557 197.245 195.364 196.624 195.364C196.196 195.364 195.813 195.456 195.476 195.642C195.143 195.828 194.879 196.098 194.686 196.455C194.493 196.811 194.396 197.242 194.396 197.75ZM205.96 203.182C205.142 203.182 204.438 202.989 203.847 202.602C203.256 202.216 202.801 201.684 202.483 201.006C202.165 200.328 202.006 199.553 202.006 198.682C202.006 197.795 202.169 197.013 202.494 196.335C202.824 195.653 203.282 195.121 203.869 194.739C204.46 194.352 205.15 194.159 205.938 194.159C206.551 194.159 207.104 194.273 207.597 194.5C208.089 194.727 208.492 195.045 208.807 195.455C209.121 195.864 209.316 196.341 209.392 196.886H208.051C207.949 196.489 207.722 196.136 207.369 195.83C207.021 195.519 206.551 195.364 205.96 195.364C205.438 195.364 204.979 195.5 204.585 195.773C204.195 196.042 203.89 196.422 203.67 196.915C203.455 197.403 203.347 197.977 203.347 198.636C203.347 199.311 203.453 199.898 203.665 200.398C203.881 200.898 204.184 201.286 204.574 201.562C204.968 201.839 205.43 201.977 205.96 201.977C206.309 201.977 206.625 201.917 206.909 201.795C207.193 201.674 207.434 201.5 207.631 201.273C207.828 201.045 207.968 200.773 208.051 200.455H209.392C209.316 200.97 209.129 201.434 208.83 201.847C208.534 202.256 208.142 202.581 207.653 202.824C207.169 203.062 206.604 203.182 205.96 203.182ZM212.216 206.273C211.989 206.273 211.786 206.254 211.608 206.216C211.43 206.182 211.307 206.148 211.239 206.114L211.58 204.932C211.905 205.015 212.193 205.045 212.443 205.023C212.693 205 212.915 204.888 213.108 204.688C213.305 204.491 213.485 204.17 213.648 203.727L213.898 203.045L210.67 194.273H212.125L214.534 201.227H214.625L217.034 194.273H218.489L214.784 204.273C214.617 204.723 214.411 205.097 214.165 205.392C213.919 205.691 213.633 205.913 213.307 206.057C212.985 206.201 212.621 206.273 212.216 206.273Z" fill="#5E5E5E"/>
<path d="M122.183 180L118.405 166.182H120.105L122.993 177.436H123.128L126.07 166.182H127.959L130.901 177.436H131.036L133.923 166.182H135.624L131.845 180H130.118L127.068 168.989H126.96L123.911 180H122.183ZM140.873 180.216C139.874 180.216 139.013 179.996 138.289 179.555C137.569 179.109 137.013 178.489 136.622 177.692C136.235 176.892 136.042 175.961 136.042 174.899C136.042 173.838 136.235 172.902 136.622 172.092C137.013 171.278 137.558 170.644 138.255 170.19C138.957 169.731 139.775 169.501 140.711 169.501C141.251 169.501 141.784 169.591 142.31 169.771C142.836 169.951 143.315 170.244 143.747 170.648C144.179 171.049 144.523 171.58 144.779 172.241C145.036 172.902 145.164 173.716 145.164 174.683V175.358H137.175V173.982H143.545C143.545 173.397 143.428 172.875 143.194 172.416C142.964 171.957 142.636 171.595 142.209 171.33C141.786 171.065 141.287 170.932 140.711 170.932C140.077 170.932 139.528 171.089 139.065 171.404C138.606 171.714 138.253 172.119 138.005 172.619C137.758 173.118 137.634 173.653 137.634 174.224V175.142C137.634 175.925 137.769 176.588 138.039 177.132C138.313 177.672 138.694 178.084 139.179 178.367C139.665 178.646 140.23 178.786 140.873 178.786C141.291 178.786 141.669 178.727 142.006 178.61C142.348 178.489 142.643 178.309 142.89 178.07C143.138 177.827 143.329 177.526 143.464 177.166L145.002 177.598C144.84 178.12 144.568 178.579 144.186 178.974C143.803 179.366 143.331 179.672 142.769 179.892C142.207 180.108 141.575 180.216 140.873 180.216ZM147.802 180V166.182H149.395V171.283H149.529C149.646 171.103 149.808 170.873 150.015 170.594C150.227 170.311 150.528 170.059 150.919 169.839C151.315 169.614 151.85 169.501 152.525 169.501C153.398 169.501 154.167 169.72 154.833 170.156C155.498 170.592 156.018 171.211 156.391 172.011C156.765 172.812 156.951 173.757 156.951 174.845C156.951 175.943 156.765 176.894 156.391 177.699C156.018 178.5 155.501 179.121 154.839 179.561C154.178 179.998 153.416 180.216 152.552 180.216C151.886 180.216 151.353 180.106 150.953 179.885C150.553 179.66 150.245 179.406 150.029 179.123C149.813 178.835 149.646 178.597 149.529 178.408H149.341V180H147.802ZM149.368 174.818C149.368 175.601 149.482 176.291 149.712 176.89C149.941 177.483 150.276 177.949 150.717 178.286C151.158 178.619 151.698 178.786 152.336 178.786C153.002 178.786 153.558 178.61 154.003 178.259C154.453 177.904 154.79 177.427 155.015 176.829C155.244 176.226 155.359 175.556 155.359 174.818C155.359 174.089 155.247 173.433 155.022 172.848C154.801 172.259 154.466 171.793 154.016 171.451C153.571 171.105 153.011 170.932 152.336 170.932C151.689 170.932 151.144 171.096 150.703 171.424C150.263 171.748 149.93 172.203 149.705 172.787C149.48 173.368 149.368 174.045 149.368 174.818ZM169.211 180H164.947V166.182H169.4C170.74 166.182 171.887 166.458 172.841 167.012C173.795 167.56 174.525 168.35 175.034 169.38C175.542 170.406 175.796 171.634 175.796 173.064C175.796 174.503 175.54 175.743 175.027 176.782C174.514 177.816 173.768 178.612 172.787 179.17C171.806 179.723 170.614 180 169.211 180ZM166.62 178.516H169.103C170.246 178.516 171.192 178.295 171.944 177.854C172.695 177.414 173.255 176.786 173.624 175.972C173.992 175.158 174.177 174.188 174.177 173.064C174.177 171.948 173.995 170.988 173.63 170.183C173.266 169.373 172.722 168.752 171.998 168.321C171.273 167.884 170.371 167.666 169.292 167.666H166.62V178.516ZM182.732 180.216C181.734 180.216 180.872 179.996 180.148 179.555C179.428 179.109 178.873 178.489 178.482 177.692C178.095 176.892 177.901 175.961 177.901 174.899C177.901 173.838 178.095 172.902 178.482 172.092C178.873 171.278 179.417 170.644 180.114 170.19C180.816 169.731 181.635 169.501 182.57 169.501C183.11 169.501 183.643 169.591 184.169 169.771C184.696 169.951 185.175 170.244 185.607 170.648C186.038 171.049 186.382 171.58 186.639 172.241C186.895 172.902 187.023 173.716 187.023 174.683V175.358H179.035V173.982H185.404C185.404 173.397 185.287 172.875 185.053 172.416C184.824 171.957 184.496 171.595 184.068 171.33C183.645 171.065 183.146 170.932 182.57 170.932C181.936 170.932 181.387 171.089 180.924 171.404C180.465 171.714 180.112 172.119 179.865 172.619C179.617 173.118 179.494 173.653 179.494 174.224V175.142C179.494 175.925 179.629 176.588 179.898 177.132C180.173 177.672 180.553 178.084 181.039 178.367C181.525 178.646 182.089 178.786 182.732 178.786C183.151 178.786 183.528 178.727 183.866 178.61C184.208 178.489 184.502 178.309 184.75 178.07C184.997 177.827 185.188 177.526 185.323 177.166L186.862 177.598C186.7 178.12 186.427 178.579 186.045 178.974C185.663 179.366 185.19 179.672 184.628 179.892C184.066 180.108 183.434 180.216 182.732 180.216ZM196.787 171.957L195.356 172.362C195.266 172.124 195.134 171.892 194.958 171.667C194.787 171.438 194.553 171.249 194.256 171.1C193.96 170.952 193.579 170.878 193.116 170.878C192.482 170.878 191.953 171.024 191.531 171.316C191.112 171.604 190.903 171.971 190.903 172.416C190.903 172.812 191.047 173.125 191.335 173.354C191.623 173.583 192.073 173.775 192.684 173.928L194.223 174.305C195.149 174.53 195.84 174.874 196.294 175.338C196.748 175.797 196.975 176.388 196.975 177.112C196.975 177.706 196.805 178.237 196.463 178.705C196.125 179.172 195.653 179.541 195.046 179.811C194.439 180.081 193.732 180.216 192.927 180.216C191.87 180.216 190.995 179.987 190.303 179.528C189.61 179.069 189.171 178.399 188.987 177.517L190.498 177.139C190.642 177.697 190.914 178.115 191.315 178.394C191.719 178.673 192.248 178.812 192.9 178.812C193.642 178.812 194.232 178.655 194.668 178.34C195.109 178.021 195.329 177.638 195.329 177.193C195.329 176.833 195.203 176.532 194.951 176.289C194.699 176.042 194.313 175.857 193.791 175.736L192.064 175.331C191.114 175.106 190.417 174.757 189.972 174.285C189.531 173.808 189.311 173.212 189.311 172.497C189.311 171.912 189.475 171.395 189.803 170.945C190.136 170.496 190.588 170.142 191.159 169.886C191.735 169.63 192.387 169.501 193.116 169.501C194.142 169.501 194.947 169.726 195.532 170.176C196.121 170.626 196.539 171.22 196.787 171.957ZM199.372 180V169.636H200.965V180H199.372ZM200.182 167.909C199.872 167.909 199.604 167.803 199.379 167.592C199.159 167.381 199.049 167.126 199.049 166.83C199.049 166.533 199.159 166.279 199.379 166.067C199.604 165.856 199.872 165.75 200.182 165.75C200.492 165.75 200.758 165.856 200.978 166.067C201.203 166.279 201.316 166.533 201.316 166.83C201.316 167.126 201.203 167.381 200.978 167.592C200.758 167.803 200.492 167.909 200.182 167.909ZM208.064 184.102C207.295 184.102 206.634 184.003 206.081 183.805C205.528 183.612 205.066 183.356 204.698 183.036C204.333 182.721 204.043 182.384 203.827 182.024L205.096 181.134C205.24 181.322 205.422 181.538 205.642 181.781C205.863 182.029 206.164 182.242 206.546 182.422C206.933 182.607 207.439 182.699 208.064 182.699C208.901 182.699 209.592 182.496 210.136 182.092C210.68 181.687 210.952 181.053 210.952 180.189V178.084H210.817C210.7 178.273 210.534 178.507 210.318 178.786C210.107 179.06 209.801 179.305 209.4 179.521C209.005 179.732 208.469 179.838 207.795 179.838C206.958 179.838 206.207 179.64 205.541 179.244C204.88 178.848 204.356 178.273 203.969 177.517C203.587 176.761 203.395 175.844 203.395 174.764C203.395 173.703 203.582 172.778 203.955 171.991C204.329 171.199 204.848 170.588 205.514 170.156C206.18 169.72 206.949 169.501 207.822 169.501C208.496 169.501 209.032 169.614 209.427 169.839C209.828 170.059 210.134 170.311 210.345 170.594C210.561 170.873 210.727 171.103 210.844 171.283H211.006V169.636H212.545V180.297C212.545 181.188 212.342 181.912 211.937 182.469C211.537 183.032 210.997 183.443 210.318 183.704C209.643 183.97 208.892 184.102 208.064 184.102ZM208.01 178.408C208.649 178.408 209.189 178.261 209.63 177.969C210.071 177.677 210.406 177.256 210.635 176.707C210.865 176.159 210.979 175.502 210.979 174.737C210.979 173.991 210.867 173.332 210.642 172.76C210.417 172.189 210.084 171.741 209.643 171.418C209.202 171.094 208.658 170.932 208.01 170.932C207.336 170.932 206.773 171.103 206.324 171.445C205.878 171.786 205.543 172.245 205.318 172.821C205.098 173.397 204.988 174.036 204.988 174.737C204.988 175.457 205.1 176.093 205.325 176.647C205.555 177.195 205.892 177.627 206.337 177.942C206.787 178.252 207.345 178.408 208.01 178.408ZM217.052 173.766V180H215.459V169.636H216.998V171.256H217.133C217.376 170.729 217.744 170.307 218.239 169.987C218.734 169.663 219.373 169.501 220.155 169.501C220.857 169.501 221.471 169.645 221.997 169.933C222.524 170.217 222.933 170.648 223.225 171.229C223.518 171.804 223.664 172.533 223.664 173.415V180H222.072V173.523C222.072 172.709 221.86 172.074 221.437 171.62C221.015 171.161 220.434 170.932 219.697 170.932C219.188 170.932 218.734 171.042 218.334 171.262C217.938 171.483 217.625 171.804 217.396 172.227C217.166 172.65 217.052 173.163 217.052 173.766Z" fill="black"/>
</g>
<defs>
<clipPath id="clip0_5_94">
<rect width="340" height="239" fill="white"/>
</clipPath>
</defs>
</svg>
