<svg width="55" height="50" viewBox="0 0 55 50" fill="none" xmlns="http://www.w3.org/2000/svg">
<path d="M54.1225 0.319617C54.48 0.573789 54.7134 0.815695 54.8777 1.19702C54.9188 1.50919 54.9188 1.50919 54.9235 1.85093C54.927 1.96313 54.9305 2.07533 54.934 2.19094C54.8009 2.99783 54.0325 3.55528 53.4237 4.10481C53.3258 4.19401 53.228 4.28321 53.1272 4.37512C52.7996 4.67352 52.4711 4.97112 52.1426 5.26873C51.9074 5.48255 51.6723 5.69655 51.4372 5.91053C50.9313 6.37095 50.4248 6.83097 49.9181 7.29071C49.1855 7.95541 48.4535 8.62072 47.7217 9.28618C46.5343 10.3659 45.3464 11.4451 44.1581 12.5241C43.004 13.572 41.8501 14.6201 40.6966 15.6685C40.6254 15.7332 40.5543 15.7979 40.481 15.8645C40.1241 16.1888 39.7673 16.5132 39.4104 16.8376C36.4511 19.5274 33.491 22.2165 30.5302 24.905C30.6974 25.2457 30.8863 25.4789 31.1766 25.7412C31.26 25.8171 31.3433 25.8929 31.4292 25.9711C31.5211 26.0536 31.613 26.1361 31.7076 26.221C31.805 26.3093 31.9024 26.3976 32.0027 26.4886C32.3302 26.7854 32.6586 27.0813 32.987 27.3773C33.2216 27.5895 33.456 27.8018 33.6904 28.0141C34.1959 28.4718 34.7018 28.9292 35.208 29.3863C36.0082 30.1091 36.8071 30.833 37.6059 31.5571C37.8792 31.8049 38.1526 32.0527 38.4259 32.3005C38.4943 32.3624 38.5626 32.4243 38.633 32.4881C39.4106 33.1929 40.1885 33.8975 40.9665 34.602C41.0376 34.6664 41.1087 34.7308 41.182 34.7971C42.3341 35.8403 43.4872 36.8827 44.6406 37.9249C45.825 38.9951 47.008 40.0667 48.1898 41.1394C48.9186 41.8008 49.6485 42.4611 50.3799 43.1201C50.8813 43.572 51.3813 44.0251 51.8803 44.4791C52.1681 44.7409 52.4567 45.002 52.7465 45.2619C53.0609 45.5442 53.3731 45.8285 53.6847 46.1133C53.7763 46.1945 53.8679 46.2758 53.9623 46.3595C54.5112 46.8667 54.8763 47.3409 55 48.0565C54.9524 48.7742 54.7058 49.2268 54.1436 49.7261C53.7417 49.9574 53.4071 49.985 52.9354 49.9904C52.812 49.9936 52.6887 49.9967 52.5616 50C51.6747 49.8789 51.0619 49.1798 50.4579 48.6259C50.3598 48.5369 50.2618 48.4479 50.1607 48.3562C49.8327 48.0582 49.5056 47.7594 49.1784 47.4605C48.9434 47.2465 48.7082 47.0327 48.473 46.8188C47.9669 46.3585 47.4612 45.8978 46.9559 45.4368C46.2252 44.7703 45.4939 44.1044 44.7624 43.4387C43.5755 42.3585 42.3892 41.2777 41.2032 40.1967C40.0514 39.1468 38.8992 38.0971 37.7468 37.0477C37.6757 36.983 37.6046 36.9182 37.5314 36.8516C37.1748 36.5269 36.8183 36.2023 36.4617 35.8776C33.505 33.1854 30.5491 30.4925 27.5938 27.799C27.2192 27.9512 26.962 28.1235 26.673 28.3873C26.5892 28.4632 26.5054 28.5391 26.4191 28.6173C26.328 28.701 26.237 28.7846 26.1431 28.8708C26.0456 28.9595 25.9481 29.0482 25.8477 29.1395C25.5201 29.4377 25.1933 29.7367 24.8666 30.0357C24.6323 30.2493 24.398 30.4628 24.1636 30.6762C23.6584 31.1364 23.1537 31.597 22.6492 32.0579C21.9195 32.7246 21.189 33.3905 20.4582 34.0563C19.2721 35.1369 18.0864 36.2179 16.9011 37.2993C16.8302 37.364 16.7593 37.4288 16.6862 37.4954C16.1826 37.9549 15.679 38.4144 15.1754 38.8738C14.6002 39.3987 14.0249 39.9235 13.4497 40.4483C13.3434 40.5453 13.3434 40.5453 13.235 40.6442C12.0541 41.7215 10.8728 42.7984 9.69114 43.875C8.96209 44.5392 8.23349 45.2038 7.50544 45.869C7.00675 46.3245 6.50762 46.7797 6.00816 47.2345C5.71985 47.4971 5.43181 47.7599 5.14417 48.0231C4.83257 48.3082 4.52023 48.5926 4.2077 48.8768C4.11663 48.9605 4.02556 49.0441 3.93172 49.1303C3.80605 49.2442 3.80605 49.2442 3.67784 49.3603C3.60582 49.4261 3.5338 49.4918 3.45959 49.5595C2.89514 50.0005 2.3659 49.9962 1.64534 49.9835C0.996715 49.9202 0.696675 49.6394 0.264138 49.2252C-0.0231687 48.6623 -0.0534764 48.1103 0.0653211 47.5C0.451815 46.8883 0.971445 46.4224 1.51931 45.9279C1.61716 45.8386 1.715 45.7494 1.81581 45.6575C2.14342 45.3591 2.47189 45.0615 2.80037 44.7639C3.03561 44.5501 3.27068 44.3361 3.50574 44.1221C4.01172 43.6617 4.51814 43.2017 5.02487 42.742C5.75752 42.0773 6.48948 41.4119 7.22128 40.7465C8.40867 39.6667 9.59661 38.5875 10.7849 37.5086C11.939 36.4607 13.0929 35.4126 14.2464 34.3641C14.3175 34.2995 14.3887 34.2348 14.462 34.1682C14.8188 33.8438 15.1757 33.5194 15.5326 33.1951C18.4918 30.5052 21.452 27.8162 24.4128 25.1276C24.2459 24.7878 24.0578 24.5547 23.7683 24.2929C23.6853 24.2173 23.6024 24.1418 23.517 24.0639C23.4256 23.9818 23.3342 23.8997 23.24 23.8151C23.1431 23.7272 23.0463 23.6392 22.9464 23.5486C22.6206 23.2532 22.2939 22.9585 21.9672 22.6638C21.7339 22.4525 21.5006 22.2411 21.2674 22.0297C20.7645 21.574 20.2612 21.1187 19.7577 20.6636C18.9616 19.9441 18.1668 19.2234 17.3721 18.5027C17.1001 18.256 16.8282 18.0094 16.5562 17.7628C16.4883 17.7011 16.4203 17.6395 16.3503 17.576C15.5767 16.8745 14.8028 16.1733 14.0288 15.4721C13.958 15.408 13.8873 15.3439 13.8144 15.2779C12.668 14.2394 11.5209 13.2016 10.3736 12.164C9.19548 11.0984 8.01857 10.0317 6.84263 8.96416C6.1174 8.30585 5.39121 7.64844 4.66375 6.99217C4.16517 6.54223 3.6677 6.09129 3.17109 5.63954C2.88463 5.37902 2.59752 5.11913 2.30939 4.86014C1.99681 4.57905 1.68618 4.29629 1.37596 4.01305C1.28484 3.93193 1.19372 3.85081 1.09984 3.76723C0.530579 3.24271 0.0916532 2.74113 0.0542205 1.97014C0.0988468 1.42141 0.292613 1.05641 0.677066 0.640489C1.19328 0.254361 1.59735 0.0942978 2.2676 0.083963C3.2074 0.242327 3.75913 0.678626 4.41155 1.28625C4.51042 1.37562 4.60928 1.46499 4.71114 1.55707C5.04089 1.85595 5.36795 2.15716 5.69508 2.45841C5.93113 2.67372 6.16774 2.88853 6.40433 3.10335C6.91284 3.56561 7.41999 4.02907 7.92624 4.49338C8.65817 5.16469 9.39214 5.83413 10.1266 6.50314C11.3183 7.58872 12.5083 8.67578 13.6973 9.76379C14.8521 10.8204 16.0076 11.8763 17.1641 12.9313C17.2354 12.9964 17.3068 13.0615 17.3803 13.1285C17.7382 13.455 18.0961 13.7815 18.454 14.1079C21.4214 16.8144 24.3862 19.5232 27.3491 22.2337C27.7236 22.0816 27.9799 21.9098 28.2683 21.6457C28.3517 21.5698 28.4351 21.494 28.521 21.4158C28.6117 21.3323 28.7023 21.2487 28.7957 21.1626C28.8928 21.074 28.9899 20.9854 29.0899 20.8941C29.4161 20.5962 29.7414 20.2974 30.0667 19.9987C30.2999 19.7853 30.5333 19.572 30.7667 19.3587C31.2698 18.8989 31.7726 18.4386 32.275 17.9782C33.0695 17.2502 33.8653 16.5234 34.6613 15.7967C34.9336 15.548 35.206 15.2994 35.4784 15.0507C35.5464 14.9885 35.6145 14.9264 35.6846 14.8623C36.4594 14.1549 37.2339 13.4472 38.0082 12.7395C38.079 12.6748 38.1498 12.6101 38.2227 12.5434C39.3695 11.4953 40.5153 10.4462 41.6608 9.397C42.8373 8.3195 44.0152 7.24329 45.1943 6.16817C45.9213 5.50516 46.6471 4.84112 47.3715 4.1757C47.8682 3.71959 48.3663 3.2647 48.8654 2.81076C49.1532 2.54893 49.4401 2.28643 49.7259 2.02278C50.0361 1.73669 50.3486 1.45274 50.6617 1.16922C50.751 1.08589 50.8403 1.00256 50.9323 0.916713C51.8437 0.100389 52.9368 -0.339576 54.1225 0.319617Z" fill="white"/>
</svg>
