<svg width="1000" height="100" viewBox="0 0 1000 100" fill="none" xmlns="http://www.w3.org/2000/svg">
<g clip-path="url(#clip0_29_7)">
<path d="M0 102.564V19.2307C32.1957 25.2856 64.3913 31.3405 95.1389 28.2051C125.886 25.0697 155.186 12.744 179.167 10.5128C203.147 8.28158 221.81 16.1449 247.222 21.0256C272.635 25.9063 304.798 27.8043 335.417 27.6923C366.035 27.5802 395.109 25.4581 422.222 24.8717C449.335 24.2854 474.488 25.2347 499.306 21.7948C524.123 18.355 548.605 10.526 581.25 9.74354C613.895 8.96109 654.701 15.2252 679.167 17.6923C703.632 20.1593 711.755 18.8293 738.194 17.9487C764.634 17.068 809.389 16.6366 841.667 16.6666C873.945 16.6966 893.746 17.188 918.056 17.6923C942.365 18.1965 971.182 18.7136 1000 19.2307V102.564H0Z" fill="url(#paint0_linear_29_7)" fill-opacity="0.4"/>
<path d="M0 102.564V44.8719C25.9988 44.6299 51.9976 44.3879 75.6944 45.3847C99.3913 46.3814 120.786 48.6169 155.556 48.718C190.325 48.8192 238.468 46.7861 264.583 43.5898C290.698 40.3936 294.785 36.0342 322.917 37.6924C351.049 39.3506 403.226 47.0264 430.556 47.436C457.885 47.8455 460.368 40.9889 487.5 37.436C514.632 33.883 566.415 33.6338 596.528 36.6667C626.641 39.6996 635.085 46.0146 654.861 45.8975C674.637 45.7804 705.745 39.2312 738.889 38.9744C772.033 38.7177 807.214 44.7534 838.889 46.6667C870.564 48.58 898.732 46.3709 925 45.3847C951.267 44.3985 975.634 44.6352 1000 44.8719V102.564H0Z" fill="url(#paint1_linear_29_7)" fill-opacity="0.53"/>
<path d="M0 102.564V70.5129C30.6945 68.9143 61.3891 67.3157 90.9722 68.9744C120.555 70.6331 149.027 75.5491 172.917 78.4616C196.806 81.3741 216.114 82.2831 238.889 78.4616C261.664 74.64 287.907 66.0879 320.833 65.3846C353.76 64.6814 393.37 71.8271 423.611 72.8205C453.852 73.814 474.724 68.6552 498.611 67.4359C522.498 66.2167 549.401 68.9369 581.25 68.2052C613.099 67.4734 649.896 63.2896 679.167 66.6667C708.437 70.0438 730.183 80.9819 758.333 78.9744C786.484 76.9669 821.041 62.0138 845.833 61.0257C870.626 60.0376 885.655 73.0144 909.722 76.9231C933.789 80.8318 966.895 75.6723 1000 70.5129V102.564H0Z" fill="url(#paint2_linear_29_7)"/>
</g>
<defs>
<linearGradient id="paint0_linear_29_7" x1="0" y1="56.1202" x2="1000" y2="56.1202" gradientUnits="userSpaceOnUse">
<stop offset="0.05" stop-color="#760485" stop-opacity="0.466667"/>
<stop offset="0.95" stop-color="#6F7FE8"/>
</linearGradient>
<linearGradient id="paint1_linear_29_7" x1="0" y1="68.5655" x2="1000" y2="68.5655" gradientUnits="userSpaceOnUse">
<stop offset="0.05" stop-color="#7A0485"/>
<stop offset="0.95" stop-color="#6F7FE8"/>
</linearGradient>
<linearGradient id="paint2_linear_29_7" x1="0" y1="81.7682" x2="1000" y2="81.7682" gradientUnits="userSpaceOnUse">
<stop offset="0.05" stop-color="#760485"/>
<stop offset="0.95" stop-color="#6F7FE8"/>
</linearGradient>
<clipPath id="clip0_29_7">
<rect width="1000" height="100" fill="white"/>
</clipPath>
</defs>
</svg>
